<?xml version="1.0" encoding="utf-8"?>
<!-- Generator: Adobe Illustrator 19.0.0, SVG Export Plug-In . SVG Version: 6.00 Build 0)  -->
<svg version="1.1" id="Layer_3" xmlns="http://www.w3.org/2000/svg" xmlns:xlink="http://www.w3.org/1999/xlink" x="0px" y="0px"
	 viewBox="0 0 259 173" style="enable-background:new 0 0 259 173;" xml:space="preserve">
<g id="XMLID_39_">
	<g id="XMLID_60_">
		<path id="XMLID_64_" d="M24.7,159.8c0-10.9,0-21.8,0-32.6c0-6.5-0.6-14.2,0.4-20.2c2.4-14,12.6-24.3,27.7-20.6
			c11.1,2.7,15.5,14.5,15.9,24.5c0.6,17.9,3.1,47.7,24.6,52.9c4,1,8.1,0.7,12.1,0.7c3.7,0,7.4,0.1,11-0.7c7-1.6,13.1-6.1,17.9-11.3
			c8.9-9.9,14.7-22.5,18.9-35c2.5-7.5,4.2-14.9,9.3-21.2c10.1-12.5,25.2-10.5,39.7-10.5c6.1,0,6.1-9.4,0-9.4c0,0,0,0,0,0
			c-6.1,0-6.1,9.4,0,9.4c0,0,0,0,0,0c6.1,0,6.1-9.4,0-9.4c-13.4,0-27.6-1.6-39.1,6.6c-9.2,6.6-14.7,16.7-17.6,27.5
			c-2.3,8.6-5.9,17.1-10.4,24.8c-3.5,6.1-7.9,12.3-13.8,16.2c-6.6,4.4-14.7,3.9-22.3,3.6c-13.7-0.6-17.8-17.5-19.6-28.6
			c-1-6.3-0.8-12.7-1.5-19c-1.4-13.1-8-26-21.5-29.9C40,72.7,24,81,18.1,96.7c-3.1,8.2-2.8,16.5-2.8,25.1c0,12.6,0,25.3,0,37.9
			C15.3,165.8,24.7,165.8,24.7,159.8L24.7,159.8z"/>
	</g>
</g>
<g id="XMLID_36_">
	<g id="XMLID_65_">
		<path id="XMLID_74_" d="M97.8,76.3C97.8,76.3,97.8,76.3,97.8,76.3c0,3.2,0,6.3,0,9.4c11.4,0,24.1-2,33.7,5.4
			c7.4,5.7,11.5,14.4,14,23.1c5.4,19,17.2,46.7,39,50.7c8,1.5,16.8,0.5,24.8,0.5c7.1,0,13.9-1.6,19.6-5.9
			c10-7.5,14.7-20.2,16.8-32.2c2.7-15.1,1.5-30.7,1.5-45.9c0-21.8,0-43.7,0-65.5c0-6.1-9.4-6.1-9.4,0c0,20.1,0,40.2,0,60.2
			c0,13.7,0.9,27.6-0.2,41.3c-0.8,10-3.1,21-9.1,29.2c-9,12.3-25.2,9.6-38.6,9.3c-13.4-0.2-21.9-13.5-27.3-24.2
			c-3.3-6.5-6-13.4-8-20.5c-3.1-10.9-8.8-21.4-18.1-28.3C125.1,74.7,111.2,76.3,97.8,76.3c-6.1,0-6.1,9.4,0,9.4c0,0,0,0,0,0
			C103.9,85.7,103.9,76.3,97.8,76.3L97.8,76.3z"/>
	</g>
</g>
</svg>
