<?xml version="1.0" encoding="UTF-8"?>
<svg version="1.1" xmlns="http://www.w3.org/2000/svg" width="20" height="20" viewBox="0 0 160 160">
<path d="M0 0 C3.51149841 0.58395206 5.29031758 1.83279645 7.8125 4.3125 C8.43769531 4.90675781 9.06289063 5.50101562 9.70703125 6.11328125 C11 8 11 8 10.890625 10.0625 C9.8705362 12.28164054 8.88036024 13.23150308 6.9375 14.6875 C5.968125 15.450625 4.99875 16.21375 4 17 C4 17.33 4 17.66 4 18 C7.96 18.99 11.92 19.98 16 21 C16.66 19.35 17.32 17.7 18 16 C20.3484536 11.05588715 23.53036297 8.95164709 28 6 C33.75 10.625 33.75 10.625 36 14 C35.54280794 18.6862186 34.03889339 20.11694062 30.5 23.125 C28 25 28 25 26 25 C26 25.66 26 26.32 26 27 C26.680625 27.04898437 27.36125 27.09796875 28.0625 27.1484375 C29.031875 27.22320313 30.00125 27.29796875 31 27.375 C32.63195312 27.49294922 32.63195312 27.49294922 34.296875 27.61328125 C36.97481319 27.89293935 39.45490503 28.25977886 42.078125 28.79296875 C49.57297284 30.46781896 49.57297284 30.46781896 56.69140625 28.453125 C58.71632509 26.4095605 60.3520929 24.35228955 62 22 C63.57421875 20.23046875 63.57421875 20.23046875 65 19 C65.66 19 66.32 19 67 19 C67 18.34 67 17.68 67 17 C69.47423622 14.63068286 72.27617215 12.63596296 75 10.5625 C75.74378906 9.97662109 76.48757812 9.39074219 77.25390625 8.78710938 C86.19179534 1.93990913 95.68828282 -1.22515631 107 0 C110.7015606 2.11517748 112.38371248 4.12648336 114 8 C115.46744342 17.39163788 112.54267416 25.58489508 107.42578125 33.40625 C105.69979774 35.69146826 103.89328648 37.85148174 102 40 C100.96166016 41.18335937 100.96166016 41.18335937 99.90234375 42.390625 C99.17144531 43.21046875 98.44054687 44.0303125 97.6875 44.875 C96.97996582 45.67204346 96.27243164 46.46908691 95.54345703 47.2902832 C93 50 93 50 90.28881836 52.35522461 C86.14786076 56.1673029 83.18908879 58.93080893 82.66186523 64.70019531 C83.13643593 68.80313255 83.9065517 72.68090473 84.875 76.6875 C85.16681633 78.08157146 85.45332135 79.4767658 85.734375 80.87304688 C86.42002413 84.27104328 87.20861663 87.61844025 88 91 C92.455 85.555 92.455 85.555 97 80 C102.36558896 81.07311779 104.1687218 82.25579631 108 86 C108.671875 88.16796875 108.671875 88.16796875 109 90 C106.92548894 91.67879508 104.84165071 93.34280351 102.75 95 C102.16347656 95.47695312 101.57695312 95.95390625 100.97265625 96.4453125 C97.62385776 99.07919895 96.39260489 100 92 100 C93.98 105.94 93.98 105.94 96 112 C96.66 112 97.32 112 98 112 C99.35712166 110.44144019 99.35712166 110.44144019 100.625 108.5 C101.29402344 107.52546875 101.29402344 107.52546875 101.9765625 106.53125 C102.31429687 106.0259375 102.65203125 105.520625 103 105 C107.56873613 105.26874918 109.76954897 107.24736111 112.9609375 110.234375 C114 112 114 112 113.93359375 114.4375 C112.76621624 117.64168262 111.26588012 119.03875421 108.6875 121.25 C107.90761719 121.93578125 107.12773437 122.6215625 106.32421875 123.328125 C104.06514166 124.95314179 102.65955505 125.43287098 100 126 C100.25281738 126.57443848 100.50563477 127.14887695 100.76611328 127.74072266 C101.90581121 130.36060261 103.01548986 132.99220202 104.125 135.625 C104.52332031 136.52863281 104.92164063 137.43226563 105.33203125 138.36328125 C108.14687003 145.12877096 108.14687003 145.12877096 107.42578125 149.40625 C106.11397218 151.79266431 104.85151869 153.82650532 103.0625 155.875 C102.55847656 156.47054687 102.05445313 157.06609375 101.53515625 157.6796875 C100 159 100 159 97 159 C93 152.25 93 152.25 93 150 C92.34 150 91.68 150 91 150 C91 149.34 91 148.68 91 148 C90.34 147.67 89.68 147.34 89 147 C87.93101924 145.57658265 86.91659162 144.11167966 85.9375 142.625 C85.41027344 141.83351562 84.88304687 141.04203125 84.33984375 140.2265625 C83 138 83 138 82 135 C81.23558594 134.92652344 80.47117187 134.85304687 79.68359375 134.77734375 C77 134 77 134 75.41015625 132.06640625 C74.96542969 131.24011719 74.52070312 130.41382813 74.0625 129.5625 C73.56621094 128.66660156 73.06992188 127.77070312 72.55859375 126.84765625 C72.04425781 125.90792969 71.52992187 124.96820313 71 124 C69.88135946 122.16277942 68.75663079 120.32924789 67.625 118.5 C65 114.24615385 65 114.24615385 65 112 C63.515 112.495 63.515 112.495 62 113 C61.49210937 112.48050781 60.98421875 111.96101563 60.4609375 111.42578125 C57.24838055 108.17111213 54.08012745 104.9771111 50.5 102.125 C49.675 101.42375 48.85 100.7225 48 100 C48 99.34 48 98.68 48 98 C43.67484274 98.49102027 41.00076443 101.29798571 37.875 104.0625 C32.25716235 109 32.25716235 109 30 109 C29.67 109.66 29.34 110.32 29 111 C26.8439226 112.10524021 24.64975777 113.13700139 22.4375 114.125 C21.23996094 114.66382812 20.04242188 115.20265625 18.80859375 115.7578125 C17.88175781 116.16773437 16.95492187 116.57765625 16 117 C16.50563239 125.39615898 17.24581786 133.71011866 18.33935547 142.04858398 C18.88949163 146.39611563 19.28217843 150.62080777 19 155 C16.6875 157.5 16.6875 157.5 14 159 C9.85807265 157.61935755 9.05895397 154.88228832 7.20703125 151.19140625 C6.85613937 150.50948715 6.5052475 149.82756805 6.14372253 149.12498474 C5.40377372 147.68228306 4.66856391 146.23714244 3.93774414 144.78979492 C2.81615828 142.56974116 1.67995172 140.35767873 0.54101562 138.14648438 C-0.17535064 136.74523685 -0.89087428 135.34355816 -1.60546875 133.94140625 C-1.94603806 133.27677872 -2.28660736 132.61215118 -2.63749695 131.92738342 C-5 127.23305122 -5 127.23305122 -5 125 C-8.96576202 127.17076559 -11.90981744 129.67558207 -15.08203125 132.88671875 C-15.77059456 133.5795269 -15.77059456 133.5795269 -16.47306824 134.28633118 C-17.92434914 135.74872138 -19.36848204 137.21794126 -20.8125 138.6875 C-21.80096646 139.68600823 -22.78989437 140.68405989 -23.77929688 141.68164062 C-26.19077274 144.11664308 -28.59744957 146.5561959 -31 149 C-32.32 148.34 -33.64 147.68 -35 147 C-33.68516427 144.08165783 -32.28366724 142.05079071 -29.98828125 139.828125 C-29.39805176 139.24949707 -28.80782227 138.67086914 -28.19970703 138.07470703 C-27.57692871 137.47255371 -26.95415039 136.87040039 -26.3125 136.25 C-21.31540935 131.34485684 -16.46442268 126.40430113 -12 121 C-15.59680486 116.66815328 -20.0447865 114.87650684 -25.0625 112.625 C-32.209338 109.337087 -39.17062707 105.9134609 -46 102 C-43.9416326 97.11137741 -43.9416326 97.11137741 -41 95 C-36.44276363 94.543706 -32.05115629 95.11690239 -27.53173828 95.69433594 C-23.70169826 96.15674771 -19.86060026 96.46998062 -16.01733398 96.80102539 C-11.67600206 97.17723435 -7.33804979 97.58790926 -3 98 C-2.52691406 96.97261719 -2.05382813 95.94523437 -1.56640625 94.88671875 C3.31736401 84.55571433 8.74438587 76.04727056 17 68 C16.33613281 67.33613281 15.67226563 66.67226562 14.98828125 65.98828125 C12.32552083 63.32552083 9.66276042 60.66276042 7 58 C6.0821875 57.1234375 5.164375 56.246875 4.21875 55.34375 C1.81822264 52.80798166 1.2936457 51.42586653 1 48 C0.01 48 -0.98 48 -2 48 C-2 47.34 -2 46.68 -2 46 C-3.32 46 -4.64 46 -6 46 C-7.02297922 45.02351983 -8.01904252 44.01868662 -9 43 C-9.9075 42.54625 -10.815 42.0925 -11.75 41.625 C-21.4 36.8 -21.4 36.8 -23 32 C-29.36238248 26.08748295 -37.69155085 18.76948305 -46 16 C-46 13 -46 13 -44.6796875 11.4296875 C-44.08414063 10.91664062 -43.48859375 10.40359375 -42.875 9.875 C-42.29492188 9.35679688 -41.71484375 8.83859375 -41.1171875 8.3046875 C-37.57005931 6.11881883 -34.2600331 5.719858 -30.20751953 6.62084961 C-29.27536621 6.96124268 -28.34321289 7.30163574 -27.3828125 7.65234375 C-26.36445313 8.01650391 -25.34609375 8.38066406 -24.296875 8.75585938 C-23.25015625 9.14580078 -22.2034375 9.53574219 -21.125 9.9375 C-20.05507813 10.32357422 -18.98515625 10.70964844 -17.8828125 11.10742188 C-15.25044044 12.05930641 -12.62341728 13.02376347 -10 14 C-9.72027344 13.22785156 -9.44054688 12.45570312 -9.15234375 11.66015625 C-7.70470468 8.31831825 -5.62423473 6.49622328 -3 4 C-1.97186389 2.68824014 -0.95915568 1.3630107 0 0 Z " fill="#8A9194" transform="translate(46,0)"/>
<path d="M0 0 C3.40302481 0.04460894 5.10430899 0.77476384 7.625 3.0625 C9.82718104 5.56227307 10.1143638 6.34177418 10.5 9.8125 C10.314375 11.111875 10.314375 11.111875 10.125 12.4375 C9.465 12.4375 8.805 12.4375 8.125 12.4375 C8.01542969 13.13617188 7.90585938 13.83484375 7.79296875 14.5546875 C7.55513672 15.91980469 7.55513672 15.91980469 7.3125 17.3125 C7.08626953 18.66988281 7.08626953 18.66988281 6.85546875 20.0546875 C6.125 22.4375 6.125 22.4375 3.125 24.4375 C2.63 21.4675 2.63 21.4675 2.125 18.4375 C1.135 18.4375 0.145 18.4375 -0.875 18.4375 C-0.94460937 19.30632813 -1.01421875 20.17515625 -1.0859375 21.0703125 C-2.05395484 25.20115878 -3.71209589 27.13715302 -6.5 30.3125 C-6.95729492 30.83787354 -7.41458984 31.36324707 -7.88574219 31.90454102 C-9.20851874 33.4216382 -10.54150784 34.92981292 -11.875 36.4375 C-12.44476563 37.12972656 -13.01453125 37.82195313 -13.6015625 38.53515625 C-18.8986453 44.9324024 -25.16497334 50.36625128 -31.28613281 55.95263672 C-32.70543686 57.27903611 -34.07171151 58.66165902 -35.4296875 60.05078125 C-38.96828236 63.5045855 -42.94029525 66.26031595 -46.9375 69.15625 C-51.10413058 72.39203758 -54.58686339 75.78960344 -57.5 80.1875 C-63.83296295 88.78223543 -76.2617887 99.51855359 -86.7265625 102.15625 C-87.43554688 102.2490625 -88.14453125 102.341875 -88.875 102.4375 C-89.205 101.4475 -89.535 100.4575 -89.875 99.4375 C-93.86955527 100.05204696 -96.61966336 102.14396737 -99.875 104.4375 C-99.56485608 102.35381462 -99.2517948 100.27056332 -98.9375 98.1875 C-98.76347656 97.02734375 -98.58945313 95.8671875 -98.41015625 94.671875 C-97.875 91.4375 -97.875 91.4375 -97.28125 89.15625 C-96.76834772 86.98627884 -97.20112092 85.5340127 -97.875 83.4375 C-97.17375 82.921875 -96.4725 82.40625 -95.75 81.875 C-92.86554966 79.42948776 -90.64278785 76.87684305 -88.3046875 73.92578125 C-86.875 72.4375 -86.875 72.4375 -83.875 71.4375 C-82.228524 69.81321904 -82.228524 69.81321904 -80.625 67.8125 C-75.8236594 62.17041833 -71.3235497 57.17087088 -64.875 53.4375 C-63.18675645 51.79269325 -61.52383015 50.1218143 -59.875 48.4375 C-58.90928529 47.48001955 -57.94179425 46.52432783 -56.97265625 45.5703125 C-52.16884878 40.81577886 -47.46383717 36.09462467 -43.16015625 30.875 C-41.875 29.4375 -41.875 29.4375 -38.9375 27 C-36.43059565 24.90238616 -34.57278611 22.98170309 -32.5 20.5 C-28.28946351 15.6016496 -24.02839993 10.77536428 -17.375 10.0625 C-16.55 10.18625 -15.725 10.31 -14.875 10.4375 C-14.545 9.7775 -14.215 9.1175 -13.875 8.4375 C-13.38 9.4275 -13.38 9.4275 -12.875 10.4375 C-10.75653715 11.12479254 -10.75653715 11.12479254 -8.3125 11.5625 C-7.48621094 11.73007813 -6.65992188 11.89765625 -5.80859375 12.0703125 C-5.17050781 12.19148437 -4.53242188 12.31265625 -3.875 12.4375 C-4.37 10.9525 -4.37 10.9525 -4.875 9.4375 C-7.88347418 8.21229736 -7.88347418 8.21229736 -10.875 7.4375 C-8.44830637 1.73476997 -8.44830637 1.73476997 -6.1875 0.5625 C-4.11951377 0.45071696 -2.05793036 0.23234698 0 0 Z " fill="#E2E2E2" transform="translate(146.875,3.5625)"/>
<path d="M0 0 C0.99 0.33 1.98 0.66 3 1 C5.475 14.86 5.475 14.86 8 29 C12.455 23.555 12.455 23.555 17 18 C22.36558896 19.07311779 24.1687218 20.25579631 28 24 C28.671875 26.16796875 28.671875 26.16796875 29 28 C26.92548894 29.67879508 24.84165071 31.34280351 22.75 33 C22.16347656 33.47695312 21.57695312 33.95390625 20.97265625 34.4453125 C17.62385776 37.07919895 16.39260489 38 12 38 C13.32 41.96 14.64 45.92 16 50 C16.66 50 17.32 50 18 50 C19.35712166 48.44144019 19.35712166 48.44144019 20.625 46.5 C21.29402344 45.52546875 21.29402344 45.52546875 21.9765625 44.53125 C22.31429687 44.0259375 22.65203125 43.520625 23 43 C27.56873613 43.26874918 29.76954897 45.24736111 32.9609375 48.234375 C34 50 34 50 33.93359375 52.4375 C32.76621624 55.64168262 31.26588012 57.03875421 28.6875 59.25 C27.90761719 59.93578125 27.12773437 60.6215625 26.32421875 61.328125 C24.06514166 62.95314179 22.65955505 63.43287098 20 64 C20.37922607 64.86165771 20.37922607 64.86165771 20.76611328 65.74072266 C21.90581121 68.36060261 23.01548986 70.99220202 24.125 73.625 C24.52332031 74.52863281 24.92164063 75.43226563 25.33203125 76.36328125 C28.14687003 83.12877096 28.14687003 83.12877096 27.42578125 87.40625 C26.11397218 89.79266431 24.85151869 91.82650532 23.0625 93.875 C22.55847656 94.47054687 22.05445313 95.06609375 21.53515625 95.6796875 C20 97 20 97 17 97 C13 90.25 13 90.25 13 88 C12.34 88 11.68 88 11 88 C11 87.34 11 86.68 11 86 C10.01 85.505 10.01 85.505 9 85 C7.93101924 83.57658265 6.91659162 82.11167966 5.9375 80.625 C5.41027344 79.83351563 4.88304687 79.04203125 4.33984375 78.2265625 C3 76 3 76 2 73 C1.23558594 72.92652344 0.47117188 72.85304688 -0.31640625 72.77734375 C-3 72 -3 72 -4.58984375 70.06640625 C-5.03457031 69.24011719 -5.47929688 68.41382813 -5.9375 67.5625 C-6.43378906 66.66660156 -6.93007812 65.77070312 -7.44140625 64.84765625 C-7.95574219 63.90792969 -8.47007813 62.96820313 -9 62 C-10.11864054 60.16277942 -11.24336921 58.32924789 -12.375 56.5 C-15 52.24615385 -15 52.24615385 -15 50 C-16.485 50.495 -16.485 50.495 -18 51 C-18.50789063 50.48050781 -19.01578125 49.96101563 -19.5390625 49.42578125 C-22.75161945 46.17111213 -25.91987255 42.9771111 -29.5 40.125 C-30.7375 39.073125 -30.7375 39.073125 -32 38 C-32 37.34 -32 36.68 -32 36 C-33.32 36 -34.64 36 -36 36 C-36 35.34 -36 34.68 -36 34 C-35.34 34 -34.68 34 -34 34 C-34 33.34 -34 32.68 -34 32 C-32.64349993 30.82849448 -31.22645059 29.72696616 -29.7890625 28.65625 C-23.11730792 23.45063408 -17.29942223 17.51925593 -11.375 11.5 C-10.2647978 10.37973751 -9.15412344 9.25994274 -8.04296875 8.140625 C-5.35652083 5.43242923 -2.67648778 2.71803822 0 0 Z " fill="#11719C" transform="translate(126,62)"/>
<path d="M0 0 C15.94997293 6.13195503 32.71978889 9.39993453 49.72119141 10.75439453 C53.73047523 11.09496155 56.13992502 11.60121251 59.8125 13.4375 C50.9025 22.3475 41.9925 31.2575 32.8125 40.4375 C29.78916033 38.92583017 27.56318108 37.61027055 24.93359375 35.6015625 C24.187146 35.03800049 23.44069824 34.47443848 22.67163086 33.89379883 C21.87249268 33.28947021 21.07335449 32.6851416 20.25 32.0625 C10.75166545 24.97548474 0.92276586 18.60840551 -9.1875 12.4375 C-10.00798828 11.93524902 -10.82847656 11.43299805 -11.67382812 10.91552734 C-16.4457331 7.99479413 -16.4457331 7.99479413 -21.22680664 5.08911133 C-23.21934902 3.88083067 -25.2045099 2.6613767 -27.1875 1.4375 C-27.79078125 1.07366211 -28.3940625 0.70982422 -29.015625 0.33496094 C-30.45119595 -0.56269313 -31.82668341 -1.55511478 -33.1875 -2.5625 C-33.5625 -5.3125 -33.5625 -5.3125 -33.1875 -7.5625 C-23.78019617 -10.43464143 -8.89145745 -3.44307501 0 0 Z " fill="#43B7EB" transform="translate(40.1875,18.5625)"/>
<path d="M0 0 C1.1875 1.625 1.1875 1.625 2 4 C0.65921335 7.62801095 -1.07847223 10.09378388 -3.5625 13.0625 C-6.07227351 15.72600789 -6.07227351 15.72600789 -6.8125 18.4375 C-8.76942667 22.66034176 -12.46488163 25.07672904 -16 28 C-18.1174269 29.89902098 -20.22851608 31.80473071 -22.3359375 33.71484375 C-24 35 -24 35 -26 35 C-26.23847656 35.57621094 -26.47695312 36.15242188 -26.72265625 36.74609375 C-28.26200826 39.46232039 -30.06524187 41.04082189 -32.4375 43.0625 C-37.35773835 46.99781987 -37.35773835 46.99781987 -41 52 C-41.99 52 -42.98 52 -44 52 C-44.37125 52.86625 -44.37125 52.86625 -44.75 53.75 C-46.16817251 56.30271053 -47.91045129 57.97785609 -50 60 C-50.495 60.99 -50.495 60.99 -51 62 C-51.7425 62.4434375 -52.485 62.886875 -53.25 63.34375 C-56.20546044 65.12374322 -58.48586958 67.14300273 -61 69.5 C-69 77 -69 77 -73 77 C-73 77.66 -73 78.32 -73 79 C-77.74620159 83.99809497 -82.31017781 85.6857008 -89.09375 85.9921875 C-89.7228125 85.99476562 -90.351875 85.99734375 -91 86 C-90.505 84.515 -90.505 84.515 -90 83 C-92.52516805 85.49565251 -95.04429373 87.99732451 -97.5625 90.5 C-98.26697266 91.19609375 -98.97144531 91.8921875 -99.69726562 92.609375 C-103.07403341 95.97058164 -106.36097362 99.35607755 -109.46875 102.96875 C-113.4034936 107.53762145 -117.65202278 111.7622616 -121.9375 116 C-122.71673828 116.77472656 -123.49597656 117.54945313 -124.29882812 118.34765625 C-126.1969242 120.23410757 -128.09733149 122.11816245 -130 124 C-131.32 123.34 -132.64 122.68 -134 122 C-132.68516427 119.08165783 -131.28366724 117.05079071 -128.98828125 114.828125 C-128.10293701 113.96018311 -128.10293701 113.96018311 -127.19970703 113.07470703 C-126.57692871 112.47255371 -125.95415039 111.87040039 -125.3125 111.25 C-120.31540935 106.34485684 -115.46442268 101.40430113 -111 96 C-114.59680486 91.66815328 -119.0447865 89.87650684 -124.0625 87.625 C-131.209338 84.337087 -138.17062707 80.9134609 -145 77 C-142.9416326 72.11137741 -142.9416326 72.11137741 -140 70 C-135.44276363 69.543706 -131.05115629 70.11690239 -126.53173828 70.69433594 C-122.70169826 71.15674771 -118.86060026 71.46998062 -115.01733398 71.80102539 C-110.67594861 72.17723898 -106.33824558 72.58930212 -102 73 C-99.525 67.555 -99.525 67.555 -97 62 C-96.01 62.99 -95.02 63.98 -94 65 C-94.14453125 68.03125 -94.14453125 68.03125 -94.8125 71.5 C-95.70850844 76.22176869 -95.70850844 76.22176869 -96 81 C-94.02 79.68 -92.04 78.36 -90 77 C-86.125 78.875 -86.125 78.875 -85 80 C-80.27929749 77.79796499 -76.19193564 75.17284841 -72 72.125 C-71.40960938 71.70347656 -70.81921875 71.28195313 -70.2109375 70.84765625 C-64.54355351 66.76564179 -59.40148154 63.04558782 -55.6875 57 C-50.21873366 49.1553704 -42.12190486 42.98275639 -34 38 C-33.34 38 -32.68 38 -32 38 C-31.60167969 37.11248047 -31.60167969 37.11248047 -31.1953125 36.20703125 C-29.96662421 33.93837477 -28.71612243 32.48152395 -26.875 30.6875 C-26.25109375 30.07777344 -25.6271875 29.46804687 -24.984375 28.83984375 C-23.08019715 27.07435602 -21.11879979 25.41282903 -19.125 23.75 C-14.07146 19.40297433 -10.1237402 14.20769476 -6 9 C-5.00448628 7.82950287 -4.00547739 6.66194937 -3 5.5 C-0.83949394 3.09465742 -0.83949394 3.09465742 0 0 Z " fill="#C1C1C1" transform="translate(145,25)"/>
<path d="M0 0 C0.99 0.33 1.98 0.66 3 1 C3.72037087 5.26704789 4.43210938 9.5354238 5.13623047 13.80517578 C5.37643338 15.25445378 5.61890218 16.70335827 5.86376953 18.15185547 C6.21738141 20.2461038 6.56254821 22.34160521 6.90625 24.4375 C7.11572266 25.69433594 7.32519531 26.95117188 7.54101562 28.24609375 C8.02876349 32.23524862 8.04467283 35.9858274 8 40 C8.37800425 42.45586203 8.37800425 42.45586203 9 44.5 C9.495 46.2325 9.495 46.2325 10 48 C9.01 48 8.02 48 7 48 C6.67 46.68 6.34 45.36 6 44 C6 47.47905723 6.10996352 48.76361082 7.36108398 51.77124023 C7.65816757 52.49556747 7.95525116 53.21989471 8.26133728 53.96617126 C8.74879173 55.12567039 8.74879173 55.12567039 9.24609375 56.30859375 C9.74194725 57.51419701 9.74194725 57.51419701 10.24781799 58.74415588 C11.3044496 61.31138683 12.3702022 63.87468693 13.4375 66.4375 C14.50036074 68.99707658 15.56110907 71.55745406 16.61647034 74.12013245 C17.27296899 75.71361169 17.93386798 77.30528705 18.59971619 78.8948822 C20.12077053 82.58043832 21.41811394 86.02615597 22 90 C21.01 90.66 20.02 91.32 19 92 C13.39172314 84.87644336 8.67481953 77.31698122 4 69.5625 C-3.12727974 57.75419961 -10.49569583 46.41561742 -18.96533203 35.51586914 C-19.45888184 34.87254639 -19.95243164 34.22922363 -20.4609375 33.56640625 C-20.90228027 32.99865479 -21.34362305 32.43090332 -21.79833984 31.84594727 C-23 30 -23 30 -25 25 C-16.75 16.75 -8.5 8.5 0 0 Z " fill="#2BADE7" transform="translate(126,62)"/>
<path d="M0 0 C3.51149841 0.58395206 5.29031758 1.83279645 7.8125 4.3125 C8.43769531 4.90675781 9.06289063 5.50101562 9.70703125 6.11328125 C11 8 11 8 10.890625 10.0625 C9.8705362 12.28164054 8.88036024 13.23150308 6.9375 14.6875 C5.968125 15.450625 4.99875 16.21375 4 17 C4 17.33 4 17.66 4 18 C7.96 18.99 11.92 19.98 16 21 C16.66 19.35 17.32 17.7 18 16 C20.3484536 11.05588715 23.53036297 8.95164709 28 6 C33.75 10.625 33.75 10.625 36 14 C35.54280794 18.6862186 34.03889339 20.11694062 30.5 23.125 C28 25 28 25 26 25 C26 25.66 26 26.32 26 27 C29.96 27.33 33.92 27.66 38 28 C38 28.33 38 28.66 38 29 C19.95532378 28.37235909 1.79448941 23.17199847 -15.0246582 16.75170898 C-18.18588457 15.54871603 -21.36699673 14.42209603 -24.5625 13.3125 C-25.80128906 12.87550781 -27.04007813 12.43851563 -28.31640625 11.98828125 C-32.05021515 10.98652764 -35.1544518 10.81687866 -39 11 C-39.16213458 13.33068676 -39.16213458 13.33068676 -38 16 C-35.39340641 18.14569152 -32.44841714 19.68406912 -29.5 21.3125 C-27.66734971 22.37037674 -25.83671269 23.43174681 -24.0078125 24.49609375 C-23.03231445 25.06054199 -22.05681641 25.62499023 -21.05175781 26.20654297 C13.52890958 46.52890958 13.52890958 46.52890958 27 60 C24.78071806 62.90802461 23.07030857 64.95312762 20 67 C15.749091 66.75475525 13.84917125 65.30596594 11 62.25 C10.31808594 61.52683594 9.63617188 60.80367187 8.93359375 60.05859375 C8.29550781 59.37925781 7.65742187 58.69992188 7 58 C6.030625 57.113125 5.06125 56.22625 4.0625 55.3125 C1.82225432 52.80070939 1.28398389 51.31314536 1 48 C0.01 48 -0.98 48 -2 48 C-2 47.34 -2 46.68 -2 46 C-3.32 46 -4.64 46 -6 46 C-7.02297922 45.02351983 -8.01904252 44.01868662 -9 43 C-9.9075 42.54625 -10.815 42.0925 -11.75 41.625 C-21.4 36.8 -21.4 36.8 -23 32 C-29.36238248 26.08748295 -37.69155085 18.76948305 -46 16 C-46 13 -46 13 -44.6796875 11.4296875 C-44.08414063 10.91664062 -43.48859375 10.40359375 -42.875 9.875 C-42.29492188 9.35679688 -41.71484375 8.83859375 -41.1171875 8.3046875 C-37.57005931 6.11881883 -34.2600331 5.719858 -30.20751953 6.62084961 C-29.27536621 6.96124268 -28.34321289 7.30163574 -27.3828125 7.65234375 C-26.36445313 8.01650391 -25.34609375 8.38066406 -24.296875 8.75585938 C-23.25015625 9.14580078 -22.2034375 9.53574219 -21.125 9.9375 C-20.05507813 10.32357422 -18.98515625 10.70964844 -17.8828125 11.10742188 C-15.25044044 12.05930641 -12.62341728 13.02376347 -10 14 C-9.72027344 13.22785156 -9.44054688 12.45570312 -9.15234375 11.66015625 C-7.70470468 8.31831825 -5.62423473 6.49622328 -3 4 C-1.97186389 2.68824014 -0.95915568 1.3630107 0 0 Z " fill="#1896CE" transform="translate(46,0)"/>
<path d="M0 0 C4.91375208 0.43356636 7.52729957 2.60622458 11 6 C11.671875 8.16796875 11.671875 8.16796875 12 10 C9.92548894 11.67879508 7.84165071 13.34280351 5.75 15 C5.16347656 15.47695312 4.57695312 15.95390625 3.97265625 16.4453125 C0.62385776 19.07919895 -0.60739511 20 -5 20 C-3.68 23.96 -2.36 27.92 -1 32 C-0.34 32 0.32 32 1 32 C2.35712166 30.44144019 2.35712166 30.44144019 3.625 28.5 C4.07101563 27.8503125 4.51703125 27.200625 4.9765625 26.53125 C5.31429687 26.0259375 5.65203125 25.520625 6 25 C8.68674602 25.36307379 10.55872304 25.66904228 12.75 27.3125 C14.1510239 29.20388226 14.49353359 30.72559064 15 33 C13.8803014 34.00593243 12.7540588 35.0045849 11.625 36 C10.99851563 36.556875 10.37203125 37.11375 9.7265625 37.6875 C8 39 8 39 6 39 C6 39.66 6 40.32 6 41 C5.236875 41.268125 4.47375 41.53625 3.6875 41.8125 C0.98210334 42.79559745 0.98210334 42.79559745 -0.5625 44.6875 C-1.036875 45.120625 -1.51125 45.55375 -2 46 C-3.96972656 45.83422852 -3.96972656 45.83422852 -6 45 C-7.09667969 43.23413086 -7.09667969 43.23413086 -7.921875 40.96484375 C-8.22480469 40.15595703 -8.52773437 39.34707031 -8.83984375 38.51367188 C-9.14019531 37.66353516 -9.44054687 36.81339844 -9.75 35.9375 C-10.06582031 35.08349609 -10.38164062 34.22949219 -10.70703125 33.34960938 C-11.48567191 31.23784151 -12.24916297 29.12177934 -13 27 C-12.34 26.67 -11.68 26.34 -11 26 C-10.01 27.32 -9.02 28.64 -8 30 C-8.144375 29.443125 -8.28875 28.88625 -8.4375 28.3125 C-11.51742825 15.65057273 -11.51742825 15.65057273 -8.796875 10.8984375 C-7.27687218 8.84873672 -5.67909682 6.92072295 -4 5 C-3.21625 4.01 -2.4325 3.02 -1.625 2 C-1.08875 1.34 -0.5525 0.68 0 0 Z " fill="#137BAA" transform="translate(143,80)"/>
<path d="M0 0 C1.6319201 3.67034737 2.40076821 6.94441383 2.8515625 10.9296875 C2.98046875 12.05503906 3.109375 13.18039063 3.2421875 14.33984375 C3.36851563 15.50644531 3.49484375 16.67304688 3.625 17.875 C3.7590625 19.03386719 3.893125 20.19273437 4.03125 21.38671875 C5.37505212 33.38495193 5.37505212 33.38495193 5 38 C2.6875 40.5 2.6875 40.5 0 42 C-3.98821698 40.67059434 -4.761873 38.3079039 -6.57421875 34.76953125 C-6.90291458 34.14149094 -7.23161041 33.51345062 -7.57026672 32.86637878 C-8.26342455 31.53480159 -8.9515479 30.20059344 -9.63500977 28.86401367 C-10.67875138 26.82955281 -11.74528272 24.80829771 -12.81445312 22.78710938 C-13.48579764 21.49031884 -14.15576454 20.19281401 -14.82421875 18.89453125 C-15.14291428 18.29429642 -15.4616098 17.69406158 -15.78996277 17.07563782 C-17.73149118 13.22154398 -18.33206781 10.29809298 -18 6 C-15.56495491 4.9936345 -13.12729136 3.99473587 -10.6875 3 C-9.65206055 2.57074219 -9.65206055 2.57074219 -8.59570312 2.1328125 C-5.58454326 0.91089256 -3.28113016 0 0 0 Z " fill="#158BC0" transform="translate(60,117)"/>
<path d="M0 0 C1.92005859 0.23203125 1.92005859 0.23203125 3.87890625 0.46875 C10.0415101 1.26649807 16.01632558 2.32457116 22 4 C20.22089072 10.75052102 18.29561809 17.40620337 16 24 C3.4202766 18.51066615 -9.06929206 12.80282267 -21 6 C-16.87707205 -3.79195388 -8.92176791 -1.25073435 0 0 Z " fill="#1690C7" transform="translate(21,96)"/>
<path d="M0 0 C15.94997293 6.13195503 32.71978889 9.39993453 49.72119141 10.75439453 C53.73047523 11.09496155 56.13992502 11.60121251 59.8125 13.4375 C56.5125 16.7375 53.2125 20.0375 49.8125 23.4375 C26.61876068 15.92071712 3.44556743 8.33381841 -18.84765625 -1.6171875 C-19.50523926 -1.90996582 -20.16282227 -2.20274414 -20.84033203 -2.50439453 C-22.44219128 -3.22972341 -24.0324881 -3.98046045 -25.62109375 -4.734375 C-28.57359842 -5.68708579 -30.24700102 -5.43771204 -33.1875 -4.5625 C-33.1875 -5.5525 -33.1875 -6.5425 -33.1875 -7.5625 C-23.78019617 -10.43464143 -8.89145745 -3.44307501 0 0 Z " fill="#1796D0" transform="translate(40.1875,18.5625)"/>
<path d="M0 0 C0.99 0.495 0.99 0.495 2 1 C1.36191406 1.69867188 0.72382812 2.39734375 0.06640625 3.1171875 C-0.75988281 4.02726562 -1.58617188 4.93734375 -2.4375 5.875 C-3.26121094 6.77992187 -4.08492188 7.68484375 -4.93359375 8.6171875 C-7.00907942 10.81137927 -7.00907942 10.81137927 -8 13 C-7.01 13.495 -7.01 13.495 -6 14 C-7.78628831 15.67277835 -9.5785075 17.33824443 -11.375 19 C-12.13683594 19.71542969 -12.13683594 19.71542969 -12.9140625 20.4453125 C-16.7734375 24 -16.7734375 24 -19 24 C-19 24.66 -19 25.32 -19 26 C-19.66 26 -20.32 26 -21 26 C-21.05285156 26.56203125 -21.10570312 27.1240625 -21.16015625 27.703125 C-22.39851411 31.08988976 -24.64331359 32.52627817 -27.4375 34.75 C-28.42621094 35.54921875 -29.41492188 36.3484375 -30.43359375 37.171875 C-33 39 -33 39 -35 39 C-35.495 39.99 -35.495 39.99 -36 41 C-39.28929528 42.56633109 -42.63656407 43.95847143 -45.99609375 45.3671875 C-49.04760123 47.02587427 -49.9438993 47.76875149 -51 51 C-51 49.68 -51 48.36 -51 47 C-52.13179687 47.433125 -53.26359375 47.86625 -54.4296875 48.3125 C-55.9113927 48.87517286 -57.39316714 49.43766343 -58.875 50 C-59.99455078 50.42925781 -59.99455078 50.42925781 -61.13671875 50.8671875 C-66.7734375 53 -66.7734375 53 -69 53 C-69.33 54.32 -69.66 55.64 -70 57 C-70 56.34 -70 55.68 -70 55 C-70.99 54.67 -71.98 54.34 -73 54 C-64.09 45.09 -64.09 45.09 -55 36 C-55 36.99 -55 37.98 -55 39 C-54.505 39.495 -54.505 39.495 -54 40 C-48.47672835 39.42862707 -44.64050967 38.3686116 -41 34 C-40.34 34 -39.68 34 -39 34 C-39 33.34 -39 32.68 -39 32 C-37.3828125 30.80859375 -37.3828125 30.80859375 -35.125 29.4375 C-30.2977188 26.35934442 -26.28239224 22.71925349 -22.1640625 18.7578125 C-20 17 -20 17 -17 17 C-16.773125 16.278125 -16.54625 15.55625 -16.3125 14.8125 C-14.72058538 11.40125439 -12.84938495 9.44232995 -10 7 C-8.66666667 6.66666667 -7.33333333 6.33333333 -6 6 C-3.31232422 3.56249975 -3.31232422 3.56249975 -1 1 C-0.67 0.67 -0.34 0.34 0 0 Z " fill="#747474" transform="translate(111,70)"/>
<path d="M0 0 C0.99 0.66 1.98 1.32 3 2 C2.5280227 16.15931897 -5.85712397 25.9979874 -15 36 C-15.57411621 36.63437988 -16.14823242 37.26875977 -16.73974609 37.92236328 C-28.39337511 50.76880891 -28.39337511 50.76880891 -34.79296875 56.0390625 C-36.7794832 57.8040718 -38.62968123 59.62598344 -40.48828125 61.5234375 C-41.11669922 62.16466553 -41.74511719 62.80589355 -42.39257812 63.46655273 C-43.65688318 64.76445898 -44.91489069 66.0685344 -46.16601562 67.37915039 C-46.74673828 67.9746167 -47.32746094 68.57008301 -47.92578125 69.18359375 C-48.44567627 69.72556396 -48.96557129 70.26753418 -49.5012207 70.82592773 C-51 72 -51 72 -54 72 C-52.55575365 68.76138697 -50.74227753 66.38030837 -48.375 63.75 C-47.74335937 63.04359375 -47.11171875 62.3371875 -46.4609375 61.609375 C-45.97882813 61.07828125 -45.49671875 60.5471875 -45 60 C-45.61875 60.495 -46.2375 60.99 -46.875 61.5 C-49 63 -49 63 -51 63 C-51.33 63.99 -51.66 64.98 -52 66 C-52.33 65.34 -52.66 64.68 -53 64 C-49.21424726 60.0921262 -45.20471925 56.50037688 -41.12109375 52.90625 C-39.54925407 51.4936206 -38.03782225 50.01315103 -36.5625 48.5 C-33.37188078 45.38720076 -29.91803709 42.7004757 -26.40234375 39.96484375 C-21.93765683 36.40650367 -21.93765683 36.40650367 -19.0625 31.625 C-18 29 -18 29 -15.5 26.0625 C-11.55091504 21.22487093 -10.7064734 17.16405853 -11 11 C-10.01 11 -9.02 11 -8 11 C-7.34 12.65 -6.68 14.3 -6 16 C-4.20446585 13.30669878 -3.57303539 11.8539399 -2.875 8.8125 C-2.441875 6.9253125 -2.441875 6.9253125 -2 5 C-1.34 5 -0.68 5 0 5 C0 3.35 0 1.7 0 0 Z " fill="#878787" transform="translate(157,11)"/>
<path d="M0 0 C0.99 1.485 0.99 1.485 2 3 C0.79214844 3.22300781 -0.41570312 3.44601563 -1.66015625 3.67578125 C-9.55066883 6.30492168 -14.86358407 13.31977244 -20.4375 19.1875 C-22.20636419 21.02651336 -23.97950857 22.86111574 -25.7580719 24.69075012 C-26.85856958 25.8252027 -27.95282833 26.96574749 -29.04014587 28.11283875 C-30.3223243 29.44594847 -31.65676522 30.72843272 -33 32 C-33.66 32 -34.32 32 -35 32 C-35.33644531 32.82564453 -35.33644531 32.82564453 -35.6796875 33.66796875 C-37.41093976 36.72583148 -39.62237725 38.84821826 -42.125 41.3125 C-42.61782471 41.7981543 -43.11064941 42.28380859 -43.6184082 42.78417969 C-48.26707752 47.33088794 -53.13042605 51.57478171 -58.09375 55.76953125 C-67.01109619 63.40584077 -73.75091432 72.50182865 -79 83 C-79.042721 84.66611905 -79.04063832 86.33382885 -79 88 C-79 91 -79 91 -81.5 93.6875 C-82.7375 94.8321875 -82.7375 94.8321875 -84 96 C-85.51510129 91.45469613 -83.80367766 87.76379121 -82.59375 83.2265625 C-82.00771966 80.04195025 -82.12292676 78.08129679 -83 75 C-82.29875 74.484375 -81.5975 73.96875 -80.875 73.4375 C-77.99054966 70.99198776 -75.76778785 68.43934305 -73.4296875 65.48828125 C-72 64 -72 64 -69 63 C-67.353524 61.37571904 -67.353524 61.37571904 -65.75 59.375 C-60.9486594 53.73291833 -56.4485497 48.73337088 -50 45 C-48.31175645 43.35519325 -46.64883015 41.6843143 -45 40 C-44.03428529 39.04251955 -43.06679425 38.08682783 -42.09765625 37.1328125 C-37.29384878 32.37827886 -32.58883717 27.65712467 -28.28515625 22.4375 C-27 21 -27 21 -24.0625 18.5625 C-21.55559565 16.46488616 -19.69778611 14.54420309 -17.625 12.0625 C-13.41446351 7.1641496 -9.15339993 2.33786428 -2.5 1.625 C-1.675 1.74875 -0.85 1.8725 0 2 C0 1.34 0 0.68 0 0 Z " fill="#BEBEBE" transform="translate(132,12)"/>
<path d="M0 0 C0.99 0.33 1.98 0.66 3 1 C5.39755352 14.03669725 5.39755352 14.03669725 5 20 C4 21 4 21 0.4375 21.0625 C-0.696875 21.041875 -1.83125 21.02125 -3 21 C-2.67 22.65 -2.34 24.3 -2 26 C-2.66 26.33 -3.32 26.66 -4 27 C-4 26.34 -4 25.68 -4 25 C-4.886875 24.7525 -5.77375 24.505 -6.6875 24.25 C-10.10427135 22.96065232 -12.2797748 21.40019871 -15 19 C-16.65 20.32 -18.3 21.64 -20 23 C-20.66 22.67 -21.32 22.34 -22 22 C-14.74 14.74 -7.48 7.48 0 0 Z " fill="#34AFE6" transform="translate(126,62)"/>
<path d="M0 0 C0.99 0.66 1.98 1.32 3 2 C2.53280037 6.52946083 1.10680359 8.31756943 -2.3125 11.25 C-3.48232422 12.27867188 -3.48232422 12.27867188 -4.67578125 13.328125 C-6.93485834 14.95314179 -8.34044495 15.43287098 -11 16 C-10.74718262 16.57443848 -10.49436523 17.14887695 -10.23388672 17.74072266 C-9.09418879 20.36060261 -7.98451014 22.99220202 -6.875 25.625 C-6.47667969 26.52863281 -6.07835937 27.43226563 -5.66796875 28.36328125 C-2.85312997 35.12877096 -2.85312997 35.12877096 -3.57421875 39.40625 C-4.88602782 41.79266431 -6.14848131 43.82650532 -7.9375 45.875 C-8.44152344 46.47054687 -8.94554687 47.06609375 -9.46484375 47.6796875 C-11 49 -11 49 -14 49 C-13 46 -13 46 -12 45 C-9.71343044 42.26410487 -9.71343044 42.26410487 -10.25732422 39.60986328 C-10.98384341 37.05677645 -11.84639717 34.68498914 -12.8828125 32.2421875 C-13.24503906 31.36949219 -13.60726562 30.49679688 -13.98046875 29.59765625 C-14.7474555 27.77311781 -15.5183318 25.95020985 -16.29296875 24.12890625 C-16.65261719 23.25878906 -17.01226562 22.38867188 -17.3828125 21.4921875 C-17.88385498 20.30665283 -17.88385498 20.30665283 -18.39501953 19.09716797 C-19 17 -19 17 -18 14 C-17.01 14 -16.02 14 -15 14 C-14.525625 13.505 -14.05125 13.01 -13.5625 12.5 C-12 11 -12 11 -8 11 C-8 10.34 -8 9.68 -8 9 C-5.99112198 7.39020712 -3.87947218 5.98068337 -1.75 4.53515625 C-0.88375 3.77525391 -0.88375 3.77525391 0 3 C0 2.01 0 1.02 0 0 Z " fill="#104F6B" transform="translate(157,110)"/>
<path d="M0 0 C1.1875 1.625 1.1875 1.625 2 4 C0.65921335 7.62801095 -1.07847223 10.09378388 -3.5625 13.0625 C-6.07227351 15.72600789 -6.07227351 15.72600789 -6.8125 18.4375 C-8.77437333 22.67101613 -12.41699199 25.11318785 -16 28 C-16.77988281 28.63035156 -17.55976562 29.26070312 -18.36328125 29.91015625 C-20.02623131 31.24422943 -21.69304261 32.57350088 -23.36328125 33.8984375 C-26.09512216 36.07581589 -28.79982819 38.28349789 -31.5 40.5 C-35.08518652 43.4411714 -38.68718094 46.35844117 -42.3125 49.25 C-49.93728183 55.30666825 -49.93728183 55.30666825 -57 62 C-57 57.23107247 -54.08653754 54.4671572 -51 51 C-48.21709358 48.47344868 -45.27577759 46.22651559 -42.25 44 C-41.48300781 43.41605469 -40.71601562 42.83210938 -39.92578125 42.23046875 C-34.28845872 38 -34.28845872 38 -32 38 C-31.73445313 37.40832031 -31.46890625 36.81664062 -31.1953125 36.20703125 C-29.96662421 33.93837477 -28.71612243 32.48152395 -26.875 30.6875 C-25.93914062 29.77291016 -25.93914062 29.77291016 -24.984375 28.83984375 C-23.08019715 27.07435602 -21.11879979 25.41282903 -19.125 23.75 C-14.07146 19.40297433 -10.1237402 14.20769476 -6 9 C-5.00448628 7.82950287 -4.00547739 6.66194937 -3 5.5 C-0.83949394 3.09465742 -0.83949394 3.09465742 0 0 Z " fill="#ADADAD" transform="translate(145,25)"/>
<path d="M0 0 C7.18037661 4.46778989 7.18037661 4.46778989 9 8 C8.75925978 11.37036311 8.41201979 12.58798021 6 15 C1.29411765 19 1.29411765 19 -1 19 C-1 19.66 -1 20.32 -1 21 C2.96 21.33 6.92 21.66 11 22 C11 22.33 11 22.66 11 23 C3.77875787 22.58169634 -3.04567778 22.04538889 -10 20 C-9.32741329 8.05578771 -9.32741329 8.05578771 -4.46875 3.59375 C-3.01161877 2.3565631 -1.50885308 1.1735524 0 0 Z " fill="#B2B2B2" transform="translate(73,6)"/>
<path d="M0 0 C0.99 0.495 0.99 0.495 2 1 C-1.26474713 4.4386094 -4.33920564 7.56362637 -8.3125 10.1875 C-10.99241881 11.99488711 -11.93166897 13.00867312 -13 16 C-13.99 16 -14.98 16 -16 16 C-16.2475 16.5775 -16.495 17.155 -16.75 17.75 C-18.16817251 20.30271053 -19.91045129 21.97785609 -22 24 C-22.33 24.66 -22.66 25.32 -23 26 C-23.7425 26.4434375 -24.485 26.886875 -25.25 27.34375 C-28.20546044 29.12374322 -30.48586958 31.14300273 -33 33.5 C-41 41 -41 41 -45 41 C-45 41.66 -45 42.32 -45 43 C-49.74620159 47.99809497 -54.31017781 49.6857008 -61.09375 49.9921875 C-61.7228125 49.99476562 -62.351875 49.99734375 -63 50 C-62.25 47.5625 -62.25 47.5625 -61 45 C-59.25 44.375 -59.25 44.375 -57 44 C-52.25858042 41.86225013 -48.18371969 39.16687479 -44 36.125 C-43.40960938 35.70347656 -42.81921875 35.28195313 -42.2109375 34.84765625 C-39.3168489 32.7631475 -36.52223074 30.62463914 -33.8125 28.3046875 C-31.5055651 26.41428251 -29.6191037 25.29816444 -27 24 C-25.53960685 22.49384614 -25.53960685 22.49384614 -24.25 20.75 C-21.54293073 17.46767851 -18.66961056 15.08002433 -15.22265625 12.609375 C-12.65113656 10.74739589 -10.16939685 8.79223723 -7.6875 6.8125 C-6.86636719 6.15894531 -6.04523438 5.50539063 -5.19921875 4.83203125 C-3.35573344 3.29633922 -1.65678179 1.73184634 0 0 Z " fill="#919191" transform="translate(117,61)"/>
<path d="M0 0 C0 3.56216738 -0.7021901 4.22928478 -2.875 6.9375 C-4.49971499 8.97428039 -5.90385284 10.80522218 -7.05859375 13.14453125 C-8.42489233 15.83744339 -10.64388002 17.11510402 -13 19 C-14.04196498 20.14783308 -15.06048404 21.31713238 -16.0625 22.5 C-19.78052717 26.86785936 -23.81206239 30.87044282 -27.91235352 34.875 C-30.23644768 37.16047799 -32.18395012 39.27592517 -34 42 C-34.7425 42.4125 -35.485 42.825 -36.25 43.25 C-39.41171528 45.26200063 -41.28332856 47.54675064 -43.5703125 50.4765625 C-45 52 -45 52 -48 53 C-45.13192218 44.60821674 -38.34971409 37.74220036 -31.546875 32.25 C-27.95018696 29.34358542 -24.92827187 25.93211382 -21.93359375 22.4296875 C-17.69174338 17.56745682 -13.14721154 13.03668475 -8.5625 8.5 C-7.73556641 7.67757812 -6.90863281 6.85515625 -6.05664062 6.0078125 C-4.04005041 4.00287887 -2.02114764 2.00033747 0 0 Z " fill="#868D90" transform="translate(97,34)"/>
<path d="M0 0 C3.33591784 0.65418586 5.82094883 1.91229988 8.73046875 3.65234375 C9.61541016 4.18150391 10.50035156 4.71066406 11.41210938 5.25585938 C12.32798828 5.81080078 13.24386719 6.36574219 14.1875 6.9375 C15.11498047 7.48857422 16.04246094 8.03964844 16.99804688 8.60742188 C17.87912109 9.13787109 18.76019531 9.66832031 19.66796875 10.21484375 C20.87876099 10.94368774 20.87876099 10.94368774 22.11401367 11.68725586 C24 13 24 13 25 15 C25.07347656 15.7528125 25.14695312 16.505625 25.22265625 17.28125 C26.28750688 21.00555169 28.65438857 22.97504249 31.4375 25.5 C34.93082832 28.69364458 37.59350761 31.35099522 39 36 C35.26964079 35.43504582 33.62712155 33.95173993 31.0625 31.25 C28.77332844 28.85405738 26.51032321 26.55199783 24.0625 24.3125 C21.82225432 21.80070939 21.28398389 20.31314536 21 17 C20.01 17 19.02 17 18 17 C18 16.34 18 15.68 18 15 C16.68 15 15.36 15 14 15 C12.97702078 14.02351983 11.98095748 13.01868662 11 12 C10.0925 11.54625 9.185 11.0925 8.25 10.625 C4.492019 8.7460095 1.37444127 6.49708654 -2 4 C-1.34 2.68 -0.68 1.36 0 0 Z " fill="#0E6085" transform="translate(26,31)"/>
<path d="M0 0 C1.37562854 1.28965176 2.70766393 2.62689293 4 4 C4 4.66 4 5.32 4 6 C1.95408331 7.80348148 -0.08798465 9.4722388 -2.25 11.125 C-3.12978516 11.82689453 -3.12978516 11.82689453 -4.02734375 12.54296875 C-7.37175393 15.12079503 -8.65203546 16 -13 16 C-11.68 19.96 -10.36 23.92 -9 28 C-8.34 28 -7.68 28 -7 28 C-5.64287834 26.44144019 -5.64287834 26.44144019 -4.375 24.5 C-3.70597656 23.52546875 -3.70597656 23.52546875 -3.0234375 22.53125 C-2.68570313 22.0259375 -2.34796875 21.520625 -2 21 C1.24208567 21.35049575 2.61527704 21.56221181 4.8125 24.0625 C5.204375 24.701875 5.59625 25.34125 6 26 C5.113125 26.061875 4.22625 26.12375 3.3125 26.1875 C-0.83812812 27.20557859 -2.31716522 28.72097971 -5 32 C-5.69313908 33.65583225 -6.36474424 35.32110979 -7 37 C-7.99 37.66 -8.98 38.32 -10 39 C-11.04542963 35.98712675 -12.05670295 32.96381174 -13.0625 29.9375 C-13.50432617 28.66616211 -13.50432617 28.66616211 -13.95507812 27.36914062 C-15.68248882 22.10561863 -16.43681208 18.40213171 -15 13 C-13.07570254 11.00934746 -11.80317558 10.16492312 -9.09765625 9.609375 C-6.60235384 8.88448268 -5.21431966 7.81230022 -3.25 6.125 C-2.32960937 5.35542969 -2.32960937 5.35542969 -1.390625 4.5703125 C0.3314878 2.9752713 0.3314878 2.9752713 0 0 Z " fill="#145877" transform="translate(151,84)"/>
<path d="M0 0 C0.99 0.66 1.98 1.32 3 2 C2.63589704 12.92308877 -2.23474843 21.58274995 -9.38671875 29.671875 C-11 31 -11 31 -14 31 C-16.11775458 32.53448205 -16.11775458 32.53448205 -18.1875 34.5 C-19.26064453 35.47453125 -19.26064453 35.47453125 -20.35546875 36.46875 C-20.89816406 36.9740625 -21.44085938 37.479375 -22 38 C-22 37.01 -22 36.02 -22 35 C-21.01 34.505 -21.01 34.505 -20 34 C-19.731875 33.278125 -19.46375 32.55625 -19.1875 31.8125 C-18 29 -18 29 -15.5 26.0625 C-11.55091504 21.22487093 -10.7064734 17.16405853 -11 11 C-10.01 11 -9.02 11 -8 11 C-7.34 12.65 -6.68 14.3 -6 16 C-4.20446585 13.30669878 -3.57303539 11.8539399 -2.875 8.8125 C-2.441875 6.9253125 -2.441875 6.9253125 -2 5 C-1.34 5 -0.68 5 0 5 C0 3.35 0 1.7 0 0 Z " fill="#8D8E8E" transform="translate(157,11)"/>
<path d="M0 0 C3.40302481 0.04460894 5.10430899 0.77476384 7.625 3.0625 C9.82718104 5.56227307 10.1143638 6.34177418 10.5 9.8125 C10.37625 10.67875 10.2525 11.545 10.125 12.4375 C9.465 12.4375 8.805 12.4375 8.125 12.4375 C7.96064453 13.48550781 7.96064453 13.48550781 7.79296875 14.5546875 C7.55513672 15.91980469 7.55513672 15.91980469 7.3125 17.3125 C7.16167969 18.21742187 7.01085937 19.12234375 6.85546875 20.0546875 C6.125 22.4375 6.125 22.4375 3.125 24.4375 C2.795 22.4575 2.465 20.4775 2.125 18.4375 C1.135 18.4375 0.145 18.4375 -0.875 18.4375 C-1.205 19.0975 -1.535 19.7575 -1.875 20.4375 C-2.205 18.1275 -2.535 15.8175 -2.875 13.4375 C1 14.3125 1 14.3125 2.125 15.4375 C1.795 12.4675 1.465 9.4975 1.125 6.4375 C-0.298125 6.80875 -1.72125 7.18 -3.1875 7.5625 C-5.61328125 8.1953125 -5.61328125 8.1953125 -7.875 8.4375 C-8.865 7.7775 -9.855 7.1175 -10.875 6.4375 C-8.45381463 1.71618852 -8.45381463 1.71618852 -6.1875 0.625 C-4.12128548 0.45746909 -2.05990779 0.23257023 0 0 Z " fill="#CACACA" transform="translate(146.875,3.5625)"/>
<path d="M0 0 C0.66 0.33 1.32 0.66 2 1 C1.34 1.515625 0.68 2.03125 0 2.5625 C-5.67353004 7.17224316 -10.92286741 11.7323806 -15.57421875 17.38671875 C-17 19 -17 19 -19.9375 21.4375 C-23.74486911 24.62325782 -26.79290525 28.22575586 -30 32 C-34.38940075 37.10534185 -38.66865428 41.86820707 -44 46 C-44.66 45.67 -45.32 45.34 -46 45 C-43.11679674 41.45222861 -40.31352689 38.12201236 -36.6875 35.3125 C-33.76040404 32.79383603 -33.84724531 32.44111941 -33 29 C-31.73046875 27.32421875 -31.73046875 27.32421875 -30.1875 25.6875 C-28.05776267 23.33011853 -26.43920752 21.1423342 -25 18.3125 C-22.75750463 14.59836704 -20.72381003 13.13921002 -17 11 C-16.01 10.34 -15.02 9.68 -14 9 C-13.34 8.690625 -12.68 8.38125 -12 8.0625 C-9.9298083 7.09580725 -9.9298083 7.09580725 -8.4375 5.375 C-7 4 -7 4 -4 4 C-4 3.34 -4 2.68 -4 2 C-2.125 0.9375 -2.125 0.9375 0 0 Z " fill="#95989A" transform="translate(124,14)"/>
<path d="M0 0 C0.66 0.33 1.32 0.66 2 1 C0.02 2.98 -1.96 4.96 -4 7 C-3.21625 6.484375 -2.4325 5.96875 -1.625 5.4375 C-0.325625 4.7259375 -0.325625 4.7259375 1 4 C1.66 4.33 2.32 4.66 3 5 C1.04653795 6.67268922 -0.91229814 8.33821581 -2.875 10 C-3.43058594 10.47695312 -3.98617187 10.95390625 -4.55859375 11.4453125 C-8.7734375 15 -8.7734375 15 -11 15 C-11.33 15.66 -11.66 16.32 -12 17 C-15.28929528 18.56633109 -18.63656407 19.95847143 -21.99609375 21.3671875 C-25.04760123 23.02587427 -25.9438993 23.76875149 -27 27 C-27 25.68 -27 24.36 -27 23 C-28.13179687 23.433125 -29.26359375 23.86625 -30.4296875 24.3125 C-31.9113927 24.87517286 -33.39316714 25.43766343 -34.875 26 C-35.99455078 26.42925781 -35.99455078 26.42925781 -37.13671875 26.8671875 C-42.7734375 29 -42.7734375 29 -45 29 C-45.33 30.32 -45.66 31.64 -46 33 C-46 32.34 -46 31.68 -46 31 C-46.99 30.67 -47.98 30.34 -49 30 C-42.9347333 23.32820664 -37.7779129 21.96231934 -29 21 C-28.01 20.67 -27.02 20.34 -26 20 C-25.67 19.34 -25.34 18.68 -25 18 C-24.32066406 17.74992187 -23.64132813 17.49984375 -22.94140625 17.2421875 C-18.7916862 15.48971608 -15.50147873 12.8494347 -11.9375 10.125 C-11.23044922 9.59519531 -10.52339844 9.06539062 -9.79492188 8.51953125 C-6.29384797 5.86989222 -3.00018166 3.22616936 0 0 Z " fill="#465358" transform="translate(87,94)"/>
<path d="M0 0 C3.33286647 1.07127851 4.51010944 2.59984363 6.125 5.5625 C7.59475241 9.03531974 7.59475241 9.03531974 10 10 C10.33 10.99 10.66 11.98 11 13 C11.33 12.34 11.66 11.68 12 11 C12.99 11 13.98 11 15 11 C16.25512695 12.50952148 16.25512695 12.50952148 17.48828125 14.62109375 C17.94493164 15.38800537 18.40158203 16.15491699 18.87207031 16.94506836 C19.34741211 17.7675708 19.82275391 18.59007324 20.3125 19.4375 C21.29132017 21.09472482 22.27177331 22.7509863 23.25390625 24.40625 C23.7245752 25.20289063 24.19524414 25.99953125 24.68017578 26.8203125 C26.67946482 30.12213502 28.88622934 33.26286682 31.171875 36.37109375 C31.44515625 36.90863281 31.7184375 37.44617188 32 38 C31.67 38.99 31.34 39.98 31 41 C30.67 40.34 30.34 39.68 30 39 C28.515 38.505 28.515 38.505 27 38 C25.8125 35.4375 25.8125 35.4375 25 33 C24.34 33 23.68 33 23 33 C23 32.34 23 31.68 23 31 C22.34 30.67 21.68 30.34 21 30 C19.93101924 28.57658265 18.91659162 27.11167966 17.9375 25.625 C17.41027344 24.83351562 16.88304687 24.04203125 16.33984375 23.2265625 C15 21 15 21 14 18 C13.23945312 17.93296875 12.47890625 17.8659375 11.6953125 17.796875 C9 17 9 17 7.3046875 14.890625 C6.83289063 14.01921875 6.36109375 13.1478125 5.875 12.25 C5.39804688 11.38890625 4.92109375 10.5278125 4.4296875 9.640625 C3.95789063 8.76921875 3.48609375 7.8978125 3 7 C2.44570312 6.10796875 1.89140625 5.2159375 1.3203125 4.296875 C0 2 0 2 0 0 Z " fill="#15678C" transform="translate(114,117)"/>
<path d="M0 0 C0.33 0 0.66 0 1 0 C3.1510243 13.67436875 3.1510243 13.67436875 3 18.375 C3 22.61451307 3.83896824 25.93638883 5 30 C4.01 30 3.02 30 2 30 C1.8453125 29.0409375 1.8453125 29.0409375 1.6875 28.0625 C1.460625 27.381875 1.23375 26.70125 1 26 C0.01 25.67 -0.98 25.34 -2 25 C-3.09765625 22.59375 -3.09765625 22.59375 -4.0625 19.5 C-4.40023437 18.41976562 -4.73796875 17.33953125 -5.0859375 16.2265625 C-6.23331772 12.1764084 -7.13630477 8.11916185 -8 4 C-8.33 3.34 -8.66 2.68 -9 2 C-6.36 2 -3.72 2 -1 2 C-0.67 1.34 -0.34 0.68 0 0 Z " fill="#1995CE" transform="translate(131,80)"/>
<path d="M0 0 C3.719042 0.54500767 6.01938388 1.42960544 8.98828125 3.72265625 C9.69404297 4.26083984 10.39980469 4.79902344 11.12695312 5.35351562 C11.84818359 5.91748047 12.56941406 6.48144531 13.3125 7.0625 C14.05306641 7.63033203 14.79363281 8.19816406 15.55664062 8.78320312 C17.37732894 10.1810219 19.19132942 11.58668809 21 13 C17 19.57142857 17 19.57142857 13 21 C12.67128906 20.52691406 12.34257813 20.05382812 12.00390625 19.56640625 C7.86084401 13.80653923 3.1115515 8.90708944 -2 4 C-1.34 2.68 -0.68 1.36 0 0 Z " fill="#168EC3" transform="translate(52,46)"/>
<path d="M0 0 C1.32 0.99 2.64 1.98 4 3 C3.82423817 5.37278464 3.32138506 6.69204329 1.59765625 8.34375 C0.07566717 9.57566587 -1.46146435 10.78881236 -3 12 C-3 12.33 -3 12.66 -3 13 C2.94 14.485 2.94 14.485 9 16 C9.66 14.68 10.32 13.36 11 12 C11.04241723 14.33294775 11.04092937 16.66702567 11 19 C10.67 19.33 10.34 19.66 10 20 C1.49354417 19.70667394 -6.06384056 16.8335958 -14 14 C-14 13.34 -14 12.68 -14 12 C-13.44570313 11.75765625 -12.89140625 11.5153125 -12.3203125 11.265625 C-11.59585938 10.93046875 -10.87140625 10.5953125 -10.125 10.25 C-9.40570313 9.92515625 -8.68640625 9.6003125 -7.9453125 9.265625 C-5.63031216 7.7594802 -5.09094656 6.49359214 -4 4 C-2.70529025 2.62913085 -1.37849103 1.28659163 0 0 Z " fill="#15709A" transform="translate(53,5)"/>
<path d="M0 0 C3.37462715 0.54723683 5.08235 1.0549 8 3 C8.6875 5.125 8.6875 5.125 9 7 C7.61536194 8.32430525 6.2167677 9.63402803 4.8125 10.9375 C4.03519531 11.66839844 3.25789062 12.39929688 2.45703125 13.15234375 C-0.16584635 15.12471434 -1.80701833 15.53169602 -5 16 C-7.26454073 17.46771271 -7.26454073 17.46771271 -9 19 C-9.875 16.5 -9.875 16.5 -10 13 C-8.33676305 10.04761054 -6.20470788 7.56251251 -4 5 C-3.21625 4.01 -2.4325 3.02 -1.625 2 C-1.08875 1.34 -0.5525 0.68 0 0 Z " fill="#B3B4B4" transform="translate(143,80)"/>
<path d="M0 0 C0.66 0.99 1.32 1.98 2 3 C0.79214844 3.22300781 -0.41570312 3.44601563 -1.66015625 3.67578125 C-9.55066883 6.30492168 -14.86358407 13.31977244 -20.4375 19.1875 C-22.20636419 21.02651336 -23.97950857 22.86111574 -25.7580719 24.69075012 C-26.85856958 25.8252027 -27.95282833 26.96574749 -29.04014587 28.11283875 C-30.3223243 29.44594847 -31.65676522 30.72843272 -33 32 C-33.66 32 -34.32 32 -35 32 C-35.33644531 32.82564453 -35.33644531 32.82564453 -35.6796875 33.66796875 C-37.41093976 36.72583148 -39.62237725 38.84821826 -42.125 41.3125 C-42.61419922 41.79452881 -43.10339844 42.27655762 -43.60742188 42.77319336 C-48.45909756 47.51784679 -53.34220717 52.22813811 -59 56 C-57.4975457 52.4567789 -55.43747735 50.22928476 -52.6875 47.5625 C-51.92824219 46.82128906 -51.16898437 46.08007812 -50.38671875 45.31640625 C-49.59910156 44.55199219 -48.81148437 43.78757813 -48 43 C-46.33202255 41.33464515 -44.66537317 39.66795916 -43 38 C-42.18660156 37.19820312 -41.37320313 36.39640625 -40.53515625 35.5703125 C-34.95300017 30.05488607 -34.95300017 30.05488607 -29.75 24.1875 C-27.92574674 21.99022017 -26.30325769 20.42185213 -24.0625 18.5625 C-21.55559565 16.46488616 -19.69778611 14.54420309 -17.625 12.0625 C-13.41446351 7.1641496 -9.15339993 2.33786428 -2.5 1.625 C-1.675 1.74875 -0.85 1.8725 0 2 C0 1.34 0 0.68 0 0 Z " fill="#D2D2D2" transform="translate(132,12)"/>
<path d="M0 0 C3.68881485 3.53156519 6.77382244 7.18534092 9.8125 11.3125 C10.42254883 12.13717773 10.42254883 12.13717773 11.04492188 12.97851562 C12.03368611 14.31625547 13.01738585 15.65773623 14 17 C13.34 18.32 12.68 19.64 12 21 C8.68107371 20.41187609 6.97321601 19.37260416 4.546875 17.05859375 C3.928125 16.47529297 3.309375 15.89199219 2.671875 15.29101562 C2.03765625 14.67935547 1.4034375 14.06769531 0.75 13.4375 C0.1003125 12.82197266 -0.549375 12.20644531 -1.21875 11.57226562 C-2.81880287 10.05456842 -4.41213644 8.53042885 -6 7 C-4.47427344 3.67364118 -3.06655496 2.04436998 0 0 Z " fill="#1178A5" transform="translate(100,88)"/>
<path d="M0 0 C0.99 0.99 1.98 1.98 3 3 C2.7421875 5.70703125 2.7421875 5.70703125 1.875 8.8125 C1.57722656 9.88242188 1.27945313 10.95234375 0.97265625 12.0546875 C-0.0704615 15.21336535 -1.48590065 18.04390127 -3 21 C-2.95230469 21.78375 -2.90460937 22.5675 -2.85546875 23.375 C-3.13266807 28.40953892 -7.52294042 31.66002879 -11 35 C-12.95510938 36.53791031 -14.83824469 37.7569907 -17 39 C-16.67 38.401875 -16.34 37.80375 -16 37.1875 C-14.79212012 34.94613529 -14.79212012 34.94613529 -15 32 C-15.33 31.34 -15.66 30.68 -16 30 C-14.68 30.66 -13.36 31.32 -12 32 C-10.02 26.06 -8.04 20.12 -6 14 C-8.31 13.34 -10.62 12.68 -13 12 C-10.10765685 11.17361624 -8.11257569 11 -5 11 C-3.35 7.37 -1.7 3.74 0 0 Z " fill="#75858C" transform="translate(48,87)"/>
<path d="M0 0 C0 3 0 3 -1.34765625 4.359375 C-1.91355469 4.81828125 -2.47945312 5.2771875 -3.0625 5.75 C-4.74633404 7.26260224 -4.74633404 7.26260224 -6 9 C-6 13.48195876 -4.71789176 16.92000707 -3 21 C-2.63128912 22.65919896 -2.28718326 24.3247643 -2 26 C-2.66 26.33 -3.32 26.66 -4 27 C-4 26.34 -4 25.68 -4 25 C-4.886875 24.7525 -5.77375 24.505 -6.6875 24.25 C-10.10427135 22.96065232 -12.2797748 21.40019871 -15 19 C-16.65 20.32 -18.3 21.64 -20 23 C-20.66 22.67 -21.32 22.34 -22 22 C-14.74 14.74 -7.48 7.48 0 0 Z " fill="#58BCE9" transform="translate(126,62)"/>
<path d="M0 0 C2.35964273 0.40683495 3.85934088 0.89814339 5.8125 2.3125 C7 4 7 4 6.875 6.125 C6.441875 7.053125 6.441875 7.053125 6 8 C5.01 8.33 4.02 8.66 3 9 C2.731875 9.78375 2.46375 10.5675 2.1875 11.375 C0.56723012 14.95664921 -1.42722486 15.58577651 -5 17 C-5.66 17 -6.32 17 -7 17 C-7 17.66 -7 18.32 -7 19 C-7.66 18.67 -8.32 18.34 -9 18 C-8.80722252 9.9559214 -8.80722252 9.9559214 -5.625 6.1875 C-4.75875 5.465625 -3.8925 4.74375 -3 4 C-1.97186389 2.68824014 -0.95915568 1.3630107 0 0 Z " fill="#A2A4A6" transform="translate(46,0)"/>
<path d="M0 0 C0.66 -0.99 1.32 -1.98 2 -3 C2 -0.69 2 1.62 2 4 C-4.23464963 2.54082668 -10.29155473 0.94220257 -16.3125 -1.25 C-21.100237 -2.87306791 -24.18796689 -3.74052261 -29 -2 C-30.99083177 0.4251788 -30.99083177 0.4251788 -32 3 C-33.32 2.67 -34.64 2.34 -36 2 C-36 -1 -36 -1 -34.57421875 -2.5703125 C-33.95160156 -3.08335938 -33.32898437 -3.59640625 -32.6875 -4.125 C-32.07261719 -4.64320312 -31.45773438 -5.16140625 -30.82421875 -5.6953125 C-22.91345397 -11.35311857 -8.2206877 -3.00135326 0 0 Z " fill="#1274A0" transform="translate(36,14)"/>
<path d="M0 0 C0.66 0 1.32 0 2 0 C2 0.99 2 1.98 2 3 C2.99 3.33 3.98 3.66 5 4 C-0.94 9.94 -6.88 15.88 -13 22 C-14.32 21.34 -15.64 20.68 -17 20 C-15.64937713 16.97503419 -14.14970763 14.9194306 -11.77734375 12.6171875 C-11.15666016 12.00746094 -10.53597656 11.39773437 -9.89648438 10.76953125 C-9.25001953 10.14433594 -8.60355469 9.51914063 -7.9375 8.875 C-6.6527607 7.62463926 -5.37010319 6.37213484 -4.08984375 5.1171875 C-3.52128662 4.56659668 -2.95272949 4.01600586 -2.36694336 3.44873047 C-0.89270095 2.02585988 -0.89270095 2.02585988 0 0 Z " fill="#73787A" transform="translate(28,127)"/>
<path d="M0 0 C0.66 0.33 1.32 0.66 2 1 C1.36191406 1.69867188 0.72382812 2.39734375 0.06640625 3.1171875 C-0.75988281 4.02726562 -1.58617188 4.93734375 -2.4375 5.875 C-3.26121094 6.77992187 -4.08492187 7.68484375 -4.93359375 8.6171875 C-7.00907942 10.81137927 -7.00907942 10.81137927 -8 13 C-7.34 13.33 -6.68 13.66 -6 14 C-7.78628831 15.67277835 -9.5785075 17.33824443 -11.375 19 C-12.13683594 19.71542969 -12.13683594 19.71542969 -12.9140625 20.4453125 C-16.7734375 24 -16.7734375 24 -19 24 C-19 24.66 -19 25.32 -19 26 C-19.66 26 -20.32 26 -21 26 C-21 26.66 -21 27.32 -21 28 C-22.96147874 29.38938077 -24.96166576 30.7260411 -27 32 C-27.66 31.67 -28.32 31.34 -29 31 C-28.566875 30.60167969 -28.13375 30.20335938 -27.6875 29.79296875 C-27.130625 29.26316406 -26.57375 28.73335937 -26 28.1875 C-25.443125 27.66542969 -24.88625 27.14335938 -24.3125 26.60546875 C-22.683535 24.95851033 -22.683535 24.95851033 -23 22 C-22.01 21.67 -21.02 21.34 -20 21 C-20 20.34 -20 19.68 -20 19 C-19.01 18.67 -18.02 18.34 -17 18 C-15.28385151 16.3446479 -15.28385151 16.3446479 -13.625 14.3125 C-12.70460938 13.23162109 -12.70460938 13.23162109 -11.765625 12.12890625 C-10.70600414 10.85126605 -9.6519906 9.56889846 -8.609375 8.27734375 C-6.00650516 5.05670417 -3.32523785 2.47017669 0 0 Z " fill="#5F6567" transform="translate(111,70)"/>
<path d="M0 0 C2.0625 1.6875 2.0625 1.6875 4 4 C3.83849795 7.39154295 3.41703243 8.58296757 1 11 C-3.70588235 15 -3.70588235 15 -6 15 C-6 15.66 -6 16.32 -6 17 C-2.04 17.33 1.92 17.66 6 18 C6 18.33 6 18.66 6 19 C-7.6332574 18.22095672 -7.6332574 18.22095672 -14 16 C-12.1875 14 -12.1875 14 -10 12 C-9.01 12 -8.02 12 -7 12 C-6.773125 11.46375 -6.54625 10.9275 -6.3125 10.375 C-5.13801851 8.24974779 -3.95184753 6.69753199 -2.375 4.875 C0.21229382 2.36453083 0.21229382 2.36453083 0 0 Z " fill="#3C525C" transform="translate(78,10)"/>
<path d="M0 0 C0.66 0.33 1.32 0.66 2 1 C-3.80012192 6.27907078 -9.69527087 11.33144625 -16 16 C-16.76570313 16.57234375 -17.53140625 17.1446875 -18.3203125 17.734375 C-22.94914659 21.02947723 -26.29045141 22.75704049 -32 23 C-32 21.68 -32 20.36 -32 19 C-31.01 18.94199219 -30.02 18.88398437 -29 18.82421875 C-24.17990577 18.12957237 -20.86855652 15.62498506 -17 12.8125 C-16.32710937 12.34263672 -15.65421875 11.87277344 -14.9609375 11.38867188 C-10.92610005 8.53390754 -7.13877101 5.48966022 -3.4453125 2.20581055 C-2 1 -2 1 0 0 Z " fill="#A3A3A3" transform="translate(88,86)"/>
<path d="M0 0 C2.296875 0.453125 2.296875 0.453125 5 2 C6.51724795 4.7780161 7.35890693 7.7221999 8.25 10.75 C8.50523437 11.54921875 8.76046875 12.3484375 9.0234375 13.171875 C10.33999139 17.38484745 11.64782812 21.58430644 12 26 C11.34 26.66 10.68 27.32 10 28 C8.3249356 23.89921069 6.66139655 19.79384364 5 15.6875 C4.52304688 14.52025391 4.04609375 13.35300781 3.5546875 12.15039062 C3.10351562 11.03212891 2.65234375 9.91386719 2.1875 8.76171875 C1.76855469 7.73006592 1.34960938 6.69841309 0.91796875 5.63549805 C0 3 0 3 0 0 Z " fill="#0F678F" transform="translate(138,124)"/>
<path d="M0 0 C0.66 1.32 1.32 2.64 2 4 C-8.8330173 18.35773065 -8.8330173 18.35773065 -14.75 23.140625 C-18.52205537 26.25780965 -22.0419372 29.65447104 -25.60888672 33.00244141 C-29.7875325 36.89376625 -29.7875325 36.89376625 -32 38 C-30.66420352 35.02363795 -29.20765397 32.96048142 -26.875 30.6875 C-26.25109375 30.07777344 -25.6271875 29.46804687 -24.984375 28.83984375 C-23.08019715 27.07435602 -21.11879979 25.41282903 -19.125 23.75 C-14.07146 19.40297433 -10.1237402 14.20769476 -6 9 C-5.00448628 7.82950287 -4.00547739 6.66194937 -3 5.5 C-0.83949394 3.09465742 -0.83949394 3.09465742 0 0 Z " fill="#BDBDBD" transform="translate(145,25)"/>
<path d="M0 0 C0.66 0.99 1.32 1.98 2 3 C1.03900391 3.94359375 1.03900391 3.94359375 0.05859375 4.90625 C-3.92991646 8.85315131 -7.88298071 12.76891595 -11.5 17.0625 C-15.81145541 22.10453616 -21.01591377 28.00795689 -27 31 C-25.60249952 27.84164893 -23.94801766 25.67727175 -21.5 23.25 C-20.8915625 22.63640625 -20.283125 22.0228125 -19.65625 21.390625 C-18 20 -18 20 -16 20 C-15.67 18.68 -15.34 17.36 -15 16 C-14.01 16 -13.02 16 -12 16 C-12 15.34 -12 14.68 -12 14 C-11.34 14 -10.68 14 -10 14 C-10.33 12.68 -10.66 11.36 -11 10 C-7.37 6.7 -3.74 3.4 0 0 Z " fill="#707476" transform="translate(144,40)"/>
<path d="M0 0 C0.66 0.33 1.32 0.66 2 1 C-0.97 3.97 -0.97 3.97 -4 7 C-3.21625 6.484375 -2.4325 5.96875 -1.625 5.4375 C-0.325625 4.7259375 -0.325625 4.7259375 1 4 C1.66 4.33 2.32 4.66 3 5 C1.04653795 6.67268922 -0.91229814 8.33821581 -2.875 10 C-3.70837891 10.71542969 -3.70837891 10.71542969 -4.55859375 11.4453125 C-8.7734375 15 -8.7734375 15 -11 15 C-11.33 15.66 -11.66 16.32 -12 17 C-13.65 17 -15.3 17 -17 17 C-16.74112169 13.74552979 -15.95023174 12.95723393 -13.41796875 10.78125 C-12.35191406 10.0284375 -11.28585938 9.275625 -10.1875 8.5 C-6.48747533 5.86807015 -3.11160721 3.31502947 0 0 Z " fill="#616364" transform="translate(87,94)"/>
<path d="M0 0 C0.90878906 0.42152344 0.90878906 0.42152344 1.8359375 0.8515625 C2.1659375 1.8415625 2.4959375 2.8315625 2.8359375 3.8515625 C1.7162389 4.85749493 0.5899963 5.8561474 -0.5390625 6.8515625 C-1.47878906 7.686875 -1.47878906 7.686875 -2.4375 8.5390625 C-4.1640625 9.8515625 -4.1640625 9.8515625 -6.1640625 9.8515625 C-6.1640625 10.5115625 -6.1640625 11.1715625 -6.1640625 11.8515625 C-9.07006511 13.10821228 -10.96010834 13.8515625 -14.1640625 13.8515625 C-13.7103125 13.4596875 -13.2565625 13.0678125 -12.7890625 12.6640625 C-11.01875159 10.9358035 -11.01875159 10.9358035 -10.4140625 8.5390625 C-8.55320078 4.5382098 -4.78784381 -0.32840806 0 0 Z " fill="#B3B3B3" transform="translate(155.1640625,109.1484375)"/>
<path d="M0 0 C4.48839991 2.05189254 7.61717218 5.09374365 11.1875 8.4375 C11.82880859 9.02337891 12.47011719 9.60925781 13.13085938 10.21289062 C13.74123047 10.78072266 14.35160156 11.34855469 14.98046875 11.93359375 C15.53629639 12.44978271 16.09212402 12.96597168 16.66479492 13.49780273 C18 15 18 15 19 18 C18.01 18.33 17.02 18.66 16 19 C15.49210937 18.48050781 14.98421875 17.96101563 14.4609375 17.42578125 C11.24838055 14.17111213 8.08012745 10.9771111 4.5 8.125 C3.675 7.42375 2.85 6.7225 2 6 C2 5.34 2 4.68 2 4 C0.68 4 -0.64 4 -2 4 C-2 3.34 -2 2.68 -2 2 C-1.34 2 -0.68 2 0 2 C0 1.34 0 0.68 0 0 Z " fill="#0F3D52" transform="translate(92,94)"/>
<path d="M0 0 C3.27772365 1.09257455 3.63096752 1.50571418 5.4453125 4.23828125 C6.10080078 5.22151367 6.10080078 5.22151367 6.76953125 6.22460938 C7.21683594 6.91361328 7.66414062 7.60261719 8.125 8.3125 C8.58003906 8.98990234 9.03507813 9.66730469 9.50390625 10.36523438 C11.62352618 13.58240231 13.21745234 16.18652445 14 20 C13.34 20.33 12.68 20.66 12 21 C12 20.34 12 19.68 12 19 C11.01 18.67 10.02 18.34 9 18 C7.8125 15.4375 7.8125 15.4375 7 13 C6.34 13 5.68 13 5 13 C5 12.34 5 11.68 5 11 C4.34 10.67 3.68 10.34 3 10 C2.07133836 8.51132724 1.20294664 6.98445294 0.375 5.4375 C-0.07101563 4.61121094 -0.51703125 3.78492188 -0.9765625 2.93359375 C-1.31429687 2.29550781 -1.65203125 1.65742188 -2 1 C-1.34 0.67 -0.68 0.34 0 0 Z " fill="#135E7F" transform="translate(132,137)"/>
<path d="M0 0 C0.66 0 1.32 0 2 0 C2 0.66 2 1.32 2 2 C2.55429687 2.23074219 3.10859375 2.46148437 3.6796875 2.69921875 C6.63392823 4.35538401 8.72626703 6.42450762 11.125 8.8125 C11.99382813 9.66457031 12.86265625 10.51664063 13.7578125 11.39453125 C15.92167745 13.90898756 16.99877948 15.86696725 18 19 C14.26964079 18.43504582 12.62712155 16.95173993 10.0625 14.25 C7.77332844 11.85405738 5.51032321 9.55199783 3.0625 7.3125 C0.82225432 4.80070939 0.28398389 3.31314536 0 0 Z " fill="#125574" transform="translate(47,48)"/>
<path d="M0 0 C0.66 0.33 1.32 0.66 2 1 C1.236875 1.721875 0.47375 2.44375 -0.3125 3.1875 C-3.044086 5.83926978 -3.044086 5.83926978 -4.6875 8.8125 C-5.120625 9.534375 -5.55375 10.25625 -6 11 C-6.66 11 -7.32 11 -8 11 C-8.22429687 11.55042969 -8.44859375 12.10085937 -8.6796875 12.66796875 C-10.41093976 15.72583148 -12.62237725 17.84821826 -15.125 20.3125 C-15.61419922 20.79452881 -16.10339844 21.27655762 -16.60742188 21.77319336 C-21.45909756 26.51784679 -26.34220717 31.22813811 -32 35 C-30.4975457 31.4567789 -28.43747735 29.22928476 -25.6875 26.5625 C-24.92824219 25.82128906 -24.16898437 25.08007812 -23.38671875 24.31640625 C-22.59910156 23.55199219 -21.81148437 22.78757812 -21 22 C-19.33202255 20.33464515 -17.66537317 18.66795916 -16 17 C-15.18660156 16.19820312 -14.37320313 15.39640625 -13.53515625 14.5703125 C-8.79023332 9.87786107 -4.25048346 5.14532209 0 0 Z " fill="#C5C5C5" transform="translate(105,33)"/>
<path d="M0 0 C1.37562854 1.28965176 2.70766393 2.62689293 4 4 C4 6 4 6 1.875 8.1640625 C-6.83943246 15.62342724 -6.83943246 15.62342724 -11.6875 15.5625 C-12.780625 15.376875 -13.87375 15.19125 -15 15 C-14.375 13.125 -14.375 13.125 -13 11 C-12.113125 10.71125 -11.22625 10.4225 -10.3125 10.125 C-6.09909878 8.69403355 -2.91000896 6.38353113 0 3 C0 2.01 0 1.02 0 0 Z " fill="#5A6165" transform="translate(151,84)"/>
<path d="M0 0 C1.32 0.99 2.64 1.98 4 3 C3.25999526 7.29952124 1.33608297 9.15475186 -1.9453125 11.87109375 C-5.5113111 13.83035914 -8.15124884 12.9453073 -12 12 C-11 10 -11 10 -8.5625 9.125 C-5.48727752 7.77490232 -5.31188536 6.97360682 -4 4 C-2.70529025 2.62913085 -1.37849103 1.28659163 0 0 Z " fill="#4A5458" transform="translate(53,5)"/>
<path d="M0 0 C0.99 0.33 1.98 0.66 3 1 C1.88200014 2.33920838 0.75538103 3.67122556 -0.375 5 C-1.00148437 5.7425 -1.62796875 6.485 -2.2734375 7.25 C-2.84320313 7.8275 -3.41296875 8.405 -4 9 C-4.66 9 -5.32 9 -6 9 C-6.33 9.99 -6.66 10.98 -7 12 C-7.99 12 -8.98 12 -10 12 C-10 12.66 -10 13.32 -10 14 C-14.53696787 18.08613353 -19.47965765 21.66976333 -24.375 25.3125 C-25.11105469 25.86228516 -25.84710938 26.41207031 -26.60546875 26.97851562 C-28.40254923 28.32049131 -30.20073996 29.66094884 -32 31 C-32.66 30.67 -33.32 30.34 -34 30 C-32.625 28.5 -32.625 28.5 -31 27 C-30.34 27 -29.68 27 -29 27 C-29 26.34 -29 25.68 -29 25 C-27.3828125 23.80859375 -27.3828125 23.80859375 -25.125 22.4375 C-20.2977188 19.35934442 -16.28239224 15.71925349 -12.1640625 11.7578125 C-10 10 -10 10 -7 10 C-6.773125 9.278125 -6.54625 8.55625 -6.3125 7.8125 C-4.75168987 4.46790687 -2.6968713 2.48396041 0 0 Z " fill="#808080" transform="translate(101,77)"/>
<path d="M0 0 C1.32 0.33 2.64 0.66 4 1 C3.67 1.66 3.34 2.32 3 3 C4.98 3.99 6.96 4.98 9 6 C9 7.32 9 8.64 9 10 C7.54096742 9.69078116 6.08279278 9.37751201 4.625 9.0625 C3.81289062 8.88847656 3.00078125 8.71445313 2.1640625 8.53515625 C0 8 0 8 -2 7 C-3.99960012 6.960008 -6.00047242 6.95653201 -8 7 C-7.67 6.01 -7.34 5.02 -7 4 C-5.02 3.67 -3.04 3.34 -1 3 C-0.67 2.01 -0.34 1.02 0 0 Z " fill="#B1B1B1" transform="translate(134,7)"/>
<path d="M0 0 C1.65 0.33 3.3 0.66 5 1 C4.13375 1.99 3.2675 2.98 2.375 4 C-0.50300292 7.34175695 -3.13137513 10.81734494 -5.703125 14.3984375 C-7 16 -7 16 -9 17 C-9.66796875 15.24609375 -9.66796875 15.24609375 -10 13 C-8.92578125 11.03515625 -8.92578125 11.03515625 -7.3125 9.0625 C-6.75949219 8.37285156 -6.20648438 7.68320313 -5.63671875 6.97265625 C-5.09660156 6.32167969 -4.55648437 5.67070313 -4 5 C-3.21625 4.01 -2.4325 3.02 -1.625 2 C-1.08875 1.34 -0.5525 0.68 0 0 Z " fill="#717678" transform="translate(143,80)"/>
<path d="M0 0 C0.33 0.66 0.66 1.32 1 2 C0.67 2.66 0.34 3.32 0 4 C-0.66 4 -1.32 4 -2 4 C-2.185625 4.680625 -2.37125 5.36125 -2.5625 6.0625 C-4.27413785 9.56019474 -6.45956878 11.63015041 -9.2578125 14.2890625 C-11.18330349 16.10584435 -11.18330349 16.10584435 -13.25 18.875 C-15 21 -15 21 -18 22 C-14.90882864 12.95546158 -7.36786747 5.80023609 0 0 Z " fill="#7B8286" transform="translate(67,65)"/>
<path d="M0 0 C0.66 0.33 1.32 0.66 2 1 C-3.92597817 7.9212975 -10.23514513 14.13632293 -16.984375 20.23828125 C-19.74662828 22.7383813 -22.36783541 25.3632736 -25 28 C-26.31175986 29.02813611 -27.6369893 30.04084432 -29 31 C-29.66 30.67 -30.32 30.34 -31 30 C-30.278125 29.443125 -29.55625 28.88625 -28.8125 28.3125 C-23.64681939 24.06516261 -19.37077311 19.17595372 -15.0625 14.0859375 C-13 12 -13 12 -10.51953125 10.51953125 C-7.65054209 8.78924166 -5.85920614 6.85229193 -3.6875 4.3125 C-2.99011719 3.50425781 -2.29273438 2.69601563 -1.57421875 1.86328125 C-1.05472656 1.24839844 -0.53523438 0.63351563 0 0 Z " fill="#D4D4D4" transform="translate(134,38)"/>
<path d="M0 0 C0.66 0.33 1.32 0.66 2 1 C-1.26474713 4.4386094 -4.33920564 7.56362637 -8.3125 10.1875 C-10.99241881 11.99488711 -11.93166897 13.00867312 -13 16 C-13.99 16 -14.98 16 -16 16 C-16.185625 16.556875 -16.37125 17.11375 -16.5625 17.6875 C-18.66360714 21.06754192 -21.70665994 22.85140381 -25 25 C-25.66 24.67 -26.32 24.34 -27 24 C-23.48542487 19.50027882 -19.86061915 15.93369523 -15.22265625 12.609375 C-12.65113656 10.74739589 -10.16939685 8.79223723 -7.6875 6.8125 C-6.86636719 6.15894531 -6.04523438 5.50539063 -5.19921875 4.83203125 C-3.35573344 3.29633922 -1.65678179 1.73184634 0 0 Z " fill="#9A9A9A" transform="translate(117,61)"/>
<path d="M0 0 C1.65 0.99 3.3 1.98 5 3 C4.41476563 3.27070313 3.82953125 3.54140625 3.2265625 3.8203125 C1.01620758 4.99141283 -0.72285264 6.25775577 -2.625 7.875 C-3.51058594 8.61363281 -3.51058594 8.61363281 -4.4140625 9.3671875 C-6.11805842 11.12154783 -7.02510387 12.77028708 -8 15 C-7.01 15.33 -6.02 15.66 -5 16 C-6.32 17.32 -7.64 18.64 -9 20 C-10.50868047 15.47395859 -9.76489783 11.69082678 -7.8125 7.375 C-5.51584527 4.36559035 -2.98691564 2.32315661 0 0 Z " fill="#949899" transform="translate(73,6)"/>
<path d="M0 0 C3.24208567 0.35049575 4.61527704 0.56221181 6.8125 3.0625 C7.204375 3.701875 7.59625 4.34125 8 5 C7.113125 5.061875 6.22625 5.12375 5.3125 5.1875 C1.16187188 6.20557859 -0.31716522 7.72097971 -3 11 C-4.319018 13.66533035 -4.319018 13.66533035 -5 16 C-5.66 15.01 -6.32 14.02 -7 13 C-6.71125 12.443125 -6.4225 11.88625 -6.125 11.3125 C-4.95582094 9.00115559 -4.95582094 9.00115559 -4.0625 6.5 C-2.9935421 3.98480493 -1.71972638 2.11057328 0 0 Z " fill="#74797B" transform="translate(149,105)"/>
<path d="M0 0 C2 1.125 2 1.125 4 3 C4.25 6.1875 4.25 6.1875 4 9 C3.34 9 2.68 9 2 9 C1.89042969 9.69867188 1.78085938 10.39734375 1.66796875 11.1171875 C1.50941406 12.02726562 1.35085937 12.93734375 1.1875 13.875 C1.03667969 14.77992187 0.88585937 15.68484375 0.73046875 16.6171875 C0 19 0 19 -3 21 C-3.6875 19.4375 -3.6875 19.4375 -4 17 C-3.25406332 15.28110243 -2.50354558 13.56345564 -1.69921875 11.87109375 C-0.60295587 8.93751879 -0.88108206 6.09186643 -1 3 C-0.67 2.01 -0.34 1.02 0 0 Z " fill="#B2B6B8" transform="translate(153,7)"/>
<path d="M0 0 C0 3.739741 -1.39022547 4.76474173 -3.78515625 7.46484375 C-5.1625556 9.02626211 -5.1625556 9.02626211 -5.8125 11.4375 C-7.76786665 15.6569754 -11.46193607 18.08448738 -15 21 C-16.50409864 22.30780102 -18.0042945 23.62010814 -19.5 24.9375 C-20.66666667 25.95833333 -21.83333333 26.97916667 -23 28 C-23 25 -23 25 -20.91796875 22.9140625 C-20.01691406 22.15867187 -19.11585937 21.40328125 -18.1875 20.625 C-14.62964778 17.63702022 -12.26752628 15.04676519 -10 11 C-8.35511706 9.31183067 -6.68662458 7.64646685 -5 6 C-3.28914319 4.03274776 -1.64617623 2.02244508 0 0 Z " fill="#9E9F9F" transform="translate(144,32)"/>
<path d="M0 0 C3.4069998 -0.38937141 4.76368298 -0.15388085 7.6875 1.75 C10.74477525 4.72464619 11.9305022 6.47104835 12.125 10.75 C12.08375 11.4925 12.0425 12.235 12 13 C7.82556637 9.49925018 3.6854506 6.02049157 0 2 C0 1.34 0 0.68 0 0 Z " fill="#269DD2" transform="translate(148,0)"/>
<path d="M0 0 C3.28788824 3.11016455 5.83735988 6.01618925 8 10 C7.34 10.66 6.68 11.32 6 12 C5.54109375 11.65066406 5.0821875 11.30132812 4.609375 10.94140625 C3.99578125 10.48636719 3.3821875 10.03132813 2.75 9.5625 C2.14671875 9.11003906 1.5434375 8.65757813 0.921875 8.19140625 C-1.06292756 6.96099003 -2.71987655 6.43887332 -5 6 C-3.63016497 2.83884224 -3.0109362 2.0072908 0 0 Z " fill="#1381B3" transform="translate(100,88)"/>
<path d="M0 0 C0 4.24645065 -1.81750806 6.38524772 -4 10 C-4.66 10 -5.32 10 -6 10 C-6.99 14.62 -7.98 19.24 -9 24 C-9.66 24 -10.32 24 -11 24 C-10.91621094 23.39671875 -10.83242188 22.7934375 -10.74609375 22.171875 C-10.64425781 21.37265625 -10.54242188 20.5734375 -10.4375 19.75 C-10.33308594 18.96109375 -10.22867188 18.1721875 -10.12109375 17.359375 C-9.99972651 14.99467126 -10.30366743 13.2488963 -11 11 C-10.29875 10.484375 -9.5975 9.96875 -8.875 9.4375 C-5.50532643 6.58060284 -2.78843396 3.41128003 0 0 Z " fill="#ADADAD" transform="translate(60,76)"/>
<path d="M0 0 C0.21398437 0.58652344 0.42796875 1.17304688 0.6484375 1.77734375 C2.95410227 5.56902946 6.89726949 7.14251157 10.6640625 9.31640625 C11.43492188 9.87199219 12.20578125 10.42757813 13 11 C13 11.99 13 12.98 13 14 C13.33 14.66 13.66 15.32 14 16 C10.46433646 14.38753587 7.45224677 12.28040353 4.3125 10 C3.33925781 9.29875 2.36601562 8.5975 1.36328125 7.875 C-1 6 -1 6 -2 4 C-1.0625 1.875 -1.0625 1.875 0 0 Z " fill="#1A8DC1" transform="translate(6,12)"/>
<path d="M0 0 C12.14713634 0.70150635 24.2415952 1.70764666 36 5 C35.67 5.99 35.34 6.98 35 8 C30.38 7.34 25.76 6.68 21 6 C21 5.34 21 4.68 21 4 C20.43490723 3.9498877 19.86981445 3.89977539 19.28759766 3.84814453 C16.73246147 3.61633728 14.17882238 3.3708421 11.625 3.125 C10.73554688 3.04636719 9.84609375 2.96773438 8.9296875 2.88671875 C8.07890625 2.80292969 7.228125 2.71914062 6.3515625 2.6328125 C5.56604004 2.55949707 4.78051758 2.48618164 3.97119141 2.41064453 C2 2 2 2 0 0 Z " fill="#1C83B3" transform="translate(7,95)"/>
<path d="M0 0 C0.99 0.66 1.98 1.32 3 2 C2.91750647 4.80478015 2.39995673 6.53967244 0.55078125 8.66796875 C-2.28306409 11.25592729 -4.0642006 12.88053625 -7.9375 13.375 C-8.618125 13.25125 -9.29875 13.1275 -10 13 C-10.33 12.34 -10.66 11.68 -11 11 C-10.01 11 -9.02 11 -8 11 C-8 10.34 -8 9.68 -8 9 C-5.99112198 7.39020712 -3.87947218 5.98068337 -1.75 4.53515625 C-1.1725 4.02855469 -0.595 3.52195312 0 3 C0 2.01 0 1.02 0 0 Z " fill="#626769" transform="translate(157,110)"/>
<path d="M0 0 C0.66 0 1.32 0 2 0 C2.53394179 1.4117783 3.05165104 2.82970244 3.5625 4.25 C3.85253906 5.03890625 4.14257812 5.8278125 4.44140625 6.640625 C5.04522837 9.19103452 4.8473932 10.55322229 4 13 C0.66644643 11.62059852 -1.36343728 10.27312543 -3 7 C-1.76923077 1.76923077 -1.76923077 1.76923077 0 0 Z " fill="#64C4EF" transform="translate(117,73)"/>
<path d="M0 0 C0.66 0.33 1.32 0.66 2 1 C1.01 1.7734375 1.01 1.7734375 0 2.5625 C-5.71265133 7.20402921 -10.9391632 11.78969897 -15.61328125 17.48828125 C-17.47328227 19.51594433 -19.55236466 20.77618233 -22 22 C-20.85056399 18.89652278 -19.67532234 17.73058662 -17.0625 15.5625 C-14.13239264 13.11077752 -12.8409988 11.26358879 -11 8 C-9 5.6875 -9 5.6875 -7 4 C-6.01 4 -5.02 4 -4 4 C-4 3.34 -4 2.68 -4 2 C-2.125 0.9375 -2.125 0.9375 0 0 Z " fill="#AEAEAE" transform="translate(124,14)"/>
<path d="M0 0 C1.98 0.66 3.96 1.32 6 2 C5.67 2.66 5.34 3.32 5 4 C3.68 4.33 2.36 4.66 1 5 C1.99 7.97 2.98 10.94 4 14 C3.01 13.67 2.02 13.34 1 13 C0.67 13.66 0.34 14.32 0 15 C-0.58384377 13.06882446 -1.14147054 11.12970605 -1.6875 9.1875 C-2.15736328 7.56908203 -2.15736328 7.56908203 -2.63671875 5.91796875 C-3 3 -3 3 -1.58203125 1.11328125 C-1.05996094 0.74589844 -0.53789062 0.37851563 0 0 Z " fill="#23566D" transform="translate(145,121)"/>
<path d="M0 0 C0.66 0.33 1.32 0.66 2 1 C1.36191406 1.69867188 0.72382812 2.39734375 0.06640625 3.1171875 C-0.75988281 4.02726562 -1.58617188 4.93734375 -2.4375 5.875 C-3.26121094 6.77992187 -4.08492187 7.68484375 -4.93359375 8.6171875 C-7.00907942 10.81137927 -7.00907942 10.81137927 -8 13 C-7.34 13.33 -6.68 13.66 -6 14 C-8.31 15.65 -10.62 17.3 -13 19 C-13.66 18.67 -14.32 18.34 -15 18 C-14.360625 17.4225 -13.72125 16.845 -13.0625 16.25 C-10.89875858 14.25885733 -10.89875858 14.25885733 -10.5625 12.125 C-9.17536803 6.88472369 -4.17753055 3.10330841 0 0 Z " fill="#6F7071" transform="translate(111,70)"/>
<path d="M0 0 C0 3 0 3 -2.08203125 5.48046875 C-2.98308594 6.37378906 -3.88414063 7.26710938 -4.8125 8.1875 C-5.70582031 9.08855469 -6.59914063 9.98960938 -7.51953125 10.91796875 C-10 13 -10 13 -13 13 C-10.57891321 7.79064738 -7.33219457 3.16609728 -2.125 0.5625 C-1.42375 0.376875 -0.7225 0.19125 0 0 Z " fill="#747B7F" transform="translate(116,70)"/>
<path d="M0 0 C3 0 3 0 5 1 C2.27076097 7.45092862 -2.16496407 11.47183874 -8 15 C-7.505 14.1028125 -7.505 14.1028125 -7 13.1875 C-5.79212012 10.94613529 -5.79212012 10.94613529 -6 8 C-6.33 7.34 -6.66 6.68 -7 6 C-5.68 6.66 -4.36 7.32 -3 8 C-2.01 5.36 -1.02 2.72 0 0 Z " fill="#6C7A80" transform="translate(39,111)"/>
<path d="M0 0 C0 3 0 3 -1.2421875 4.60546875 C-1.78101562 5.12753906 -2.31984375 5.64960937 -2.875 6.1875 C-3.40867187 6.71730469 -3.94234375 7.24710937 -4.4921875 7.79296875 C-6 9 -6 9 -8 9 C-8.33 9.99 -8.66 10.98 -9 12 C-11.71370273 13.50761263 -14.4651391 14.7687088 -17.3125 16 C-19.35003098 16.95854206 -19.35003098 16.95854206 -20 20 C-20.33 19.34 -20.66 18.68 -21 18 C-12.4304419 9.17839607 -12.4304419 9.17839607 -7.9375 7 C-5.09090564 5.53079001 -3.18854109 3.30684061 -1 1 C-0.67 0.67 -0.34 0.34 0 0 Z " fill="#7F7F7F" transform="translate(125,57)"/>
<path d="M0 0 C0.66 0.33 1.32 0.66 2 1 C-0.16455031 4.98732953 -2.58545246 8.00186069 -6 11 C-8.125 11.625 -8.125 11.625 -10 12 C-11.73026102 13.47890069 -11.73026102 13.47890069 -13 15 C-13.66 14.67 -14.32 14.34 -15 14 C-14.50628906 13.59007812 -14.01257813 13.18015625 -13.50390625 12.7578125 C-12.86324219 12.21898437 -12.22257812 11.68015625 -11.5625 11.125 C-10.92441406 10.59132813 -10.28632812 10.05765625 -9.62890625 9.5078125 C-7.89194996 8.0777243 -7.89194996 8.0777243 -7 6 C-6.34 6 -5.68 6 -5 6 C-5 5.34 -5 4.68 -5 4 C-3.37373596 2.61767557 -1.7074998 1.28062485 0 0 Z " fill="#808A8F" transform="translate(118,13)"/>
<path d="M0 0 C0 3 0 3 -2.23046875 5.5234375 C-3.20865735 6.48166307 -4.19470881 7.43191209 -5.1875 8.375 C-5.91163086 9.07882813 -5.91163086 9.07882813 -6.65039062 9.796875 C-7.61866996 10.73786055 -8.58961533 11.67611066 -9.56323242 12.61157227 C-11.73737523 14.71256634 -13.867744 16.8566385 -16 19 C-17 20 -18 21 -19 22 C-19.66 21.67 -20.32 21.34 -21 21 C-17.29626483 16.46292441 -13.49465828 12.5666316 -9.03515625 8.77734375 C-5.86548828 6.00920762 -2.93277234 3.01525656 0 0 Z " fill="#ACACAC" transform="translate(99,38)"/>
<path d="M0 0 C1.5 1.3125 1.5 1.3125 3 3 C3 6 3 6 1.390625 7.7890625 C0.68421875 8.39492188 -0.0221875 9.00078125 -0.75 9.625 C-1.44609375 10.23601563 -2.1421875 10.84703125 -2.859375 11.4765625 C-4.97551238 12.98257268 -6.46351883 13.57725314 -9 14 C-9 13.34 -9 12.68 -9 12 C-8.34 12 -7.68 12 -7 12 C-6.773125 11.46375 -6.54625 10.9275 -6.3125 10.375 C-5.13801851 8.24974779 -3.95184753 6.69753199 -2.375 4.875 C0.21229382 2.36453083 0.21229382 2.36453083 0 0 Z " fill="#6F7171" transform="translate(78,10)"/>
<path d="M0 0 C0 3 0 3 -1.5 5.375 C-3.16179344 8.28313853 -3.25901218 9.71917907 -3 13 C-3 16 -3 16 -5.5 18.6875 C-6.325 19.450625 -7.15 20.21375 -8 21 C-9.2077558 17.37673261 -8.54311128 16.35853631 -7 13 C-6.34 13 -5.68 13 -5 13 C-5.103125 11.96875 -5.20625 10.9375 -5.3125 9.875 C-4.90667442 4.84276284 -3.45029552 3.53655291 0 0 Z " fill="#CACACA" transform="translate(56,87)"/>
<path d="M0 0 C0.99 0.66 1.98 1.32 3 2 C2.58846263 6.97093824 2.20399168 11.44508386 0 16 C-0.66 16 -1.32 16 -2 16 C-1.85764543 14.27054347 -1.71095618 12.54144346 -1.5625 10.8125 C-1.48128906 9.84957031 -1.40007812 8.88664062 -1.31640625 7.89453125 C-1.02333849 5.21350398 -0.57296246 2.6337014 0 0 Z " fill="#82898C" transform="translate(157,11)"/>
<path d="M0 0 C0.66 1.32 1.32 2.64 2 4 C0.59230365 5.79872312 -0.82651003 7.58874968 -2.25 9.375 C-3.03890625 10.37273438 -3.8278125 11.37046875 -4.640625 12.3984375 C-6.75596965 14.73092018 -8.10691236 15.89850333 -11 17 C-9.64038976 12.97099793 -7.85013081 10.45149933 -4.9375 7.375 C-1.81751986 4.0920144 -1.81751986 4.0920144 0 0 Z " fill="#C7C7C7" transform="translate(145,25)"/>
<path d="M0 0 C1 3 1 3 1 6 C2.65 5.01 4.3 4.02 6 3 C4.61811547 6.21043882 3.07578097 8.04936365 0.375 10.25 C-0.25664063 10.77078125 -0.88828125 11.2915625 -1.5390625 11.828125 C-2.02117188 12.21484375 -2.50328125 12.6015625 -3 13 C-4.00821159 10.31143576 -4.22736824 8.58296785 -3.17578125 5.88671875 C-2.16604698 3.89205069 -1.11893353 1.9353228 0 0 Z " fill="#ABACAC" transform="translate(48,100)"/>
<path d="M0 0 C0.4140625 2.28515625 0.4140625 2.28515625 0.625 5.0625 C0.69976562 5.98160156 0.77453125 6.90070312 0.8515625 7.84765625 C0.90054688 8.55792969 0.94953125 9.26820312 1 10 C0.01 9.34 -0.98 8.68 -2 8 C-2 7.34 -2 6.68 -2 6 C-2.66 6 -3.32 6 -4 6 C-4 5.01 -4 4.02 -4 3 C-4.99 3 -5.98 3 -7 3 C-6.67 2.01 -6.34 1.02 -6 0 C-3.42525708 -0.99667468 -2.51072708 -1.25536354 0 0 Z " fill="#EDEDED" transform="translate(149,10)"/>
<path d="M0 0 C0.66 0.99 1.32 1.98 2 3 C-1.14312525 4.04770842 -3.70921075 4.01720722 -6.9921875 3.96875 C-9.41481509 4.00645627 -11.65301908 4.41325477 -14 5 C-12.54984894 1.25377644 -12.54984894 1.25377644 -10.375 0.25 C-6.82327516 -0.12386577 -3.58177134 -0.23108202 0 0 Z " fill="#B1B5B7" transform="translate(151,4)"/>
<path d="M0 0 C-1.52012677 5.40489519 -5.27385218 8.98492628 -9 13 C-9.58203125 11.140625 -9.58203125 11.140625 -10 9 C-8.6875 6.75 -8.6875 6.75 -7 5 C-6.34 5 -5.68 5 -5 5 C-4.814375 4.0409375 -4.814375 4.0409375 -4.625 3.0625 C-4.41875 2.381875 -4.2125 1.70125 -4 1 C-2 0 -2 0 0 0 Z " fill="#7A7E80" transform="translate(155,29)"/>
<path d="M0 0 C0.66 0.33 1.32 0.66 2 1 C-0.05872549 2.77538699 -2.12172999 4.54534184 -4.1875 6.3125 C-5.0547168 7.06176758 -5.0547168 7.06176758 -5.93945312 7.82617188 C-8.49505108 10.00637126 -10.90561217 11.94378856 -13.80078125 13.66796875 C-16.27629181 14.95476301 -16.27629181 14.95476301 -18 18 C-18.66 17.67 -19.32 17.34 -20 17 C-16.64184608 13.55042629 -13.17876604 10.40339616 -9.4375 7.375 C-8.50808594 6.61960937 -7.57867187 5.86421875 -6.62109375 5.0859375 C-4.44040125 3.35048326 -2.24130257 1.65592707 0 0 Z " fill="#BDBDBD" transform="translate(111,63)"/>
<path d="M0 0 C0.33 0.66 0.66 1.32 1 2 C0.34 2 -0.32 2 -1 2 C-1.26167969 2.57621094 -1.52335938 3.15242188 -1.79296875 3.74609375 C-4.76101969 9.28837658 -9.31939544 14.24576748 -15 17 C-13.84314686 13.52944058 -12.60508982 12.53468198 -10 10 C-8.43678334 8.14492959 -6.89514139 6.27483757 -5.3671875 4.390625 C-4.91601562 3.93171875 -4.46484375 3.4728125 -4 3 C-3.34 3 -2.68 3 -2 3 C-2 2.34 -2 1.68 -2 1 C-1.34 0.67 -0.68 0.34 0 0 Z " fill="#878787" transform="translate(149,32)"/>
<path d="M0 0 C0.99 0.33 1.98 0.66 3 1 C3 1.99 3 2.98 3 4 C2.38125 4.2475 1.7625 4.495 1.125 4.75 C-1.35068687 6.20628639 -1.95125002 7.37812506 -3 10 C-4.32 9.67 -5.64 9.34 -7 9 C-7 6 -7 6 -5.57421875 4.359375 C-4.95160156 3.82828125 -4.32898438 3.2971875 -3.6875 2.75 C-3.07261719 2.20859375 -2.45773438 1.6671875 -1.82421875 1.109375 C-1.22222656 0.74328125 -0.62023437 0.3771875 0 0 Z " fill="#15475E" transform="translate(7,7)"/>
<path d="M0 0 C2.375 0.625 2.375 0.625 5 2 C6.45505179 5.04238103 7.15446097 7.0217472 6.625 10.375 C6.41875 10.91125 6.2125 11.4475 6 12 C5.67 11.34 5.34 10.68 5 10 C4.01 10.495 4.01 10.495 3 11 C2.49384702 9.73160474 1.99530901 8.46016898 1.5 7.1875 C1.2215625 6.47980469 0.943125 5.77210938 0.65625 5.04296875 C0 3 0 3 0 0 Z " fill="#10719C" transform="translate(138,124)"/>
<path d="M0 0 C0.66 0.33 1.32 0.66 2 1 C0.04653795 2.67268922 -1.91229814 4.33821581 -3.875 6 C-4.70837891 6.71542969 -4.70837891 6.71542969 -5.55859375 7.4453125 C-9.7734375 11 -9.7734375 11 -12 11 C-12.33 10.01 -12.66 9.02 -13 8 C-9.17829887 4.64153537 -5.65431936 2.87962897 -1 1 C-0.67 0.67 -0.34 0.34 0 0 Z " fill="#4D565B" transform="translate(88,98)"/>
<path d="M0 0 C0.99 1.32 1.98 2.64 3 4 C3.66 3.67 4.32 3.34 5 3 C4.5359375 4.3303125 4.5359375 4.3303125 4.0625 5.6875 C3.1709329 8.46709155 2.50622993 11.13136375 2 14 C0.42445965 11.11371599 -0.46276373 8.46657616 -1.125 5.25 C-1.29257813 4.45078125 -1.46015625 3.6515625 -1.6328125 2.828125 C-1.75398437 2.22484375 -1.87515625 1.6215625 -2 1 C-1.34 0.67 -0.68 0.34 0 0 Z " fill="#1B556F" transform="translate(140,109)"/>
<path d="M0 0 C5.4611399 0.35233161 5.4611399 0.35233161 8 1 C9.5 3.0625 9.5 3.0625 10 5 C7.45297384 6.27351308 6.5717055 5.80191925 3.875 5.0625 C3.15054688 4.86785156 2.42609375 4.67320313 1.6796875 4.47265625 C1.12539062 4.31667969 0.57109375 4.16070313 0 4 C0 2.68 0 1.36 0 0 Z " fill="#7E7E7E" transform="translate(134,11)"/>
<path d="M0 0 C-3 2 -3 2 -6 3 C-6.515625 3.515625 -7.03125 4.03125 -7.5625 4.5625 C-8.036875 5.036875 -8.51125 5.51125 -9 6 C-9.66 6 -10.32 6 -11 6 C-11.33 7.32 -11.66 8.64 -12 10 C-12 9.34 -12 8.68 -12 8 C-12.99 7.67 -13.98 7.34 -15 7 C-7.1070615 -1.03644647 -7.1070615 -1.03644647 0 0 Z " fill="#525C60" transform="translate(53,117)"/>
<path d="M0 0 C0.66 0.33 1.32 0.66 2 1 C-3.28 5.95 -8.56 10.9 -14 16 C-14 13 -14 13 -12.3203125 10.95703125 C-11.23363281 9.89548828 -11.23363281 9.89548828 -10.125 8.8125 C-9.04605469 7.73935547 -9.04605469 7.73935547 -7.9453125 6.64453125 C-6 5 -6 5 -4 5 C-3.896875 4.360625 -3.79375 3.72125 -3.6875 3.0625 C-3.460625 2.381875 -3.23375 1.70125 -3 1 C-2.01 0.67 -1.02 0.34 0 0 Z " fill="#64686A" transform="translate(132,55)"/>
<path d="M0 0 C-0.99 0.495 -0.99 0.495 -2 1 C-2.33 1.99 -2.66 2.98 -3 4 C-6 6 -6 6 -9 6 C-9 6.66 -9 7.32 -9 8 C-9.66 7.67 -10.32 7.34 -11 7 C-9.54588235 2.39529412 -9.54588235 2.39529412 -7.1875 0.6875 C-4.68810383 -0.09802451 -2.60506718 -0.14472595 0 0 Z " fill="#9C9D9D" transform="translate(129,10)"/>
<path d="M0 0 C0.33 0.66 0.66 1.32 1 2 C4.96 1.34 8.92 0.68 13 0 C12 2 12 2 9.4375 3.0625 C5.59118078 4.11149615 1.96223307 4.59011382 -2 5 C-2 2 -2 2 0 0 Z " fill="#6A6A6A" transform="translate(49,113)"/>
<path d="M0 0 C1.32 0.66 2.64 1.32 4 2 C3.67 2.99 3.34 3.98 3 5 C2.34 5 1.68 5 1 5 C1 5.66 1 6.32 1 7 C-0.96147874 8.38938077 -2.96166576 9.7260411 -5 11 C-5.66 10.67 -6.32 10.34 -7 10 C-6.566875 9.60167969 -6.13375 9.20335938 -5.6875 8.79296875 C-5.130625 8.26316406 -4.57375 7.73335938 -4 7.1875 C-3.443125 6.66542969 -2.88625 6.14335938 -2.3125 5.60546875 C-0.683535 3.95851033 -0.683535 3.95851033 -1 1 C-0.67 0.67 -0.34 0.34 0 0 Z " fill="#6E6E6E" transform="translate(89,91)"/>
<path d="M0 0 C0.99 0.33 1.98 0.66 3 1 C1.8803014 2.00593243 0.7540588 3.0045849 -0.375 4 C-1.31472656 4.8353125 -1.31472656 4.8353125 -2.2734375 5.6875 C-4 7 -4 7 -6 7 C-6 7.66 -6 8.32 -6 9 C-8.90600261 10.25664978 -10.79604584 11 -14 11 C-12.75 9.5 -12.75 9.5 -11 8 C-9.68 8 -8.36 8 -7 8 C-6.773125 7.4225 -6.54625 6.845 -6.3125 6.25 C-4.63315609 3.37112473 -2.77209171 1.82552381 0 0 Z " fill="#98999A" transform="translate(155,112)"/>
<path d="M0 0 C0.99 0.33 1.98 0.66 3 1 C1.83857315 5.35535069 0.92300495 7.64619703 -3 10 C-3.75 8.375 -3.75 8.375 -4 6 C-2.0625 2.75 -2.0625 2.75 0 0 Z " fill="#576065" transform="translate(137,87)"/>
<path d="M0 0 C0.99435406 3.09354597 0.87840996 4.90279155 0 8 C-4.97093824 7.58846263 -9.44508386 7.20399168 -14 5 C-9.47907032 3.54393481 -6.48351204 4.72967159 -2 6 C-1.34 4.02 -0.68 2.04 0 0 Z " fill="#1E6281" transform="translate(63,17)"/>
<path d="M0 0 C0.33 0.66 0.66 1.32 1 2 C1.66 2.33 2.32 2.66 3 3 C0.94201789 6.60146869 -1.19501075 9.93204301 -4 13 C-4.99 13 -5.98 13 -7 13 C-6 10 -6 10 -5 9 C-4.34 8.01 -3.68 7.02 -3 6 C-2.34 6 -1.68 6 -1 6 C-0.67 4.02 -0.34 2.04 0 0 Z " fill="#174053" transform="translate(150,146)"/>
<path d="M0 0 C0.66 0.33 1.32 0.66 2 1 C0.4169423 5.2742558 -2.50568404 7.26531794 -6 10 C-6 6.41087588 -5.33563446 5.89142971 -3 3.3125 C-2.443125 2.68988281 -1.88625 2.06726562 -1.3125 1.42578125 C-0.879375 0.95527344 -0.44625 0.48476563 0 0 Z " fill="#8C8C8C" transform="translate(89,44)"/>
<path d="M0 0 C0.66 0.33 1.32 0.66 2 1 C-0.875 7.75 -0.875 7.75 -2 10 C-1.01 10.33 -0.02 10.66 1 11 C-0.32 12.32 -1.64 13.64 -3 15 C-4.26346142 11.20961574 -3.80586696 8.89502364 -3 5 C-1.4375 2.0625 -1.4375 2.0625 0 0 Z " fill="#848A8C" transform="translate(67,11)"/>
<path d="M0 0 C0.66 0.33 1.32 0.66 2 1 C2.33 2.32 2.66 3.64 3 5 C-1.455 8.96 -1.455 8.96 -6 13 C-6.99 12.67 -7.98 12.34 -9 12 C-8.34 12 -7.68 12 -7 12 C-6.773125 11.4225 -6.54625 10.845 -6.3125 10.25 C-5 8 -5 8 -2.375 6 C-1.59125 5.34 -0.8075 4.68 0 4 C0 2.68 0 1.36 0 0 Z " fill="#9A9C9D" transform="translate(149,82)"/>
<path d="M0 0 C0.66 0.33 1.32 0.66 2 1 C1.67 1.99 1.34 2.98 1 4 C0.65772583 5.33106622 0.32248257 6.66400079 0 8 C-1.32 8 -2.64 8 -4 8 C-4 4 -4 4 -2 1.75 C-1.01 0.88375 -1.01 0.88375 0 0 Z " fill="#768084" transform="translate(16,140)"/>
<path d="M0 0 C0.99 0.66 1.98 1.32 3 2 C2.6875 3.875 2.6875 3.875 2 6 C1.01 6.66 0.02 7.32 -1 8 C-2.32 7.67 -3.64 7.34 -5 7 C-3.35 4.69 -1.7 2.38 0 0 Z " fill="#A9A9A9" transform="translate(50,2)"/>
<path d="M0 0 C0 0.99 0 1.98 0 3 C1.12534105 4.35618499 1.12534105 4.35618499 4.0625 4.0625 C5.031875 4.041875 6.00125 4.02125 7 4 C4.57869669 6.42130331 3.19888623 6.52840504 -0.125 7.125 C-1.03507812 7.29257813 -1.94515625 7.46015625 -2.8828125 7.6328125 C-3.58148438 7.75398438 -4.28015625 7.87515625 -5 8 C-4.24432948 4.21369298 -2.87402727 2.5958956 0 0 Z " fill="#828282" transform="translate(56,106)"/>
<path d="M0 0 C0.66 0.66 1.32 1.32 2 2 C2.66 2.33 3.32 2.66 4 3 C-0.22949995 5.41685712 -3.12335991 6.34833144 -8 6 C-8 5.34 -8 4.68 -8 4 C-7.236875 3.71125 -6.47375 3.4225 -5.6875 3.125 C-2.84970692 2.03730987 -2.84970692 2.03730987 0 0 Z " fill="#525759" transform="translate(70,108)"/>
<path d="M0 0 C0.99 0.33 1.98 0.66 3 1 C-3.435 6.94 -3.435 6.94 -10 13 C-10 10 -10 10 -7.8125 7.51953125 C-6.884375 6.62621094 -5.95625 5.73289062 -5 4.8125 C-4.071875 3.91144531 -3.14375 3.01039062 -2.1875 2.08203125 C-1.1046875 1.05142578 -1.1046875 1.05142578 0 0 Z " fill="#CFCFCF" transform="translate(84,55)"/>
<path d="M0 0 C4.44504873 1.13305164 8.27769973 2.26301451 12 5 C12.33 5.99 12.66 6.98 13 8 C12.01 8.495 12.01 8.495 11 9 C10.443125 8.3503125 10.443125 8.3503125 9.875 7.6875 C7.9551152 5.80472347 7.9551152 5.80472347 4.9375 4.5 C2 3 2 3 0 0 Z " fill="#1B5E7C" transform="translate(29,37)"/>
<path d="M0 0 C0.66 0 1.32 0 2 0 C3.14077657 3.42232972 3.09815117 6.08673217 3.0625 9.6875 C3.05347656 10.86699219 3.04445312 12.04648438 3.03515625 13.26171875 C3.02355469 14.16535156 3.01195312 15.06898438 3 16 C0.96780512 12.59648662 0.63108961 9.6767073 0.375 5.75 C0.30023438 4.67234375 0.22546875 3.5946875 0.1484375 2.484375 C0.09945312 1.66453125 0.05046875 0.8446875 0 0 Z " fill="#1B9DD7" transform="translate(58,118)"/>
<path d="M0 0 C3.24208567 0.35049575 4.61527704 0.56221181 6.8125 3.0625 C7.204375 3.701875 7.59625 4.34125 8 5 C5.36 5.33 2.72 5.66 0 6 C0 4.02 0 2.04 0 0 Z " fill="#7A7D7F" transform="translate(149,105)"/>
<path d="M0 0 C0.33 0 0.66 0 1 0 C1 2.31 1 4.62 1 7 C-1.64 6.34 -4.28 5.68 -7 5 C-7 4.01 -7 3.02 -7 2 C-4.03 2.495 -4.03 2.495 -1 3 C-0.67 2.01 -0.34 1.02 0 0 Z " fill="#236989" transform="translate(37,11)"/>
<path d="M0 0 C0.66 0.33 1.32 0.66 2 1 C-1.31457218 5.69564393 -5.36279281 8.72469104 -10 12 C-10.66 11.67 -11.32 11.34 -12 11 C-11.278125 10.443125 -10.55625 9.88625 -9.8125 9.3125 C-7.02282044 7.01876348 -4.51793656 4.5859889 -2 2 C-1.34 1.34 -0.68 0.68 0 0 Z " fill="#CECECE" transform="translate(115,57)"/>
<path d="M0 0 C0.33 0.66 0.66 1.32 1 2 C1.66 2.33 2.32 2.66 3 3 C2.01 3.99 1.02 4.98 0 6 C0.33 6.99 0.66 7.98 1 9 C-0.98 8.34 -2.96 7.68 -5 7 C-3.35 4.69 -1.7 2.38 0 0 Z " fill="#1A7CA8" transform="translate(5,95)"/>
<path d="M0 0 C0.66 0.66 1.32 1.32 2 2 C1.96712417 4.72869407 1.43602229 7.2966618 1 10 C0.01 9.67 -0.98 9.34 -2 9 C-2.66 9.66 -3.32 10.32 -4 11 C-3.39301257 6.87248551 -1.96189209 3.6678852 0 0 Z " fill="#949494" transform="translate(44,103)"/>
<path d="M0 0 C3.99455527 0.61454696 6.74466336 2.70646737 10 5 C9.01 5.495 9.01 5.495 8 6 C6.33333333 5 4.66666667 4 3 3 C2.01 3.495 2.01 3.495 1 4 C0.01 4 -0.98 4 -2 4 C-1.34 2.68 -0.68 1.36 0 0 Z " fill="#105879" transform="translate(26,31)"/>
<path d="M0 0 C0.99 0 1.98 0 3 0 C3 0.66 3 1.32 3 2 C2.34 2 1.68 2 1 2 C1 2.66 1 3.32 1 4 C-0.62553283 5.70680947 -2.29115995 7.37660195 -4 9 C-4.66 8.67 -5.32 8.34 -6 8 C-5.07456291 6.65826597 -4.13422595 5.32679841 -3.1875 4 C-2.66542969 3.2575 -2.14335937 2.515 -1.60546875 1.75 C-0.81076172 0.88375 -0.81076172 0.88375 0 0 Z M-7 9 C-7 12 -7 12 -7 12 Z " fill="#949494" transform="translate(146,31)"/>
<path d="M0 0 C0.66 0.33 1.32 0.66 2 1 C1.9375 2.8125 1.9375 2.8125 1 5 C-2.5625 6.75 -2.5625 6.75 -6 8 C-6 5 -6 5 -4.6875 3.61328125 C-3.125 2.40885417 -1.5625 1.20442708 0 0 Z " fill="#A0A0A0" transform="translate(109,23)"/>
<path d="M0 0 C0.33 0 0.66 0 1 0 C1.33 5.61 1.66 11.22 2 17 C1.01 16.34 0.02 15.68 -1 15 C-0.67 10.05 -0.34 5.1 0 0 Z " fill="#196385" transform="translate(61,122)"/>
<path d="M0 0 C5.53846154 0.61538462 5.53846154 0.61538462 7.875 2.5625 C8.431875 3.2740625 8.431875 3.2740625 9 4 C8.67 4.66 8.34 5.32 8 6 C4.08597051 4.73058503 2.20927127 3.48832306 0 0 Z " fill="#1797D1" transform="translate(17,24)"/>
<path d="M0 0 C7.42857143 -0.28571429 7.42857143 -0.28571429 11 2 C9.68 2 8.36 2 7 2 C7 2.66 7 3.32 7 4 C4.69 3.34 2.38 2.68 0 2 C0 1.34 0 0.68 0 0 Z " fill="#18698D" transform="translate(39,17)"/>
<path d="M0 0 C0.66 0.33 1.32 0.66 2 1 C1.8125 2.875 1.8125 2.875 1 5 C-1.5625 6.25 -1.5625 6.25 -4 7 C-4 7.66 -4 8.32 -4 9 C-4.66 8.67 -5.32 8.34 -6 8 C-4.55746343 4.63408134 -2.66735273 2.48952921 0 0 Z " fill="#777778" transform="translate(53,5)"/>
<path d="M0 0 C4.455 0.99 4.455 0.99 9 2 C5.81237635 4.12508244 3.73487777 4.5020163 0 5 C0 3.35 0 1.7 0 0 Z " fill="#18668A" transform="translate(10,6)"/>
<path d="M0 0 C0.66 0.33 1.32 0.66 2 1 C-1 4 -4 7 -7 10 C-6.84518205 7.29068581 -6.51827919 5.53415961 -4.59765625 3.5546875 C-3.10228292 2.32320358 -1.5537076 1.1570163 0 0 Z " fill="#BCBCBC" transform="translate(153,109)"/>
<path d="M0 0 C4.75 1.875 4.75 1.875 7 3 C7 3.99 7 4.98 7 6 C3.5625 5.1875 3.5625 5.1875 0 4 C-0.33 3.01 -0.66 2.02 -1 1 C-0.67 0.67 -0.34 0.34 0 0 Z " fill="#116D97" transform="translate(27,33)"/>
<path d="M0 0 C0.33 0.66 0.66 1.32 1 2 C0.67 2.66 0.34 3.32 0 4 C-0.66 4 -1.32 4 -2 4 C-2.4021875 5.2065625 -2.4021875 5.2065625 -2.8125 6.4375 C-3.4003125 7.7059375 -3.4003125 7.7059375 -4 9 C-4.99 9.33 -5.98 9.66 -7 10 C-6.33333333 8.66666667 -5.66666667 7.33333333 -5 6 C-4.5359375 4.948125 -4.5359375 4.948125 -4.0625 3.875 C-3 2 -3 2 0 0 Z " fill="#84898B" transform="translate(67,65)"/>
<path d="M0 0 C0.33 0.99 0.66 1.98 1 3 C0.34 3 -0.32 3 -1 3 C-0.34 4.65 0.32 6.3 1 8 C0.01 8.495 0.01 8.495 -1 9 C-1 9.66 -1 10.32 -1 11 C-1.66 10.67 -2.32 10.34 -3 10 C-2.88637738 8.5199159 -2.75877092 7.04089926 -2.625 5.5625 C-2.55539063 4.73878906 -2.48578125 3.91507813 -2.4140625 3.06640625 C-2.27742188 2.38449219 -2.14078125 1.70257813 -2 1 C-1.34 0.67 -0.68 0.34 0 0 Z " fill="#89989F" transform="translate(40,8)"/>
<path d="M0 0 C2.31 0.33 4.62 0.66 7 1 C6.67 1.66 6.34 2.32 6 3 C4.66666667 3.33333333 3.33333333 3.66666667 2 4 C1.67 4.66 1.34 5.32 1 6 C0.34 6 -0.32 6 -1 6 C-1.33 5.01 -1.66 4.02 -2 3 C-1.34 2.01 -0.68 1.02 0 0 Z " fill="#989898" transform="translate(132,4)"/>
<path d="M0 0 C0.66 0 1.32 0 2 0 C2.66 1.32 3.32 2.64 4 4 C2.02 5.32 0.04 6.64 -2 8 C-1.47731534 5.23723823 -0.89130413 2.6739124 0 0 Z " fill="#C0C0C0" transform="translate(49,100)"/>
<path d="M0 0 C3.0831351 1.19899698 6.06279492 2.47700477 9 4 C8.67 4.99 8.34 5.98 8 7 C8 6.34 8 5.68 8 5 C6.35 5 4.7 5 3 5 C3 4.34 3 3.68 3 3 C2.34 3 1.68 3 1 3 C0.67 2.01 0.34 1.02 0 0 Z " fill="#176E95" transform="translate(41,43)"/>
<path d="M0 0 C0.99 0.495 0.99 0.495 2 1 C1.01 1.495 1.01 1.495 0 2 C0 1.34 0 0.68 0 0 Z M0 3 C-0.33 3.66 -0.66 4.32 -1 5 C-3.31 5 -5.62 5 -8 5 C-6.14210462 1.28420924 -3.44525918 1.93078163 0 3 Z " fill="#616363" transform="translate(49,12)"/>
<path d="M0 0 C0.5534764 2.07553648 1 3.84365964 1 6 C-0.32 6.33 -1.64 6.66 -3 7 C-3.33 5.35 -3.66 3.7 -4 2 C-2.68 1.34 -1.36 0.68 0 0 Z " fill="#B8B8B8" transform="translate(43,9)"/>
<path d="M0 0 C0.66 0.33 1.32 0.66 2 1 C1.2884375 1.6496875 1.2884375 1.6496875 0.5625 2.3125 C-1.23686957 4.02309613 -1.23686957 4.02309613 -2 7 C-3.65 6.67 -5.3 6.34 -7 6 C-6.01 5.67 -5.02 5.34 -4 5 C-4 4.34 -4 3.68 -4 3 C-2 1.375 -2 1.375 0 0 Z " fill="#7A7A79" transform="translate(153,116)"/>
<path d="M0 0 C2.475 0.99 2.475 0.99 5 2 C5 2.99 5 3.98 5 5 C5.33 5.66 5.66 6.32 6 7 C3.11562221 5.70700306 1.12780579 4.34058637 -1 2 C-0.67 1.34 -0.34 0.68 0 0 Z " fill="#1881B0" transform="translate(14,21)"/>
<path d="M0 0 C0.66 0.99 1.32 1.98 2 3 C-3.445 4.485 -3.445 4.485 -9 6 C-8.01 4.68 -7.02 3.36 -6 2 C-2.8125 1.75 -2.8125 1.75 0 2 C0 1.34 0 0.68 0 0 Z " fill="#CCCCCC" transform="translate(132,12)"/>
<path d="M0 0 C0.99 0 1.98 0 3 0 C3 1.65 3 3.3 3 5 C2.01 5.495 2.01 5.495 1 6 C0.01 5.34 -0.98 4.68 -2 4 C-1.34 2.68 -0.68 1.36 0 0 Z " fill="#34B2EA" transform="translate(9,12)"/>
<path d="M0 0 C0.66 1.32 1.32 2.64 2 4 C1.01 4.99 0.02 5.98 -1 7 C-1.66 5.68 -2.32 4.36 -3 3 C-2.01 2.01 -1.02 1.02 0 0 Z " fill="#6A7073" transform="translate(148,107)"/>
<path d="M0 0 C0.33 0.66 0.66 1.32 1 2 C2.98 2 4.96 2 7 2 C6.67 2.66 6.34 3.32 6 4 C3.36 4 0.72 4 -2 4 C-1.34 2.68 -0.68 1.36 0 0 Z " fill="#4C5255" transform="translate(138,95)"/>
<path d="M0 0 C0.66 0.33 1.32 0.66 2 1 C1.34 2.32 0.68 3.64 0 5 C-1.98 5 -3.96 5 -6 5 C-5.67 4.01 -5.34 3.02 -5 2 C-3 1.375 -3 1.375 -1 1 C-0.67 0.67 -0.34 0.34 0 0 Z " fill="#767676" transform="translate(145,92)"/>
<path d="M0 0 C1.41377341 2.63904371 2.37240135 5.07120629 3 8 C-0.875 6.25 -0.875 6.25 -2 4 C-1.0625 1.875 -1.0625 1.875 0 0 Z " fill="#1783B4" transform="translate(6,12)"/>
<path d="M0 0 C0.99 0.495 0.99 0.495 2 1 C2 1.66 2 2.32 2 3 C2.99 3.33 3.98 3.66 5 4 C5.33 4.99 5.66 5.98 6 7 C5.34 7.66 4.68 8.32 4 9 C0 2.25 0 2.25 0 0 Z " fill="#1C6D92" transform="translate(45,133)"/>
<path d="M0 0 C-0.61875 0.4125 -1.2375 0.825 -1.875 1.25 C-4.06768281 3.05573879 -4.92788417 4.4090534 -6 7 C-6.66 5.02 -7.32 3.04 -8 1 C-5.07175348 0.02391783 -3.04386724 -0.08226668 0 0 Z " fill="#2F505F" transform="translate(66,114)"/>
<path d="M0 0 C2.475 0.99 2.475 0.99 5 2 C5 1.34 5 0.68 5 0 C5.66 0 6.32 0 7 0 C7.33 0.99 7.66 1.98 8 3 C5.6875 3.6875 5.6875 3.6875 3 4 C1.1875 2.625 1.1875 2.625 0 1 C0 0.67 0 0.34 0 0 Z " fill="#1E7BA5" transform="translate(20,28)"/>
<path d="M0 0 C-1.32 1.32 -2.64 2.64 -4 4 C-4.66 2.68 -5.32 1.36 -6 0 C-3.50907189 -1.24546405 -2.58919267 -0.7767578 0 0 Z " fill="#979797" transform="translate(49,11)"/>
<path d="M0 0 C0.99 0.33 1.98 0.66 3 1 C0.6875 3.0625 0.6875 3.0625 -2 5 C-2.99 4.67 -3.98 4.34 -5 4 C-2.6875 1.9375 -2.6875 1.9375 0 0 Z " fill="#A2A2A2" transform="translate(155,112)"/>
<path d="M0 0 C0.66 0.33 1.32 0.66 2 1 C-1.465 3.97 -1.465 3.97 -5 7 C-4.1875 4.0625 -4.1875 4.0625 -3 1 C-2.01 0.67 -1.02 0.34 0 0 Z " fill="#4C555A" transform="translate(132,55)"/>
<path d="M0 0 C0.33 0 0.66 0 1 0 C0.6875 3.375 0.6875 3.375 0 7 C-0.99 7.66 -1.98 8.32 -3 9 C-3.33 8.01 -3.66 7.02 -4 6 C-3.34 5.67 -2.68 5.34 -2 5 C-1.27840576 3.35636866 -0.60648579 1.68949614 0 0 Z " fill="#AAAAAA" transform="translate(153,19)"/>
<path d="M0 0 C0.33 0 0.66 0 1 0 C0.67 2.64 0.34 5.28 0 8 C-0.66 8 -1.32 8 -2 8 C-1.125 1.125 -1.125 1.125 0 0 Z " fill="#6F777C" transform="translate(159,14)"/>
<path d="" fill="#385666" transform="translate(0,0)"/>
</svg>
