<?xml version="1.0" encoding="UTF-8"?>
<svg version="1.1" xmlns="http://www.w3.org/2000/svg" width="20" height="20" viewBox="0 0 160 160">
<path d="M0 0 C1.6171875 1.4765625 1.6171875 1.4765625 3 3 C4.423125 3.4021875 4.423125 3.4021875 5.875 3.8125 C10.09944665 5.41778973 11.38701272 7.34181781 14 11 C14.495 12.485 14.495 12.485 15 14 C16.65756264 15.27718707 16.65756264 15.27718707 18.6875 16.375 C22.44864185 18.61297961 25.66582216 21.15205643 29 24 C30.30976864 24.94131217 31.62244668 25.87858498 32.9375 26.8125 C40.29809132 32.38229611 44.70556116 37.54479933 46.64453125 46.74609375 C47.2438395 52.23206929 46.72982258 57.54831326 46 63 C46.76183594 63.04898438 47.52367188 63.09796875 48.30859375 63.1484375 C54.72970616 63.61338696 60.75441373 64.43860343 67 66 C67.495 64.515 67.495 64.515 68 63 C69.65 63.33 71.3 63.66 73 64 C73 64.99 73 65.98 73 67 C76.0831351 65.80100302 79.06279492 64.52299523 82 63 C84.0625 64.6875 84.0625 64.6875 86 67 C85.91116932 70.53546123 85.12926468 71.85686956 82.7421875 74.5 C81.79601562 75.325 80.84984375 76.15 79.875 77 C78.88628906 77.86367187 77.89757812 78.72734375 76.87890625 79.6171875 C73.67985984 82.26497354 70.45371653 84.69752231 67 87 C68.32 88.32 69.64 89.64 71 91 C79.95155661 88.87590182 86.06298475 83.72863195 93 78 C93.74121094 77.401875 94.48242188 76.80375 95.24609375 76.1875 C98.6065483 73.41241495 101.41804005 70.51146553 104 67 C108.875 68.875 108.875 68.875 110 70 C110.50881319 75.28438846 110.50881319 75.28438846 108.6640625 77.87890625 C101.96704966 83.40843218 94.95396996 88.47107008 87.8828125 93.5078125 C83.04917759 96.95267195 78.27024926 100.46810058 73.5 104 C68.81051568 107.47139905 64.11494644 110.93040483 59.36328125 114.31640625 C51.33188903 120.04098223 43.51876199 125.91197853 35.90649414 132.18457031 C29.37574497 137.55355669 22.67834864 142.67431489 15.84570312 147.65283203 C14.6470647 148.52771124 13.452766 149.40857882 12.26367188 150.29638672 C2.66066866 157.4419508 2.66066866 157.4419508 -2.375 157.8125 C-7.04921203 156.76483179 -8.74625704 155.49182172 -12 152 C-12.66015625 149.828125 -12.66015625 149.828125 -13 148 C-11.96875 147.484375 -10.9375 146.96875 -9.875 146.4375 C-8.77091797 145.880625 -8.77091797 145.880625 -7.64453125 145.3125 C-5.75615367 144.37528454 -3.85627929 143.46108935 -1.94921875 142.5625 C7.1914719 138.17665535 15.5715834 132.96097181 23.99316406 127.328125 C25.88341956 126.07715299 27.79088277 124.86082733 29.7109375 123.65625 C30.79632813 122.9653125 31.88171875 122.274375 33 121.5625 C33.94875 120.96566406 34.8975 120.36882812 35.875 119.75390625 C38.26607653 117.78038904 38.43413064 116.93278531 39 114 C39.928125 113.443125 40.85625 112.88625 41.8125 112.3125 C46.07920696 109.21704593 47.18880487 105.81127731 49 101 C49.33 100.34 49.66 99.68 50 99 C44.65564936 102.65081615 39.32310944 106.31828277 34 110 C33.38157227 110.42667969 32.76314453 110.85335937 32.12597656 111.29296875 C24.35241569 116.67566973 16.92133405 122.36299446 9.6796875 128.44677734 C-2.40970709 138.50358002 -2.40970709 138.50358002 -9 138.8125 C-10.1446875 138.88404297 -10.1446875 138.88404297 -11.3125 138.95703125 C-11.869375 138.97121094 -12.42625 138.98539063 -13 139 C-13 138.34 -13 137.68 -13 137 C-14.175625 136.566875 -14.175625 136.566875 -15.375 136.125 C-18 135 -18 135 -20 133 C-20.02734375 131.00390625 -20.02734375 131.00390625 -19 129 C-16.25390625 127.90234375 -16.25390625 127.90234375 -12.5625 126.9375 C-3.28387417 124.2683688 4.36548003 119.22110862 12.35864258 113.93041992 C14 113 14 113 16 113 C16.061875 112.38125 16.12375 111.7625 16.1875 111.125 C16.455625 110.42375 16.72375 109.7225 17 109 C18.2375 108.5359375 18.2375 108.5359375 19.5 108.0625 C20.325 107.711875 21.15 107.36125 22 107 C22.83492354 104.57540213 22.83492354 104.57540213 23 102 C23.495 100.515 23.495 100.515 24 99 C24.66 99 25.32 99 26 99 C26 97.68 26 96.36 26 95 C25.01 94.67 24.02 94.34 23 94 C23 93.34 23 92.68 23 92 C19.37 91.01 15.74 90.02 12 89 C12 88.34 12 87.68 12 87 C11.21625 86.71125 10.4325 86.4225 9.625 86.125 C7 85 7 85 5 83 C4.734375 81.01171875 4.734375 81.01171875 4.75 78.6875 C4.74484375 77.92824219 4.7396875 77.16898437 4.734375 76.38671875 C5.03821193 73.65665458 5.88536825 71.49907515 7 69 C6.24074219 68.93941406 5.48148438 68.87882812 4.69921875 68.81640625 C3.70535156 68.73261719 2.71148437 68.64882812 1.6875 68.5625 C0.20830078 68.44068359 0.20830078 68.44068359 -1.30078125 68.31640625 C-4 68 -4 68 -7 67 C-11.97370423 66.60100381 -11.97370423 66.60100381 -16.4375 68.5 C-16.953125 68.995 -17.46875 69.49 -18 70 C-20.64 68.68 -23.28 67.36 -26 66 C-25.73799687 60.67260293 -25.73799687 60.67260293 -25 58 C-22.56990326 56.00607447 -21.16090285 55 -18 55 C-17.67 54.01 -17.34 53.02 -17 52 C-15.824375 51.319375 -15.824375 51.319375 -14.625 50.625 C-11.50180406 48.69159299 -10.55264493 47.31261632 -9 44 C-8.85199642 40.77179107 -8.85199642 40.77179107 -9.3125 37.4375 C-9.69268356 33.90138408 -10 30.56300264 -10 27 C-10.78375 26.731875 -11.5675 26.46375 -12.375 26.1875 C-15 25 -15 25 -17 22 C-19.58380177 21.74969023 -19.58380177 21.74969023 -22 22 C-21.74309819 19.93571843 -21.46886954 17.87358906 -21.1875 15.8125 C-21.03667969 14.66394531 -20.88585937 13.51539063 -20.73046875 12.33203125 C-19.63290798 7.32551073 -18.01887224 4.76935251 -13.9375 1.6875 C-9.57971125 -0.59824847 -4.80420501 -0.93228454 0 0 Z M-9 60 C-9 60.66 -9 61.32 -9 62 C-9.99 62.33 -10.98 62.66 -12 63 C-9.36 63 -6.72 63 -4 63 C-4.33 61.68 -4.66 60.36 -5 59 C-7.0745356 58.8509288 -7.0745356 58.8509288 -9 60 Z M7 62 C6.67 62.99 6.34 63.98 6 65 C7.32 65 8.64 65 10 65 C10.33 64.01 10.66 63.02 11 62 C9.68 62 8.36 62 7 62 Z M45 66 C44.67 66.99 44.34 67.98 44 69 C46.31 69.33 48.62 69.66 51 70 C51 70.66 51 71.32 51 72 C48.36 71.67 45.72 71.34 43 71 C43 72.32 43 73.64 43 75 C43.85464844 75.34933594 44.70929688 75.69867188 45.58984375 76.05859375 C46.69457031 76.51363281 47.79929687 76.96867187 48.9375 77.4375 C50.03964844 77.88996094 51.14179687 78.34242187 52.27734375 78.80859375 C55 80 55 80 56 81 C62.50046662 80.86999067 65.59751505 78.37572212 70 74 C69.67 73.34 69.34 72.68 69 72 C68.34 72 67.68 72 67 72 C66.67 70.68 66.34 69.36 66 68 C59.07 67.34 52.14 66.68 45 66 Z M73 69 C73.33 69.66 73.66 70.32 74 71 C74.33 70.34 74.66 69.68 75 69 C74.34 69 73.68 69 73 69 Z " fill="#2B5371" transform="translate(43,3)"/>
<path d="M0 0 C1.6171875 1.4765625 1.6171875 1.4765625 3 3 C4.423125 3.4021875 4.423125 3.4021875 5.875 3.8125 C10.09944665 5.41778973 11.38701272 7.34181781 14 11 C14.495 12.485 14.495 12.485 15 14 C16.65756264 15.27718707 16.65756264 15.27718707 18.6875 16.375 C22.44864185 18.61297961 25.66582216 21.15205643 29 24 C30.30976864 24.94131217 31.62244668 25.87858498 32.9375 26.8125 C38.13167546 30.6781652 43.83420591 35.35940073 45 42 C44.34 42 43.68 42 43 42 C42.814375 42.66 42.62875 43.32 42.4375 44 C39.42578755 50.28531293 33.57814965 57.26655529 27 60 C20.66268902 60.81710456 14.28305469 59.94838561 8 59 C8 59.66 8 60.32 8 61 C9.32 61 10.64 61 12 61 C11.67 62.65 11.34 64.3 11 66 C10.01 65.505 10.01 65.505 9 65 C9.495 64.01 9.495 64.01 10 63 C9.01 63 8.02 63 7 63 C6.67 63.66 6.34 64.32 6 65 C3.69 65 1.38 65 -1 65 C-1 64.34 -1 63.68 -1 63 C-1.99 63.495 -1.99 63.495 -3 64 C-5.3329866 64.04022391 -7.66706666 64.04320247 -10 64 C-10 63.67 -10 63.34 -10 63 C-7.525 62.505 -7.525 62.505 -5 62 C-5.66 61.34 -6.32 60.68 -7 60 C-7.66 60 -8.32 60 -9 60 C-9 60.66 -9 61.32 -9 62 C-10.98 62.495 -10.98 62.495 -13 63 C-13 62.01 -13 61.02 -13 60 C-14.98 59.67 -16.96 59.34 -19 59 C-17.84826645 61.46800047 -16.95216435 63.04783565 -15 65 C-12.62644387 65.20515305 -12.62644387 65.20515305 -10 65.0625 C-5.19618529 64.90190736 -5.19618529 64.90190736 -3 66 C-3.33 66.66 -3.66 67.32 -4 68 C-5.485 67.505 -5.485 67.505 -7 67 C-11.97370423 66.60100381 -11.97370423 66.60100381 -16.4375 68.5 C-16.953125 68.995 -17.46875 69.49 -18 70 C-20.64 68.68 -23.28 67.36 -26 66 C-25.73799687 60.67260293 -25.73799687 60.67260293 -25 58 C-22.56990326 56.00607447 -21.16090285 55 -18 55 C-17.67 54.01 -17.34 53.02 -17 52 C-15.824375 51.319375 -15.824375 51.319375 -14.625 50.625 C-11.50180406 48.69159299 -10.55264493 47.31261632 -9 44 C-8.85199642 40.77179107 -8.85199642 40.77179107 -9.3125 37.4375 C-9.69268356 33.90138408 -10 30.56300264 -10 27 C-10.78375 26.731875 -11.5675 26.46375 -12.375 26.1875 C-15 25 -15 25 -17 22 C-19.58380177 21.74969023 -19.58380177 21.74969023 -22 22 C-21.74309819 19.93571843 -21.46886954 17.87358906 -21.1875 15.8125 C-21.03667969 14.66394531 -20.88585937 13.51539063 -20.73046875 12.33203125 C-19.63290798 7.32551073 -18.01887224 4.76935251 -13.9375 1.6875 C-9.57971125 -0.59824847 -4.80420501 -0.93228454 0 0 Z " fill="#E44A27" transform="translate(43,3)"/>
<path d="M0 0 C4.875 1.875 4.875 1.875 6 3 C6.50881319 8.28438846 6.50881319 8.28438846 4.6640625 10.87890625 C-2.03295034 16.40843218 -9.04603004 21.47107008 -16.1171875 26.5078125 C-20.95082241 29.95267195 -25.72975074 33.46810058 -30.5 37 C-35.18948432 40.47139905 -39.88505356 43.93040483 -44.63671875 47.31640625 C-52.66811097 53.04098223 -60.48123801 58.91197853 -68.09350586 65.18457031 C-74.62425503 70.55355669 -81.32165136 75.67431489 -88.15429688 80.65283203 C-89.3529353 81.52771124 -90.547234 82.40857882 -91.73632812 83.29638672 C-101.33933134 90.4419508 -101.33933134 90.4419508 -106.375 90.8125 C-111.04921203 89.76483179 -112.74625704 88.49182172 -116 85 C-116.66015625 82.828125 -116.66015625 82.828125 -117 81 C-115.96875 80.484375 -114.9375 79.96875 -113.875 79.4375 C-113.13894531 79.06625 -112.40289062 78.695 -111.64453125 78.3125 C-109.75615367 77.37528454 -107.85627929 76.46108935 -105.94921875 75.5625 C-96.8085281 71.17665535 -88.4284166 65.96097181 -80.00683594 60.328125 C-78.11658044 59.07715299 -76.20911723 57.86082733 -74.2890625 56.65625 C-73.20367187 55.9653125 -72.11828125 55.274375 -71 54.5625 C-70.05125 53.96566406 -69.1025 53.36882812 -68.125 52.75390625 C-65.73392347 50.78038904 -65.56586936 49.93278531 -65 47 C-64.071875 46.443125 -63.14375 45.88625 -62.1875 45.3125 C-57.03431601 41.57391554 -55.39217992 36.0649422 -54 30 C-53.01 30.33 -52.02 30.66 -51 31 C-45.42744891 29.0749369 -41.64384505 26.9589211 -38.75 21.75 C-38.37875 20.88375 -38.37875 20.88375 -38 20 C-37.360625 20.721875 -36.72125 21.44375 -36.0625 22.1875 C-33.32330464 24.17557676 -33.32330464 24.17557676 -31.12109375 23.94921875 C-23.27779238 21.82589407 -17.1390377 16.06965694 -11 11 C-10.25878906 10.401875 -9.51757812 9.80375 -8.75390625 9.1875 C-5.3934517 6.41241495 -2.58195995 3.51146553 0 0 Z " fill="#54899C" transform="translate(147,70)"/>
<path d="M0 0 C0.66 0 1.32 0 2 0 C4.22477269 6.80518706 5.32468845 15.35062311 2 22 C3.485 22.495 3.485 22.495 5 23 C-2.41017023 23.11459026 -9.64206267 22.91160286 -17 22 C-17.89604368 28.04829486 -18.11269443 33.8894576 -18 40 C-17.01 39.67 -16.02 39.34 -15 39 C-10.38878656 39.95620124 -6.17665756 41.77723926 -2.1875 44.25 C0.69905522 46.30578579 0.69905522 46.30578579 2.90234375 45.51953125 C5.6405025 44.8413653 7.1274205 45.47331636 9.75 46.4375 C10.54921875 46.72496094 11.3484375 47.01242188 12.171875 47.30859375 C12.77515625 47.53675781 13.3784375 47.76492187 14 48 C12.5625 50.0625 12.5625 50.0625 10 52 C4.53532621 52.30593734 -0.84343814 50.64571123 -6 49 C-6.763125 49.825 -7.52625 50.65 -8.3125 51.5 C-11 54 -11 54 -14 54 C-14.495 54.99 -14.495 54.99 -15 56 C-15.33 55.34 -15.66 54.68 -16 54 C-18.01669827 52.86649466 -18.01669827 52.86649466 -20 52 C-20 51.34 -20 50.68 -20 50 C-25.445 48.515 -25.445 48.515 -31 47 C-31 46.34 -31 45.68 -31 45 C-31.78375 44.71125 -32.5675 44.4225 -33.375 44.125 C-36 43 -36 43 -38 41 C-38.265625 39.01171875 -38.265625 39.01171875 -38.25 36.6875 C-38.25515625 35.92824219 -38.2603125 35.16898438 -38.265625 34.38671875 C-37.96178807 31.65665458 -37.11463175 29.49907515 -36 27 C-43.10719453 24.91621522 -49.30347648 23.66416763 -56.72265625 24.28515625 C-59 24 -59 24 -60.80859375 22.18359375 C-62 20 -62 20 -62 17 C-60.02 17.33 -58.04 17.66 -56 18 C-56 18.99 -56 19.98 -56 21 C-55.34402832 21.05534912 -54.68805664 21.11069824 -54.01220703 21.16772461 C-51.04942727 21.42009399 -48.08722626 21.67871815 -45.125 21.9375 C-44.09246094 22.02451172 -43.05992188 22.11152344 -41.99609375 22.20117188 C-41.00996094 22.28818359 -40.02382813 22.37519531 -39.0078125 22.46484375 C-38.09660645 22.543396 -37.18540039 22.62194824 -36.24658203 22.70288086 C-34 23 -34 23 -32 24 C-31.67 22.35 -31.34 20.7 -31 19 C-32.32 19 -33.64 19 -35 19 C-35 18.34 -35 17.68 -35 17 C-33.73285156 17.08121094 -32.46570313 17.16242187 -31.16015625 17.24609375 C-20.33762069 18.07065394 -20.33762069 18.07065394 -10.6875 14 C-8.7001285 12.11742897 -8.7001285 12.11742897 -7 10 C-6.39800781 9.28199219 -5.79601562 8.56398438 -5.17578125 7.82421875 C-3.2060681 5.31271969 -1.42832071 2.85664142 0 0 Z " fill="#133C61" transform="translate(86,45)"/>
<path d="M0 0 C2.078125 0.40625 2.078125 0.40625 4 1 C2.90241493 1.84198307 1.79664683 2.67330671 0.6875 3.5 C0.07261719 3.9640625 -0.54226562 4.428125 -1.17578125 4.90625 C-3 6 -3 6 -6 6 C-6.433125 6.9590625 -6.433125 6.9590625 -6.875 7.9375 C-8 10 -8 10 -10 11 C-14.08237637 13.90254166 -14.08237637 13.90254166 -16.85571289 17.89013672 C-18.18226475 20.336064 -19.55157551 21.50963268 -21.74609375 23.20703125 C-22.49584473 23.79081543 -23.2455957 24.37459961 -24.01806641 24.97607422 C-24.81647949 25.58209473 -25.61489258 26.18811523 -26.4375 26.8125 C-27.25138184 27.43398926 -28.06526367 28.05547852 -28.90380859 28.69580078 C-31.25830345 30.47908406 -33.6248436 32.24435877 -36 34 C-36.59216309 34.43973145 -37.18432617 34.87946289 -37.79443359 35.33251953 C-46.00881201 41.33207337 -46.00881201 41.33207337 -51.3125 41.75 C-56.06920943 40.78253368 -57.70774008 39.53315699 -61 36 C-61.66015625 33.828125 -61.66015625 33.828125 -62 32 C-60.96875 31.484375 -59.9375 30.96875 -58.875 30.4375 C-58.13894531 30.06625 -57.40289062 29.695 -56.64453125 29.3125 C-54.75615367 28.37528454 -52.85627929 27.46108935 -50.94921875 26.5625 C-44.1316232 23.29131229 -37.71387362 19.69091277 -31.375 15.5625 C-30.65650879 15.09481201 -29.93801758 14.62712402 -29.19775391 14.14526367 C-25.92340029 11.99163438 -22.69425087 9.80021268 -19.53515625 7.48046875 C-11.13293561 1.43044607 -11.13293561 1.43044607 -6.4375 2.1875 C-5.303125 2.455625 -4.16875 2.72375 -3 3 C-1.2488427 1.5833253 -1.2488427 1.5833253 0 0 Z " fill="#50E4FD" transform="translate(92,119)"/>
<path d="M0 0 C2.96175123 0.61277612 4.38058783 1.25372522 7 3 C7 3.66 7 4.32 7 5 C7.66 5 8.32 5 9 5 C9.66 7.64 10.32 10.28 11 13 C10.505 8.05 10.505 8.05 10 3 C14 6 14 6 15 9 C15.66 9.33 16.32 9.66 17 10 C17 10.66 17 11.32 17 12 C17.66 12 18.32 12 19 12 C19 12.66 19 13.32 19 14 C19.99 13.67 20.98 13.34 22 13 C24.475 17.455 24.475 17.455 27 22 C22.68786451 28.14479307 17.87626159 34.5618692 11 38 C9.12620395 38.07033769 7.24998898 38.0843022 5.375 38.0625 C4.37210938 38.05347656 3.36921875 38.04445312 2.3359375 38.03515625 C1.56507812 38.02355469 0.79421875 38.01195312 0 38 C0 37.67 0 37.34 0 37 C1.2375 36.938125 2.475 36.87625 3.75 36.8125 C7.30550124 36.39643071 7.84639125 36.15744896 10.5 33.4375 C10.995 32.633125 11.49 31.82875 12 31 C10.824375 31.495 9.64875 31.99 8.4375 32.5 C4.40779889 34.02999347 1.27861686 34.26741355 -3 34 C-3.268125 33.0925 -3.53625 32.185 -3.8125 31.25 C-4.89576294 28.28528037 -5.98359457 26.3830246 -8 24 C-6.906875 23.731875 -5.81375 23.46375 -4.6875 23.1875 C-0.58301409 22.01576549 -0.58301409 22.01576549 2 19 C1.68713652 17.32936978 1.34865734 15.66352846 1 14 C0.78301513 11.56494763 0.59709255 9.12698616 0.4375 6.6875 C0.31181641 4.80611328 0.31181641 4.80611328 0.18359375 2.88671875 C0.12300781 1.93410156 0.06242187 0.98148438 0 0 Z " fill="#961D0B" transform="translate(59,25)"/>
<path d="M0 0 C0 2.97 0 5.94 0 9 C0.66 9.33 1.32 9.66 2 10 C2.99 9.01 3.98 8.02 5 7 C6 8 6 8 6.375 10.1875 C5.84813559 14.13898306 3.62688681 16.21275092 1 19 C0.4225 19.78375 -0.155 20.5675 -0.75 21.375 C-4.24963144 23.9025116 -7.82148204 23.32142446 -12 23 C-12.33 23.99 -12.66 24.98 -13 26 C-13.8353125 25.01 -13.8353125 25.01 -14.6875 24 C-17.45221529 21.60889489 -18.47822419 21.81310642 -22 22 C-21.74309819 19.93571843 -21.46886954 17.87358906 -21.1875 15.8125 C-21.03667969 14.66394531 -20.88585937 13.51539063 -20.73046875 12.33203125 C-19.63290798 7.32551073 -18.01887224 4.76935251 -13.9375 1.6875 C-9.46809809 -0.70065682 -4.93507656 -0.35747033 0 0 Z " fill="#939798" transform="translate(43,3)"/>
<path d="M0 0 C-0.72316406 0.47179687 -0.72316406 0.47179687 -1.4609375 0.953125 C-2.09257813 1.38109375 -2.72421875 1.8090625 -3.375 2.25 C-4.00148437 2.66765625 -4.62796875 3.0853125 -5.2734375 3.515625 C-7.09974158 4.8715651 -7.09974158 4.8715651 -7.81640625 6.8359375 C-9.63639465 10.16357305 -12.59273167 12.1221259 -15.5625 14.375 C-16.19438232 14.85888184 -16.82626465 15.34276367 -17.47729492 15.84130859 C-18.73839389 16.80069 -20.00305841 17.7554051 -21.27148438 18.70507812 C-22.72723153 19.79565481 -24.16988234 20.90368157 -25.609375 22.015625 C-30.76462534 25.78151709 -34.61081603 26.79716876 -41 27 C-41 26.34 -41 25.68 -41 25 C-42.175625 24.566875 -42.175625 24.566875 -43.375 24.125 C-46 23 -46 23 -48 21 C-48.01953125 19 -48.01953125 19 -47 17 C-44.32421875 15.9375 -44.32421875 15.9375 -40.6875 15 C-32.48126508 12.66233695 -25.68156087 8.49644622 -18.52807617 3.92578125 C-17.70799072 3.40628906 -16.88790527 2.88679688 -16.04296875 2.3515625 C-15.31102295 1.87541504 -14.57907715 1.39926758 -13.82495117 0.90869141 C-13.22271729 0.60882324 -12.6204834 0.30895508 -12 0 C-11.34 0.33 -10.68 0.66 -10 1 C-10 1.66 -10 2.32 -10 3 C-8.3603125 1.9790625 -8.3603125 1.9790625 -6.6875 0.9375 C-3.375 -1.125 -3.375 -1.125 0 0 Z " fill="#43D8FC" transform="translate(71,115)"/>
<path d="M0 0 C4.875 1.875 4.875 1.875 6 3 C6.50881319 8.28438846 6.50881319 8.28438846 4.6640625 10.87890625 C-2.87792599 17.10610365 -10.8268101 22.76435848 -18.80517578 28.41503906 C-21.71161835 30.51388502 -24.54481834 32.70351761 -27.36889648 34.91162109 C-29 36 -29 36 -31 36 C-30.4409112 32.75728494 -29.5867822 31.06942576 -27 29 C-26.34 29 -25.68 29 -25 29 C-25 28.34 -25 27.68 -25 27 C-25.66 27 -26.32 27 -27 27 C-27 26.01 -27 25.02 -27 24 C-28.98 24.33 -30.96 24.66 -33 25 C-31 23 -31 23 -27.78125 22.171875 C-23.64113273 20.8887808 -20.79782261 18.94830903 -17.5 16.25 C-16.93611572 15.80116455 -16.37223145 15.3523291 -15.79125977 14.88989258 C-14.18452305 13.60464218 -12.59088285 12.30478689 -11 11 C-10.25621094 10.40058594 -9.51242188 9.80117187 -8.74609375 9.18359375 C-5.39044174 6.40775203 -2.58013301 3.50898089 0 0 Z " fill="#56DBF9" transform="translate(147,70)"/>
<path d="M0 0 C2.72990453 1.2408657 4.2201411 2.56875284 6.0625 4.9375 C6.3125 7.6875 6.3125 7.6875 6.0625 9.9375 C6.64257812 9.80472656 7.22265625 9.67195313 7.8203125 9.53515625 C12.22020982 8.54045999 16.60144158 7.62381668 21.0625 6.9375 C19.91076645 9.40550047 19.01466435 10.98533565 17.0625 12.9375 C14.31764407 13.08257695 11.67769457 13.12402423 8.9375 13.0625 C8.18339844 13.05347656 7.42929687 13.04445313 6.65234375 13.03515625 C4.78892746 13.0115687 2.92567407 12.97569719 1.0625 12.9375 C1.0625 13.5975 1.0625 14.2575 1.0625 14.9375 C2.3825 14.9375 3.7025 14.9375 5.0625 14.9375 C4.7325 16.5875 4.4025 18.2375 4.0625 19.9375 C3.4025 19.6075 2.7425 19.2775 2.0625 18.9375 C2.3925 18.2775 2.7225 17.6175 3.0625 16.9375 C2.0725 16.9375 1.0825 16.9375 0.0625 16.9375 C-0.2675 17.5975 -0.5975 18.2575 -0.9375 18.9375 C-3.2475 18.9375 -5.5575 18.9375 -7.9375 18.9375 C-7.9375 18.2775 -7.9375 17.6175 -7.9375 16.9375 C-8.5975 17.2675 -9.2575 17.5975 -9.9375 17.9375 C-12.2704866 17.97772391 -14.60456666 17.98070247 -16.9375 17.9375 C-16.9375 17.6075 -16.9375 17.2775 -16.9375 16.9375 C-15.2875 16.6075 -13.6375 16.2775 -11.9375 15.9375 C-12.2675 15.2775 -12.5975 14.6175 -12.9375 13.9375 C-12.19251874 9.46761246 -11.65327487 7.48575309 -8 4.6875 C-6.989375 4.11 -5.97875 3.5325 -4.9375 2.9375 C-4.40125 2.339375 -3.865 1.74125 -3.3125 1.125 C-1.9375 -0.0625 -1.9375 -0.0625 0 0 Z " fill="#F8DE34" transform="translate(49.9375,49.0625)"/>
<path d="M0 0 C0.99 0 1.98 0 3 0 C3 0.66 3 1.32 3 2 C3.99 2 4.98 2 6 2 C6.33 2.99 6.66 3.98 7 5 C6.67 5.33 6.34 5.66 6 6 C5.7589857 8.89217162 5.91561608 10.78904021 7 13.5 C8.14139757 16.35349393 8.36052651 17.9490444 8 21 C6.25 23.45703125 6.25 23.45703125 4 25.8125 C3.2575 26.60269531 2.515 27.39289062 1.75 28.20703125 C1.1725 28.79871094 0.595 29.39039062 0 30 C0.495 30.61875 0.99 31.2375 1.5 31.875 C3 34 3 34 3 36 C1.02 36.495 1.02 36.495 -1 37 C-1 36.01 -1 35.02 -1 34 C-2.98 33.67 -4.96 33.34 -7 33 C-5.84826645 35.46800047 -4.95216435 37.04783565 -3 39 C-0.62644387 39.20515305 -0.62644387 39.20515305 2 39.0625 C6.80381471 38.90190736 6.80381471 38.90190736 9 40 C8.67 40.66 8.34 41.32 8 42 C6.515 41.505 6.515 41.505 5 41 C0.02629577 40.60100381 0.02629577 40.60100381 -4.4375 42.5 C-4.953125 42.995 -5.46875 43.49 -6 44 C-8.64 42.68 -11.28 41.36 -14 40 C-13.73799687 34.67260293 -13.73799687 34.67260293 -13 32 C-10.56990326 30.00607447 -9.16090285 29 -6 29 C-5.67 28.01 -5.34 27.02 -5 26 C-3.824375 25.319375 -3.824375 25.319375 -2.625 24.625 C0.49819594 22.69159299 1.44735507 21.31261632 3 18 C3.14800358 14.77179107 3.14800358 14.77179107 2.6875 11.4375 C2.30731644 7.90138408 2 4.56300264 2 1 C1.34 0.67 0.68 0.34 0 0 Z " fill="#F94F27" transform="translate(31,29)"/>
<path d="M0 0 C1.65 0 3.3 0 5 0 C5 0.66 5 1.32 5 2 C5.99 2.33 6.98 2.66 8 3 C8 5.64 8 8.28 8 11 C8.99 8.03 9.98 5.06 11 2 C12.24142712 6.96570849 11.37261666 9.15547062 10 14 C18.17952886 18.78728254 25.87432821 23.27830841 35 26 C35.495 26.99 35.495 26.99 36 28 C35.236875 28.12375 34.47375 28.2475 33.6875 28.375 C30.79732864 28.88102792 30.79732864 28.88102792 28 31 C27.01 30.67 26.02 30.34 25 30 C26.65 29.01 28.3 28.02 30 27 C28.37787941 26.47026689 26.75218416 25.95146893 25.125 25.4375 C24.22007813 25.14746094 23.31515625 24.85742188 22.3828125 24.55859375 C20.0019973 23.73252122 20.0019973 23.73252122 18 25 C15.64453125 23.85546875 15.64453125 23.85546875 12.8125 22.1875 C8.53945413 19.7642332 4.78140556 18.06253457 0 17 C-0.33 17.66 -0.66 18.32 -1 19 C-2.61113913 17.38886087 -2.17053725 15.65961964 -2.1875 13.4375 C-2.15301536 8.64413532 -1.3583238 4.58434282 0 0 Z " fill="#407DA3" transform="translate(69,67)"/>
<path d="M0 0 C0.33 0 0.66 0 1 0 C2.79217969 5.16569441 3.12029814 8.51053913 2 14 C2.99 14.33 3.98 14.66 5 15 C6.125 20.75 6.125 20.75 5 23 C6.32 23.66 7.64 24.32 9 25 C9 25.66 9 26.32 9 27 C10.36125 26.195625 10.36125 26.195625 11.75 25.375 C15 24 15 24 17.375 24.8125 C17.91125 25.204375 18.4475 25.59625 19 26 C16.6875 28.5 16.6875 28.5 14 31 C13.01 31 12.02 31 11 31 C10.67 31.66 10.34 32.32 10 33 C8.5 31.75 8.5 31.75 7 30 C7 28.68 7 27.36 7 26 C6.34 25.9175 5.68 25.835 5 25.75 C1.63771537 24.90942884 -1.0831169 23.5513467 -4.1328125 21.9375 C-6.1406578 20.87362707 -6.1406578 20.87362707 -9 20 C-9.9375 18.1875 -9.9375 18.1875 -10 16 C-9.40832031 15.42378906 -8.81664062 14.84757812 -8.20703125 14.25390625 C-5.63441633 11.62665172 -4.33281682 9.05952608 -2.75 5.75 C-2.22921875 4.67234375 -1.7084375 3.5946875 -1.171875 2.484375 C-0.78515625 1.66453125 -0.3984375 0.8446875 0 0 Z " fill="#1A4B6E" transform="translate(61,68)"/>
<path d="M0 0 C2.31 0.66 4.62 1.32 7 2 C7.33 4.31 7.66 6.62 8 9 C7.01 9 6.02 9 5 9 C5 9.66 5 10.32 5 11 C2.953125 12.65625 2.953125 12.65625 0.25 14.5 C-0.63171875 15.1084375 -1.5134375 15.716875 -2.421875 16.34375 C-6.38340675 18.88873404 -8.18622813 20 -13 20 C-13 19.34 -13 18.68 -13 18 C-13.66 18 -14.32 18 -15 18 C-15.20140476 14.37471432 -14.85776765 12.13498292 -13 9 C-12.34 9 -11.68 9 -11 9 C-10.67 7.68 -10.34 6.36 -10 5 C-9.34 5.33 -8.68 5.66 -8 6 C-4.86049226 4.38999603 -2.36595933 2.61500768 0 0 Z " fill="#C7A412" transform="translate(80,93)"/>
<path d="M0 0 C4 0 4 0 6.1875 2.0625 C8.27590524 5.44715677 8.69156996 8.06751693 9 12 C9.99 12 10.98 12 12 12 C10.59027312 13.94289282 9.17270125 15.87914266 7.75 17.8125 C7.35425781 18.35970703 6.95851563 18.90691406 6.55078125 19.47070312 C4.31472125 22.49488263 2.24477581 25.05313452 -1 27 C-3.75 27.1875 -3.75 27.1875 -6 27 C-6 26.34 -6 25.68 -6 25 C-5.34 24.67 -4.68 24.34 -4 24 C-3.34786708 21.97536745 -3.34786708 21.97536745 -3 20 C-3.928125 20.495 -4.85625 20.99 -5.8125 21.5 C-9 23 -9 23 -12 23 C-12 22.34 -12 21.68 -12 21 C-12.99 21 -13.98 21 -15 21 C-15 20.01 -15 19.02 -15 18 C-14.07767578 17.94392578 -14.07767578 17.94392578 -13.13671875 17.88671875 C-12.32847656 17.82097656 -11.52023438 17.75523438 -10.6875 17.6875 C-9.88699219 17.62949219 -9.08648437 17.57148438 -8.26171875 17.51171875 C-5.56847753 16.90236711 -4.75300242 16.08667049 -3 14 C-2.113125 13.05125 -1.22625 12.1025 -0.3125 11.125 C2.1658409 8.27471783 2.1658409 8.27471783 2.4375 5.3125 C2.10587613 2.73592345 2.10587613 2.73592345 0 0 Z " fill="#8A1407" transform="translate(46,8)"/>
<path d="M0 0 C2.078125 0.40625 2.078125 0.40625 4 1 C2.90241493 1.84198307 1.79664683 2.67330671 0.6875 3.5 C0.07261719 3.9640625 -0.54226562 4.428125 -1.17578125 4.90625 C-3 6 -3 6 -6 6 C-6.433125 6.9590625 -6.433125 6.9590625 -6.875 7.9375 C-8 10 -8 10 -10 11 C-14.08237637 13.90254166 -14.08237637 13.90254166 -16.85571289 17.89013672 C-18.18226475 20.336064 -19.55157551 21.50963268 -21.74609375 23.20703125 C-22.49584473 23.79081543 -23.2455957 24.37459961 -24.01806641 24.97607422 C-24.81647949 25.58209473 -25.61489258 26.18811523 -26.4375 26.8125 C-27.25138184 27.43398926 -28.06526367 28.05547852 -28.90380859 28.69580078 C-31.25830345 30.47908406 -33.6248436 32.24435877 -36 34 C-36.59216309 34.43973145 -37.18432617 34.87946289 -37.79443359 35.33251953 C-46.02025829 41.34043341 -46.02025829 41.34043341 -51.375 41.6875 C-55.35009196 40.93360325 -57.16458632 39.83541368 -60 37 C-59.67 36.34 -59.34 35.68 -59 35 C-58.319375 35.495 -57.63875 35.99 -56.9375 36.5 C-53.26072853 38.37750033 -51.10174113 38.3724918 -47 38 C-43.83465414 36.43155112 -43.83465414 36.43155112 -40.875 34.125 C-40.32948486 33.72804932 -39.78396973 33.33109863 -39.22192383 32.92211914 C-37.4657362 31.63424821 -35.73149923 30.32084446 -34 29 C-33.38592285 28.5354541 -32.7718457 28.0709082 -32.13916016 27.59228516 C-28.40082717 24.75997803 -24.69103635 21.89362752 -21 19 C-22.98 19.66 -24.96 20.32 -27 21 C-25.37660195 19.29115995 -23.70680947 17.62553283 -22 16 C-21.34 16 -20.68 16 -20 16 C-19.67 14.35 -19.34 12.7 -19 11 C-20.32 10.67 -21.64 10.34 -23 10 C-12.67765934 2.1378172 -12.67765934 2.1378172 -8.52734375 1.796875 C-6.67385421 2.14332164 -4.83502694 2.56626636 -3 3 C-1.2488427 1.5833253 -1.2488427 1.5833253 0 0 Z " fill="#55CFF0" transform="translate(92,119)"/>
<path d="M0 0 C2.4375 0.6875 2.4375 0.6875 5 2 C5.828125 4.34765625 5.828125 4.34765625 6 7 C2.29844919 14.03151736 -6.28160328 20.00235751 -13 24 C-13.99 23.67 -14.98 23.34 -16 23 C-16 22.01 -16 21.02 -16 20 C-17.32 20 -18.64 20 -20 20 C-18.47045718 15.41137154 -14.45722162 13.41285637 -10.66015625 10.671875 C-6.96493663 8.01509855 -6.96493663 8.01509855 -5 4 C-3.37667033 2.61423077 -1.71275535 1.27358732 0 0 Z " fill="#65D7F6" transform="translate(123,66)"/>
<path d="M0 0 C3.875 2.625 3.875 2.625 5 6 C5.66 6.33 6.32 6.66 7 7 C7 7.66 7 8.32 7 9 C7.66 9 8.32 9 9 9 C9 9.66 9 10.32 9 11 C9.99 10.67 10.98 10.34 12 10 C14.475 14.455 14.475 14.455 17 19 C12.68786451 25.14479307 7.87626159 31.5618692 1 35 C-0.87379605 35.07033769 -2.75001102 35.0843022 -4.625 35.0625 C-5.62789062 35.05347656 -6.63078125 35.04445312 -7.6640625 35.03515625 C-8.43492188 35.02355469 -9.20578125 35.01195312 -10 35 C-10 34.67 -10 34.34 -10 34 C-8.7625 33.938125 -7.525 33.87625 -6.25 33.8125 C-2.69449876 33.39643071 -2.15360875 33.15744896 0.5 30.4375 C0.995 29.633125 1.49 28.82875 2 28 C1.34 27.67 0.68 27.34 0 27 C0.56589844 26.79246094 1.13179687 26.58492187 1.71484375 26.37109375 C4.01502051 25.40493866 5.98535502 24.47797423 8 23 C9.13956727 19.37346335 9.13956727 19.37346335 9 16 C7.68 17.32 6.36 18.64 5 20 C4.67 18.35 4.34 16.7 4 15 C3.34 15.66 2.68 16.32 2 17 C1.05331513 14.1599454 0.92014518 12.54968291 1 9.625 C1.04378031 6.27033353 0.84373291 3.26946503 0 0 Z " fill="#A0250F" transform="translate(69,28)"/>
<path d="M0 0 C0.66 0 1.32 0 2 0 C2.33 0.66 2.66 1.32 3 2 C3.9075 2.2475 4.815 2.495 5.75 2.75 C10.05938752 4.40745674 11.33350057 6.2669008 14 10 C14.33 10.99 14.66 11.98 15 13 C16.65756264 14.27718707 16.65756264 14.27718707 18.6875 15.375 C22.44864185 17.61297961 25.66582216 20.15205643 29 23 C30.30976864 23.94131217 31.62244668 24.87858498 32.9375 25.8125 C38.13167546 29.6781652 43.83420591 34.35940073 45 41 C44.01 41.33 43.02 41.66 42 42 C40.25728062 39.702779 38.60088848 37.40133271 37 35 C36.34 35 35.68 35 35 35 C35 34.34 35 33.68 35 33 C34.34 33 33.68 33 33 33 C33 32.34 33 31.68 33 31 C32.01 30.67 31.02 30.34 30 30 C28.3125 27.4375 28.3125 27.4375 27 25 C27.24556641 25.84304687 27.24556641 25.84304687 27.49609375 26.703125 C28.02864997 29.13059056 28.09898681 31.26889681 28.0625 33.75 C28.05347656 34.54921875 28.04445313 35.3484375 28.03515625 36.171875 C28.02355469 36.77515625 28.01195313 37.3784375 28 38 C26.25775652 34.74684828 25.42129018 31.60983936 24.5546875 28.0234375 C23.07827458 22.63764953 20.8455888 18.88427905 16 16 C13.24875747 16.13149826 13.24875747 16.13149826 11 17 C10.896875 15.741875 10.79375 14.48375 10.6875 13.1875 C10.30390844 9.86042583 10.30390844 9.86042583 8.4375 7.125 C7.963125 6.75375 7.48875 6.3825 7 6 C7 5.34 7 4.68 7 4 C6.01 4.33 5.02 4.66 4 5 C2.78130071 7.50447516 2.78130071 7.50447516 2 10 C1.01 9.34 0.02 8.68 -1 8 C-0.67 5.36 -0.34 2.72 0 0 Z " fill="#E77C6F" transform="translate(43,4)"/>
<path d="M0 0 C3.92113913 2.58628326 6.41099274 4.59766345 7.625 9.25 C7.78515625 11.57421875 7.78515625 11.57421875 7 14 C3.34198487 17.5927905 -0.65565824 20.30153221 -5 23 C-6.65 22.01 -8.3 21.02 -10 20 C-9.34 18.68 -8.68 17.36 -8 16 C-7.01 16 -6.02 16 -5 16 C-5.825 15.54625 -6.65 15.0925 -7.5 14.625 C-8.7375 13.820625 -8.7375 13.820625 -10 13 C-10 12.34 -10 11.68 -10 11 C-8.3203125 9.921875 -8.3203125 9.921875 -6.125 8.75 C-2.87893178 6.82874054 -2.1218444 6.26907304 -0.5 2.6875 C-0.335 1.800625 -0.17 0.91375 0 0 Z " fill="#D5B014" transform="translate(108,90)"/>
<path d="M0 0 C4.875 1.875 4.875 1.875 6 3 C6.50881319 8.28438846 6.50881319 8.28438846 4.6640625 10.87890625 C-2.87792599 17.10610365 -10.8268101 22.76435848 -18.80517578 28.41503906 C-21.71161835 30.51388502 -24.54481834 32.70351761 -27.36889648 34.91162109 C-29 36 -29 36 -31 36 C-30.42655063 33.13275314 -30.1385485 32.1385485 -28 30 C-26.96875 29.5875 -25.9375 29.175 -24.875 28.75 C-20.44235331 26.93028189 -16.50473259 24.26804935 -13 21 C-13 20.34 -13 19.68 -13 19 C-11.68 18.67 -10.36 18.34 -9 18 C-9 17.34 -9 16.68 -9 16 C-7.02 15.67 -5.04 15.34 -3 15 C-3.33 14.34 -3.66 13.68 -4 13 C-4.99 13 -5.98 13 -7 13 C-6.51789063 12.60167969 -6.03578125 12.20335938 -5.5390625 11.79296875 C-4.90742188 11.26316406 -4.27578125 10.73335937 -3.625 10.1875 C-2.99851563 9.66542969 -2.37203125 9.14335938 -1.7265625 8.60546875 C0.2221048 6.91774261 0.2221048 6.91774261 2 4 C1.34 3.67 0.68 3.34 0 3 C0 2.01 0 1.02 0 0 Z " fill="#5ED3F0" transform="translate(147,70)"/>
<path d="M0 0 C1 3 1 3 0.375 4.9375 C-1.36682788 7.55024181 -3.48604256 9.14761031 -6 11 C-4.35 10.34 -2.7 9.68 -1 9 C-6.19702187 14.5119929 -11.10866081 19.42258494 -19 20 C-16.375 13.25 -16.375 13.25 -13 11 C-13.33 10.34 -13.66 9.68 -14 9 C-7.23122318 2.04828326 -7.23122318 2.04828326 -2.8125 1.875 C-1.884375 1.91625 -0.95625 1.9575 0 2 C0 1.34 0 0.68 0 0 Z " fill="#48DEFC" transform="translate(73,128)"/>
<path d="M0 0 C0.66 0.33 1.32 0.66 2 1 C2 1.99 2 2.98 2 4 C-0.35901729 5.84724076 -2.68483739 7.49367882 -5.1875 9.125 C-6.64995569 10.10254135 -8.11219184 11.08041122 -9.57421875 12.05859375 C-10.68289307 12.79311768 -10.68289307 12.79311768 -11.81396484 13.54248047 C-15.0723379 15.71497177 -18.28651725 17.94938452 -21.5 20.1875 C-22.5621875 20.92355469 -23.624375 21.65960938 -24.71875 22.41796875 C-25.4715625 22.94003906 -26.224375 23.46210937 -27 24 C-27 23.01 -27 22.02 -27 21 C-24 18.8125 -24 18.8125 -21 17 C-22.11375 17.4640625 -22.11375 17.4640625 -23.25 17.9375 C-25.50692176 18.8094925 -27.6450153 19.47667007 -30 20 C-30.66 18.35 -31.32 16.7 -32 15 C-30.25 13.4375 -30.25 13.4375 -28 12 C-25.75 12.3125 -25.75 12.3125 -24 13 C-24 13.66 -24 14.32 -24 15 C-18.33843539 13.18021138 -14.26773959 10.97617723 -9.6640625 7.20703125 C-8 6 -8 6 -6 6 C-6 5.34 -6 4.68 -6 4 C-4.36368108 2.95107762 -2.69514137 1.95093297 -1 1 C-0.67 0.67 -0.34 0.34 0 0 Z " fill="#5E8D9D" transform="translate(91,98)"/>
<path d="M0 0 C6.19313479 1.08134099 10.67112164 2.65618977 15.95703125 6.07421875 C18.49890065 7.22607926 19.37395026 6.71573717 22 6 C24.359375 6.55859375 24.359375 6.55859375 26.75 7.4375 C27.54921875 7.72496094 28.3484375 8.01242188 29.171875 8.30859375 C30.07679687 8.65083984 30.07679687 8.65083984 31 9 C29.5625 11.0625 29.5625 11.0625 27 13 C21.42519432 13.42368523 16.09812743 11.55109074 10.9453125 9.62109375 C8.86403097 8.84792451 8.86403097 8.84792451 6 9 C4 7.1875 4 7.1875 2 5 C1.4225 4.4225 0.845 3.845 0.25 3.25 C-0.1625 2.8375 -0.575 2.425 -1 2 C-0.67 1.34 -0.34 0.68 0 0 Z " fill="#25658C" transform="translate(69,84)"/>
<path d="M0 0 C0.66 0.33 1.32 0.66 2 1 C1.74279326 2.58560393 1.46861201 4.16845924 1.1875 5.75 C1.03667969 6.63171875 0.88585938 7.5134375 0.73046875 8.421875 C-0.06294257 11.22215024 -1.02747718 12.87345147 -3 15 C-3.66 15 -4.32 15 -5 15 C-4.67 16.32 -4.34 17.64 -4 19 C-2.94232422 19.16822266 -2.94232422 19.16822266 -1.86328125 19.33984375 C1.27389512 20.06314908 3.90127906 21.19457691 6.8125 22.5625 C7.78832031 23.01753906 8.76414062 23.47257812 9.76953125 23.94140625 C10.50558594 24.29074219 11.24164063 24.64007813 12 25 C11.67 26.32 11.34 27.64 11 29 C10.67 28.01 10.34 27.02 10 26 C7.43957934 24.96961044 7.43957934 24.96961044 4.4375 24.3125 C3.42558594 24.06113281 2.41367187 23.80976562 1.37109375 23.55078125 C0.58863281 23.36902344 -0.19382812 23.18726562 -1 23 C-1 22.34 -1 21.68 -1 21 C-1.78375 20.71125 -2.5675 20.4225 -3.375 20.125 C-6 19 -6 19 -8 17 C-8.66065191 12.05482616 -8.30905137 7.47378703 -6 3 C-7.65 2.67 -9.3 2.34 -11 2 C-11 1.67 -11 1.34 -11 1 C-8.69 1 -6.38 1 -4 1 C-4 1.99 -4 2.98 -4 4 C-2.68 2.68 -1.36 1.36 0 0 Z " fill="#7FA1B7" transform="translate(56,69)"/>
<path d="M0 0 C0.33 0.66 0.66 1.32 1 2 C0.0625 4.125 0.0625 4.125 -1 6 C-1.66 6 -2.32 6 -3 6 C-3 6.66 -3 7.32 -3 8 C1.455 7.505 1.455 7.505 6 7 C5.39301257 11.12751449 3.96189209 14.3321148 2 18 C-0.25 18.3125 -0.25 18.3125 -3 18 C-5.55689608 15.58131452 -6.871432 14.02854398 -7.3125 10.5 C-7.209375 9.675 -7.10625 8.85 -7 8 C-6.95875 7.13375 -6.9175 6.2675 -6.875 5.375 C-6 3 -6 3 -2.9375 1.1875 C-1.4834375 0.5996875 -1.4834375 0.5996875 0 0 Z " fill="#FA5D29" transform="translate(43,27)"/>
<path d="M0 0 C3.29249253 0.47360211 6.58382638 0.95482447 9.875 1.4375 C10.81214844 1.57220703 11.74929687 1.70691406 12.71484375 1.84570312 C13.61074219 1.97783203 14.50664063 2.10996094 15.4296875 2.24609375 C16.25710449 2.36654053 17.08452148 2.4869873 17.93701172 2.61108398 C20 3 20 3 22 4 C22.33 3.01 22.66 2.02 23 1 C25.475 1.495 25.475 1.495 28 2 C28 2.99 28 3.98 28 5 C29.32 5.66 30.64 6.32 32 7 C30.68 7 29.36 7 28 7 C27.67 7.99 27.34 8.98 27 10 C26.01 10.33 25.02 10.66 24 11 C22.5 9.625 22.5 9.625 21 8 C21 7.34 21 6.68 21 6 C20.41734375 6.01160156 19.8346875 6.02320312 19.234375 6.03515625 C12.43987745 6.10993846 5.76107745 5.65055041 -1 5 C-0.67 3.35 -0.34 1.7 0 0 Z " fill="#918B8B" transform="translate(88,65)"/>
<path d="M0 0 C2.97 0.495 2.97 0.495 6 1 C6 1.99 6 2.98 6 4 C6.65597168 4.05534912 7.31194336 4.11069824 7.98779297 4.16772461 C10.95057273 4.42009399 13.91277374 4.67871815 16.875 4.9375 C17.90753906 5.02451172 18.94007812 5.11152344 20.00390625 5.20117188 C20.99003906 5.28818359 21.97617187 5.37519531 22.9921875 5.46484375 C23.90339355 5.543396 24.81459961 5.62194824 25.75341797 5.70288086 C28 6 28 6 30 7 C30.33 5.35 30.66 3.7 31 2 C33.31 2.33 35.62 2.66 38 3 C37.42365861 7.75481646 35.44931479 10.97048212 33 15 C31.66667905 12.3333581 32.32897967 10.83319697 33 8 C32.67 8.33 32.34 8.66 32 9 C30.67479497 9.68268138 29.34187818 10.3507041 28 11 C28 10.01 28 9.02 28 8 C26.73542969 8.01740234 26.73542969 8.01740234 25.4453125 8.03515625 C24.34960938 8.04417969 23.25390625 8.05320312 22.125 8.0625 C20.48917969 8.07990234 20.48917969 8.07990234 18.8203125 8.09765625 C16 8 16 8 14 7 C11.20358782 7.04813855 8.42106058 7.1955984 5.62890625 7.35546875 C3 7 3 7 1.15234375 5.17578125 C0 3 0 3 0 0 Z " fill="#476C88" transform="translate(24,62)"/>
<path d="M0 0 C2.97 1.98 5.94 3.96 9 6 C8 11 8 11 6.0625 12.8125 C4 14 4 14 2 14 C2.061875 14.78375 2.12375 15.5675 2.1875 16.375 C2.125625 17.24125 2.06375 18.1075 2 19 C-1 21 -1 21 -3.0625 20.875 C-5.57283417 19.7413007 -6.02691202 18.51381062 -7 16 C-6.34 16 -5.68 16 -5 16 C-4.7525 15.4225 -4.505 14.845 -4.25 14.25 C-3 12 -3 12 -0.875 10.0625 C1.23317815 8.14279087 1.23317815 8.14279087 1.3125 5.4375 C1.06249753 2.86578949 1.06249753 2.86578949 0 0 Z " fill="#9D1707" transform="translate(37,42)"/>
<path d="M0 0 C4.29 0.33 8.58 0.66 13 1 C13 2.32 13 3.64 13 5 C15.31 5.33 17.62 5.66 20 6 C20 6.66 20 7.32 20 8 C18.7625 7.896875 17.525 7.79375 16.25 7.6875 C14.05583036 7.60549727 14.05583036 7.60549727 12 8 C9.66369252 10.39859044 9.66369252 10.39859044 8 13 C7.01 13 6.02 13 5 13 C5.33 10.03 5.66 7.06 6 4 C5.01 7.3 4.02 10.6 3 14 C2.67 14 2.34 14 2 14 C2 10.37 2 6.74 2 3 C1.34 2.67 0.68 2.34 0 2 C0 1.34 0 0.68 0 0 Z " fill="#1B4C6F" transform="translate(74,67)"/>
<path d="M0 0 C0 12 0 12 -1.25 13.6875 C-3 15 -3 15 -7 15 C-7 14.34 -7 13.68 -7 13 C-8.65 13 -10.3 13 -12 13 C-12.3125 10.8125 -12.3125 10.8125 -12 8 C-9.5 5.3125 -9.5 5.3125 -7 3 C-7 2.34 -7 1.68 -7 1 C-4 0 -4 0 0 0 Z " fill="#333333" transform="translate(43,3)"/>
<path d="M0 0 C0.66 0.33 1.32 0.66 2 1 C2.21192221 6.19209404 1.5912689 10.126739 0 15 C-4.29 14.34 -8.58 13.68 -13 13 C-13 12.34 -13 11.68 -13 11 C-11.171875 9.4140625 -11.171875 9.4140625 -8.75 7.625 C-5.576007 5.27043656 -2.73926438 2.85235328 0 0 Z " fill="#30698D" transform="translate(83,51)"/>
<path d="M0 0 C0.33 0 0.66 0 1 0 C1.66 2.97 2.32 5.94 3 9 C4.32 7.68 5.64 6.36 7 5 C6.85979513 7.85083233 6.72722601 10.27018894 6 13 C3.9375 14.75 3.9375 14.75 1 16 C0.36191406 16.34933594 -0.27617188 16.69867188 -0.93359375 17.05859375 C-4.72534677 19.13008075 -7.56009437 20.5549882 -12 20 C-11.10698344 18.93513145 -10.2104053 17.87324959 -9.3125 16.8125 C-8.76851562 16.16796875 -8.22453125 15.5234375 -7.6640625 14.859375 C-6 13 -6 13 -3.1875 10.5625 C-0.17043931 7.0282289 -0.23301771 4.58268164 0 0 Z " fill="#831307" transform="translate(72,38)"/>
<path d="M0 0 C1.65 0 3.3 0 5 0 C6.27947184 6.65941972 5.81115003 10.81546992 3 17 C2.01 17 1.02 17 0 17 C-0.33 17.66 -0.66 18.32 -1 19 C-2.61113913 17.38886087 -2.17053725 15.65961964 -2.1875 13.4375 C-2.15301536 8.64413532 -1.3583238 4.58434282 0 0 Z " fill="#3F7AA4" transform="translate(69,67)"/>
<path d="M0 0 C0.66 0.33 1.32 0.66 2 1 C2.55691578 4.78702733 2.07016014 5.90450425 -0.25 9.0625 C-1.16355442 10.044571 -2.08006357 11.02390466 -3 12 C-3.5775 12.78375 -4.155 13.5675 -4.75 14.375 C-8.24963144 16.9025116 -11.82148204 16.32142446 -16 16 C-16.33 16.99 -16.66 17.98 -17 19 C-17.99 18.34 -18.98 17.68 -20 17 C-20 16.34 -20 15.68 -20 15 C-18.02 14.67 -16.04 14.34 -14 14 C-13.67 13.01 -13.34 12.02 -13 11 C-12.34 11 -11.68 11 -11 11 C-11 10.34 -11 9.68 -11 9 C-8 9 -8 9 -6.3125 10.5 C-5.879375 10.995 -5.44625 11.49 -5 12 C-5.103125 10.948125 -5.20625 9.89625 -5.3125 8.8125 C-5 5 -5 5 -2.5 2.0625 C-1.675 1.381875 -0.85 0.70125 0 0 Z " fill="#ACC9D2" transform="translate(47,10)"/>
<path d="M0 0 C-0.95043374 1.33897583 -1.91059147 2.67105427 -2.875 4 C-3.40867187 4.7425 -3.94234375 5.485 -4.4921875 6.25 C-4.98976563 6.8275 -5.48734375 7.405 -6 8 C-6.66 8 -7.32 8 -8 8 C-8 9.98 -8 11.96 -8 14 C-9.98 14.66 -11.96 15.32 -14 16 C-14.66615259 12.9726333 -15.12504629 10.10531628 -15 7 C-10.77172563 1.32203156 -6.91341149 -0.31424598 0 0 Z " fill="#545657" transform="translate(39,3)"/>
<path d="M0 0 C2.96175123 0.61277612 4.38058783 1.25372522 7 3 C7 3.66 7 4.32 7 5 C7.66 5 8.32 5 9 5 C11.27678571 13.03571429 11.27678571 13.03571429 10 17 C7.66666667 12.33333333 5.33333333 7.66666667 3 3 C2.67 3 2.34 3 2 3 C2.30798326 4.48011371 2.621518 5.95907325 2.9375 7.4375 C3.11152344 8.26121094 3.28554688 9.08492187 3.46484375 9.93359375 C3.80752994 11.97661204 3.80752994 11.97661204 5 13 C5.04092937 15.33297433 5.04241723 17.66705225 5 20 C4.071875 20.12375 4.071875 20.12375 3.125 20.25 C0.82530563 20.78131326 0.82530563 20.78131326 0.0625 22.9375 C-1 25 -1 25 -3.625 26.25 C-4.40875 26.4975 -5.1925 26.745 -6 27 C-6.66 26.01 -7.32 25.02 -8 24 C-6.906875 23.731875 -5.81375 23.46375 -4.6875 23.1875 C-0.58301409 22.01576549 -0.58301409 22.01576549 2 19 C1.68713652 17.32936978 1.34865734 15.66352846 1 14 C0.78301513 11.56494763 0.59709255 9.12698616 0.4375 6.6875 C0.31181641 4.80611328 0.31181641 4.80611328 0.18359375 2.88671875 C0.12300781 1.93410156 0.06242187 0.98148438 0 0 Z " fill="#B82F15" transform="translate(59,25)"/>
<path d="M0 0 C-0.72316406 0.47179687 -0.72316406 0.47179687 -1.4609375 0.953125 C-2.09257813 1.38109375 -2.72421875 1.8090625 -3.375 2.25 C-4.31472656 2.87648438 -4.31472656 2.87648438 -5.2734375 3.515625 C-7.10202501 4.88772627 -7.10202501 4.88772627 -7.91796875 6.90234375 C-9.40099124 9.77737292 -11.42648101 11.29557285 -13.9375 13.3125 C-14.81277344 14.03050781 -15.68804687 14.74851563 -16.58984375 15.48828125 C-17.38519531 15.98714844 -18.18054687 16.48601562 -19 17 C-19.99 16.67 -20.98 16.34 -22 16 C-21.67 14.68 -21.34 13.36 -21 12 C-20.236875 11.896875 -19.47375 11.79375 -18.6875 11.6875 C-15.82940576 10.95635961 -14.84257115 10.23048087 -13 8 C-15.31 7.34 -17.62 6.68 -20 6 C-17.45543849 3.03134491 -14.51005335 1.6380249 -11 0 C-10.67 0.99 -10.34 1.98 -10 3 C-8.3603125 1.9790625 -8.3603125 1.9790625 -6.6875 0.9375 C-3.375 -1.125 -3.375 -1.125 0 0 Z " fill="#61CEEC" transform="translate(71,115)"/>
<path d="M0 0 C0.66 0 1.32 0 2 0 C4.22477269 6.80518706 5.32468845 15.35062311 2 22 C0.35 21.67 -1.3 21.34 -3 21 C-2.9278125 20.02417969 -2.855625 19.04835938 -2.78125 18.04296875 C-2.6884375 16.77066406 -2.595625 15.49835937 -2.5 14.1875 C-2.4071875 12.92292969 -2.314375 11.65835938 -2.21875 10.35546875 C-2.08085219 8.24021483 -2 6.11974408 -2 4 C-1 1.8125 -1 1.8125 0 0 Z " fill="#2C4F6D" transform="translate(86,45)"/>
<path d="M0 0 C1.70884005 1.62339805 3.37446717 3.29319053 5 5 C5 5.66 5 6.32 5 7 C3.68 7.33 2.36 7.66 1 8 C1 7.01 1 6.02 1 5 C-1.97 4.505 -1.97 4.505 -5 4 C-3.84826645 6.46800047 -2.95216435 8.04783565 -1 10 C1.37355613 10.20515305 1.37355613 10.20515305 4 10.0625 C8.80381471 9.90190736 8.80381471 9.90190736 11 11 C10.67 11.66 10.34 12.32 10 13 C9.01 12.67 8.02 12.34 7 12 C2.02629577 11.60100381 2.02629577 11.60100381 -2.4375 13.5 C-2.953125 13.995 -3.46875 14.49 -4 15 C-5.98 13.68 -7.96 12.36 -10 11 C-9.67 9.35 -9.34 7.7 -9 6 C-8.34 6 -7.68 6 -7 6 C-6.34 4.68 -5.68 3.36 -5 2 C-3.35 2 -1.7 2 0 2 C0 1.34 0 0.68 0 0 Z " fill="#968963" transform="translate(29,58)"/>
<path d="M0 0 C0.99 0.33 1.98 0.66 3 1 C2.25 3.4375 2.25 3.4375 1 6 C-0.75 6.5625 -0.75 6.5625 -3 7 C-3.886875 7.680625 -4.77375 8.36125 -5.6875 9.0625 C-9.96139865 11.56232751 -13.17501979 11.38599842 -18 11 C-18.66 9.35 -19.32 7.7 -20 6 C-19.34 5.67 -18.68 5.34 -18 5 C-18 5.66 -18 6.32 -18 7 C-17.13375 6.690625 -16.2675 6.38125 -15.375 6.0625 C-12 5 -12 5 -9 4.625 C-5.79989518 4.15308372 -5.79989518 4.15308372 -2.8125 1.875 C-1.884375 1.25625 -0.95625 0.6375 0 0 Z " fill="#41D2F9" transform="translate(48,128)"/>
<path d="M0 0 C0.66 0 1.32 0 2 0 C4.01167675 5.78357065 4.22084624 10.90218999 4 17 C4.66 17.33 5.32 17.66 6 18 C5.01 18.33 4.02 18.66 3 19 C2.71125 19.66 2.4225 20.32 2.125 21 C1 23 1 23 -1.625 23.75 C-2.40875 23.8325 -3.1925 23.915 -4 24 C-2.25 19.125 -2.25 19.125 0 18 C-0.16757812 16.95199219 -0.33515625 15.90398438 -0.5078125 14.82421875 C-0.71416547 13.44540571 -0.91986038 12.06649408 -1.125 10.6875 C-1.23714844 9.99720703 -1.34929688 9.30691406 -1.46484375 8.59570312 C-2.2265625 3.33984375 -2.2265625 3.33984375 0 0 Z " fill="#EF4C26" transform="translate(55,25)"/>
<path d="M0 0 C4.75 0.875 4.75 0.875 7 2 C7 2.66 7 3.32 7 4 C7.70769531 4.13277344 8.41539063 4.26554687 9.14453125 4.40234375 C13.00887407 5.21115969 16.77658165 6.30487898 20.57421875 7.37890625 C22.90557828 8.08267918 22.90557828 8.08267918 25 8 C25 9.65 25 11.3 25 13 C18.5087097 12.57649625 14.13495328 10.90719056 8.5625 7.625 C7.84384766 7.22539063 7.12519531 6.82578125 6.38476562 6.4140625 C1.13295239 3.39885717 1.13295239 3.39885717 0 0 Z " fill="#1F5E84" transform="translate(78,79)"/>
<path d="M0 0 C-1.07774953 3.2332486 -1.56252826 3.70083009 -4.17578125 5.63671875 C-4.83320312 6.12817383 -5.490625 6.61962891 -6.16796875 7.12597656 C-6.87566406 7.6412793 -7.58335938 8.15658203 -8.3125 8.6875 C-9.034375 9.21698242 -9.75625 9.74646484 -10.5 10.29199219 C-11.96770949 11.36290057 -13.43857261 12.42950052 -14.91259766 13.49169922 C-16.77052534 14.83418778 -18.6106229 16.19767984 -20.44921875 17.56640625 C-28.69359281 23.46730907 -28.69359281 23.46730907 -33.4375 23.75 C-37.33482508 22.92951051 -39.205267 21.794733 -42 19 C-41.67 18.34 -41.34 17.68 -41 17 C-40.319375 17.495 -39.63875 17.99 -38.9375 18.5 C-35.26322591 20.37622507 -33.09866541 20.36827332 -29 20 C-25.86835396 18.46666343 -25.86835396 18.46666343 -22.9375 16.1875 C-22.39311279 15.79312744 -21.84872559 15.39875488 -21.2878418 14.99243164 C-16.24477479 11.29848363 -11.33977061 7.40393916 -6.49389648 3.45581055 C-2.21042086 0 -2.21042086 0 0 0 Z " fill="#748D99" transform="translate(74,137)"/>
<path d="M0 0 C13.68090776 0.31270646 26.62866615 2.11134223 40 5 C40 5.33 40 5.66 40 6 C26.71059624 6.7716428 12.99421565 4.69773587 0 2 C0 1.34 0 0.68 0 0 Z " fill="#342F2A" transform="translate(51,62)"/>
<path d="M0 0 C2.0625 0.4375 2.0625 0.4375 4 1 C4.33 2.32 4.66 3.64 5 5 C2.83125748 4.49396008 1.00032373 4.00016187 -1 3 C-0.236875 3.763125 0.52625 4.52625 1.3125 5.3125 C3.20833333 7.20833333 5.10416667 9.10416667 7 11 C4.80566266 12.95052208 3.34486324 13.93270961 0.4375 14.5 C-2 14 -2 14 -4.0625 12 C-5.15704246 8.49746413 -4.81593945 7.91604485 -3.25 4.75 C-1.31034483 1.31034483 -1.31034483 1.31034483 0 0 Z " fill="#F4EC77" transform="translate(93,103)"/>
<path d="M0 0 C3.875 2.625 3.875 2.625 5 6 C5.66 6.33 6.32 6.66 7 7 C7 7.66 7 8.32 7 9 C7.66 9 8.32 9 9 9 C9 9.66 9 10.32 9 11 C9.99 10.67 10.98 10.34 12 10 C13.65 12.97 15.3 15.94 17 19 C16.01 19.99 15.02 20.98 14 22 C11.5705484 18.3558226 11.83820425 16.28758728 12 12 C11.34 12 10.68 12 10 12 C10 12.66 10 13.32 10 14 C9.01 13.67 8.02 13.34 7 13 C7 12.34 7 11.68 7 11 C6.01 11 5.02 11 4 11 C3.67 12.98 3.34 14.96 3 17 C2.34 16.67 1.68 16.34 1 16 C1.01160156 15.26394531 1.02320312 14.52789062 1.03515625 13.76953125 C1.04417969 12.79371094 1.05320312 11.81789063 1.0625 10.8125 C1.07410156 9.84957031 1.08570312 8.88664062 1.09765625 7.89453125 C1.00486622 5.14423487 0.62111685 2.67520409 0 0 Z " fill="#C34730" transform="translate(69,28)"/>
<path d="M0 0 C0.8125 1.6875 0.8125 1.6875 1 4 C-2.41668496 8.3776276 -5.94635146 10.11726819 -11 12 C-11.33 11.34 -11.66 10.68 -12 10 C-13.32 10.33 -14.64 10.66 -16 11 C-16 10.34 -16 9.68 -16 9 C-16.99 9.66 -17.98 10.32 -19 11 C-19.33 9.35 -19.66 7.7 -20 6 C-18.98679687 6.16048828 -18.98679687 6.16048828 -17.953125 6.32421875 C-16.61507812 6.50404297 -16.61507812 6.50404297 -15.25 6.6875 C-14.36828125 6.81511719 -13.4865625 6.94273438 -12.578125 7.07421875 C-9.4196057 6.98329168 -8.38225896 5.97152466 -6 4 C-3.75 4.3125 -3.75 4.3125 -2 5 C-2 3.68 -2 2.36 -2 1 C-1.34 0.67 -0.68 0.34 0 0 Z " fill="#346681" transform="translate(107,90)"/>
<path d="M0 0 C0.66 0 1.32 0 2 0 C2.66 3.96 3.32 7.92 4 12 C3.01 12.33 2.02 12.66 1 13 C-0.20882096 15.00016466 -0.20882096 15.00016466 -1 17 C-2.32 16.67 -3.64 16.34 -5 16 C-4.34309381 12.21760329 -3.279869 8.78158474 -1.9375 5.1875 C-1.57527344 4.21167969 -1.21304688 3.23585937 -0.83984375 2.23046875 C-0.42412109 1.12638672 -0.42412109 1.12638672 0 0 Z " fill="#D83516" transform="translate(52,31)"/>
<path d="M0 0 C0 1.32 0 2.64 0 4 C-1.32 4 -2.64 4 -4 4 C-4 4.66 -4 5.32 -4 6 C-2.68 6 -1.36 6 0 6 C-0.33 7.65 -0.66 9.3 -1 11 C-1.66 10.67 -2.32 10.34 -3 10 C-2.67 9.34 -2.34 8.68 -2 8 C-2.99 8 -3.98 8 -5 8 C-5.33 8.66 -5.66 9.32 -6 10 C-8.31 10 -10.62 10 -13 10 C-13 9.34 -13 8.68 -13 8 C-13.99 8.495 -13.99 8.495 -15 9 C-17.3329866 9.04022391 -19.66706666 9.04320247 -22 9 C-22 8.67 -22 8.34 -22 8 C-18.7 7.34 -15.4 6.68 -12 6 C-12 5.34 -12 4.68 -12 4 C-10.68 4 -9.36 4 -8 4 C-1.75 0 -1.75 0 0 0 Z " fill="#D3B84E" transform="translate(55,58)"/>
<path d="M0 0 C2.97397616 0.27036147 3.85446026 0.85446026 6 3 C6 3.99 6 4.98 6 6 C3.03824877 5.38722388 1.61941217 4.74627478 -1 3 C-1.144375 4.299375 -1.28875 5.59875 -1.4375 6.9375 C-1.875 10.875 -1.875 10.875 -3 12 C-4.99958364 12.04080783 -7.00045254 12.04254356 -9 12 C-9.375 9.75 -9.375 9.75 -9 7 C-6.1875 4.875 -6.1875 4.875 -3 3 C-2.46375 2.401875 -1.9275 1.80375 -1.375 1.1875 C-0.92125 0.795625 -0.4675 0.40375 0 0 Z " fill="#FCF656" transform="translate(48,49)"/>
<path d="M0 0 C0 0.66 0 1.32 0 2 C-1.52539062 3.32519531 -1.52539062 3.32519531 -3.65625 4.828125 C-4.43226563 5.38113281 -5.20828125 5.93414062 -6.0078125 6.50390625 C-6.83023438 7.08011719 -7.65265625 7.65632813 -8.5 8.25 C-10.09426233 9.37948553 -11.68801569 10.50968983 -13.28125 11.640625 C-14.06628906 12.19427734 -14.85132813 12.74792969 -15.66015625 13.31835938 C-18.62545446 15.44951276 -21.5134193 17.67403474 -24.38867188 19.92480469 C-26 21 -26 21 -28 21 C-27.42655063 18.13275314 -27.1385485 17.1385485 -25 15 C-23.96875 14.5875 -22.9375 14.175 -21.875 13.75 C-17.44235331 11.93028189 -13.50473259 9.26804935 -10 6 C-10 5.34 -10 4.68 -10 4 C-8.68 3.67 -7.36 3.34 -6 3 C-6 2.34 -6 1.68 -6 1 C-3.92446352 0.4465236 -2.15634036 0 0 0 Z " fill="#748A96" transform="translate(144,85)"/>
<path d="M0 0 C1.98 1.65 3.96 3.3 6 5 C5.01 5.495 5.01 5.495 4 6 C3.34 5.67 2.68 5.34 2 5 C0.13448574 8.58752742 -1.42535928 12.27812193 -3 16 C-5.9375 15.1875 -5.9375 15.1875 -9 14 C-9.33 13.01 -9.66 12.02 -10 11 C-9.16855469 10.56300781 -9.16855469 10.56300781 -8.3203125 10.1171875 C-3.4210148 7.38113153 -3.4210148 7.38113153 -0.5 2.6875 C-0.335 1.800625 -0.17 0.91375 0 0 Z " fill="#E8C727" transform="translate(108,90)"/>
<path d="M0 0 C2.31 0.33 4.62 0.66 7 1 C5.74859237 5.48421069 4.31613466 8.68386534 1 12 C-1.75 12.8125 -1.75 12.8125 -4 13 C-4.20140476 9.37471432 -3.85776765 7.13498292 -2 4 C-1.34 4 -0.68 4 0 4 C0 2.68 0 1.36 0 0 Z " fill="#F6D845" transform="translate(69,98)"/>
<path d="M0 0 C0.33 0.66 0.66 1.32 1 2 C3.31 2 5.62 2 8 2 C7 4 7 4 4.625 4.9375 C1.96475626 5.78842301 1.96475626 5.78842301 0.5 7.6875 C0.005 8.120625 -0.49 8.55375 -1 9 C-4.34192692 8.75546876 -5.60543557 8.39456443 -8 6 C-8 5.01 -8 4.02 -8 3 C-5.11165997 0.89229241 -3.61537605 0 0 0 Z " fill="#44453F" transform="translate(90,114)"/>
<path d="M0 0 C-1.53242321 3.44795223 -3.44531701 6.2199038 -6 9 C-8.25 9.8125 -8.25 9.8125 -10 10 C-13 6.25 -13 6.25 -13 4 C-10.75 2.5 -10.75 2.5 -8 1 C-6.9790625 0.38125 -6.9790625 0.38125 -5.9375 -0.25 C-3.55839337 -1.1709445 -2.36334952 -0.8440534 0 0 Z " fill="#881809" transform="translate(67,47)"/>
<path d="M0 0 C0.33 0.66 0.66 1.32 1 2 C-1.18320545 6.95256334 -3.66050622 11.10700415 -8.1875 14.125 C-11 15 -11 15 -14 15 C-14 14.34 -14 13.68 -14 13 C-14.99 13 -15.98 13 -17 13 C-17 12.01 -17 11.02 -17 10 C-16.38511719 9.96261719 -15.77023438 9.92523438 -15.13671875 9.88671875 C-14.32847656 9.82097656 -13.52023438 9.75523438 -12.6875 9.6875 C-11.88699219 9.62949219 -11.08648437 9.57148438 -10.26171875 9.51171875 C-7.5623852 8.90098871 -6.74634254 8.10354897 -5 6 C-4.54238281 5.47019531 -4.08476563 4.94039062 -3.61328125 4.39453125 C-3.18402344 3.87246094 -2.75476562 3.35039062 -2.3125 2.8125 C-1.549375 1.884375 -0.78625 0.95625 0 0 Z " fill="#483428" transform="translate(48,16)"/>
<path d="M0 0 C0.66 0 1.32 0 2 0 C2.33 0.66 2.66 1.32 3 2 C3.9075 2.2475 4.815 2.495 5.75 2.75 C10.05938752 4.40745674 11.33350057 6.2669008 14 10 C14.33 10.99 14.66 11.98 15 13 C13.68 14.32 12.36 15.64 11 17 C10.896875 15.741875 10.79375 14.48375 10.6875 13.1875 C10.30390844 9.86042583 10.30390844 9.86042583 8.4375 7.125 C7.963125 6.75375 7.48875 6.3825 7 6 C7 5.34 7 4.68 7 4 C6.01 4.33 5.02 4.66 4 5 C2.78130071 7.50447516 2.78130071 7.50447516 2 10 C1.01 9.34 0.02 8.68 -1 8 C-0.67 5.36 -0.34 2.72 0 0 Z " fill="#DB7264" transform="translate(43,4)"/>
<path d="M0 0 C0.66 0 1.32 0 2 0 C3.13443325 3.97051639 3.25175839 5.51513198 1.3125 9.25 C-0.8226567 11.78910526 -1.89205759 13.028768 -5 14 C-6.32 14 -7.64 14 -9 14 C-9.33 13.01 -9.66 12.02 -10 11 C-8.68 11 -7.36 11 -6 11 C-5.7525 10.484375 -5.505 9.96875 -5.25 9.4375 C-3.60418384 6.22815849 -1.8023904 3.12414336 0 0 Z " fill="#E5BD17" transform="translate(76,99)"/>
<path d="M0 0 C3.89153867 0.95302988 6.69134328 1.80863284 10.125 3.9375 C15.21811452 7.06361857 21.21337011 7.85137572 27 9 C26.67 9.66 26.34 10.32 26 11 C20.25103089 10.54373261 15.34776068 9.64459137 9.9453125 7.62109375 C7.86403097 6.84792451 7.86403097 6.84792451 5 7 C2.9375 5.125 2.9375 5.125 1 3 C0.34 2.34 -0.32 1.68 -1 1 C-0.67 0.67 -0.34 0.34 0 0 Z " fill="#275F7E" transform="translate(70,86)"/>
<path d="M0 0 C0.33 0 0.66 0 1 0 C1 1.98 1 3.96 1 6 C1.99 6.33 2.98 6.66 4 7 C3.01 7.33 2.02 7.66 1 8 C1.33 9.32 1.66 10.64 2 12 C3.05767578 12.16822266 3.05767578 12.16822266 4.13671875 12.33984375 C7.27389512 13.06314908 9.90127906 14.19457691 12.8125 15.5625 C13.78832031 16.01753906 14.76414062 16.47257812 15.76953125 16.94140625 C16.50558594 17.29074219 17.24164063 17.64007813 18 18 C17.67 19.32 17.34 20.64 17 22 C16.67 21.01 16.34 20.02 16 19 C13.43957934 17.96961044 13.43957934 17.96961044 10.4375 17.3125 C9.42558594 17.06113281 8.41367187 16.80976562 7.37109375 16.55078125 C6.58863281 16.36902344 5.80617188 16.18726562 5 16 C5 15.34 5 14.68 5 14 C3.824375 13.566875 3.824375 13.566875 2.625 13.125 C0 12 0 12 -2 10 C-1.67889311 6.46782421 -1.12183498 3.36550494 0 0 Z " fill="#57758A" transform="translate(50,76)"/>
<path d="M0 0 C2.4375 0.6875 2.4375 0.6875 5 2 C5.85546875 4.328125 5.85546875 4.328125 6 7 C3.21357464 11.64692676 -1.45900986 16.09881185 -6 19 C-6.99 18.67 -7.98 18.34 -9 18 C-9 16.68 -9 15.36 -9 14 C-8.236875 14.020625 -7.47375 14.04125 -6.6875 14.0625 C-3.89814214 14.12942841 -3.89814214 14.12942841 -1 13 C-1 11.35 -1 9.7 -1 8 C-0.360625 7.731875 0.27875 7.46375 0.9375 7.1875 C3.33131686 6.11332248 3.33131686 6.11332248 4 3 C2.68 2.67 1.36 2.34 0 2 C0 1.34 0 0.68 0 0 Z " fill="#7BABBB" transform="translate(123,66)"/>
<path d="M0 0 C2.4375 0.375 2.4375 0.375 5 1 C5.33 1.66 5.66 2.32 6 3 C7.64142963 4.0409066 9.30712215 5.04504326 11 6 C10.360625 6.103125 9.72125 6.20625 9.0625 6.3125 C8.381875 6.539375 7.70125 6.76625 7 7 C6.67 7.99 6.34 8.98 6 10 C6.99 10.66 7.98 11.32 9 12 C8.34 13.32 7.68 14.64 7 16 C6.34 15.67 5.68 15.34 5 15 C5 14.34 5 13.68 5 13 C4.01 12.175 3.02 11.35 2 10.5 C1.01 9.675 0.02 8.85 -1 8 C-1 7.34 -1 6.68 -1 6 C0.98 6.66 2.96 7.32 5 8 C3.69955017 5.09899654 2.29101554 3.18687847 0 1 C0 0.67 0 0.34 0 0 Z " fill="#918341" transform="translate(93,100)"/>
<path d="M0 0 C1.65 0 3.3 0 5 0 C4.01 0.495 4.01 0.495 3 1 C3 1.66 3 2.32 3 3 C4.98 2.34 6.96 1.68 9 1 C9 2.98 9 4.96 9 7 C8.01 6.67 7.02 6.34 6 6 C6 5.34 6 4.68 6 4 C5.01 4 4.02 4 3 4 C3 4.66 3 5.32 3 6 C1.11930017 8.6120831 0.02464205 8.99468505 -3.1875 9.6875 C-4.5796875 9.8421875 -4.5796875 9.8421875 -6 10 C-5.875 8.25 -5.875 8.25 -5 6 C-1.9375 3.75 -1.9375 3.75 1 2 C0.67 1.34 0.34 0.68 0 0 Z " fill="#487383" transform="translate(33,15)"/>
<path d="M0 0 C0.66 0 1.32 0 2 0 C2.33 1.65 2.66 3.3 3 5 C1.35 5.33 -0.3 5.66 -2 6 C-2.33 7.65 -2.66 9.3 -3 11 C-3.33 10.34 -3.66 9.68 -4 9 C-4.99 9.99 -5.98 10.98 -7 12 C-6.34 12.33 -5.68 12.66 -5 13 C-5.33 13.66 -5.66 14.32 -6 15 C-6.99 14.67 -7.98 14.34 -9 14 C-8.73799687 8.67260293 -8.73799687 8.67260293 -8 6 C-5.56990326 4.00607447 -4.16090285 3 -1 3 C-0.67 2.01 -0.34 1.02 0 0 Z " fill="#F8E563" transform="translate(26,55)"/>
<path d="M0 0 C-1.15173355 2.46800047 -2.04783565 4.04783565 -4 6 C-6.8203125 6.1953125 -6.8203125 6.1953125 -10.125 6.125 C-11.22070312 6.10695313 -12.31640625 6.08890625 -13.4453125 6.0703125 C-14.28835937 6.04710937 -15.13140625 6.02390625 -16 6 C-16 5.01 -16 4.02 -16 3 C-15.30132812 2.86722656 -14.60265625 2.73445313 -13.8828125 2.59765625 C-12.51769531 2.33275391 -12.51769531 2.33275391 -11.125 2.0625 C-10.22007813 1.88847656 -9.31515625 1.71445312 -8.3828125 1.53515625 C-1.54744526 0 -1.54744526 0 0 0 Z " fill="#FA6030" transform="translate(71,56)"/>
<path d="M0 0 C4 0 4 0 6.1875 1.9375 C8.54819031 5.92625258 8.80110472 9.43535342 9 14 C8.01 14.66 7.02 15.32 6 16 C5.34 14.02 4.68 12.04 4 10 C3.67 10 3.34 10 3 10 C2.87625 8.906875 2.7525 7.81375 2.625 6.6875 C2.24535199 2.92618198 2.24535199 2.92618198 0 0 Z " fill="#AF341D" transform="translate(46,8)"/>
<path d="M0 0 C0.66 0.33 1.32 0.66 2 1 C2.21192221 6.19209404 1.5912689 10.126739 0 15 C-4.29 14.34 -8.58 13.68 -13 13 C-13 12.34 -13 11.68 -13 11 C-11.35 10.34 -9.7 9.68 -8 9 C-7.67 9.99 -7.34 10.98 -7 12 C-4.03 12.495 -4.03 12.495 -1 13 C-0.67 8.71 -0.34 4.42 0 0 Z " fill="#317093" transform="translate(83,51)"/>
<path d="M0 0 C0.99 0.33 1.98 0.66 3 1 C3.99 0.67 4.98 0.34 6 0 C4.58226538 3.54433654 3.32387762 4.33806119 0 6 C-0.69937532 7.31647119 -1.36729133 8.65022151 -2 10 C-2.99 10.66 -3.98 11.32 -5 12 C-5.99 11.01 -6.98 10.02 -8 9 C-7.34 8.01 -6.68 7.02 -6 6 C-4.68 6 -3.36 6 -2 6 C-1.34 4.02 -0.68 2.04 0 0 Z " fill="#E3BB13" transform="translate(106,100)"/>
<path d="M0 0 C2.97 0.495 2.97 0.495 6 1 C6 1.99 6 2.98 6 4 C11.61 4.66 17.22 5.32 23 6 C23 6.33 23 6.66 23 7 C19.72946483 7.11608726 16.4594582 7.18720711 13.1875 7.25 C12.25873047 7.28351563 11.32996094 7.31703125 10.37304688 7.3515625 C9.0340332 7.37089844 9.0340332 7.37089844 7.66796875 7.390625 C6.84578857 7.41157227 6.0236084 7.43251953 5.17651367 7.45410156 C3 7 3 7 1.20825195 5.16308594 C0 3 0 3 0 0 Z " fill="#3D3018" transform="translate(24,62)"/>
<path d="M0 0 C0 0.99 0 1.98 0 3 C0.66 3 1.32 3 2 3 C2 3.66 2 4.32 2 5 C0.7934375 5.9590625 0.7934375 5.9590625 -0.4375 6.9375 C-3.23720732 8.81035932 -3.23720732 8.81035932 -4 12 C-4.99 11.67 -5.98 11.34 -7 11 C-6.67 10.67 -6.34 10.34 -6 10 C-6.1018371 8.08575543 -6.1018371 8.08575543 -6.4375 5.9375 C-6.623125 4.638125 -6.80875 3.33875 -7 2 C-2.25 0 -2.25 0 0 0 Z " fill="#484E49" transform="translate(120,94)"/>
<path d="M0 0 C0.99 0.33 1.98 0.66 3 1 C2.58846263 5.97093824 2.20399168 10.44508386 0 15 C-0.66 14.67 -1.32 14.34 -2 14 C-2.1799928 8.78020872 -1.97094808 4.92737019 0 0 Z " fill="#5C85AB" transform="translate(72,69)"/>
<path d="M0 0 C0.99 0.33 1.98 0.66 3 1 C0.09177202 3.32327555 -2.82793127 5.63166509 -5.75 7.9375 C-6.575 8.59685547 -7.4 9.25621094 -8.25 9.93554688 C-9.04921875 10.56396484 -9.8484375 11.19238281 -10.671875 11.83984375 C-11.4050293 12.42113037 -12.13818359 13.00241699 -12.89355469 13.60131836 C-14.97776882 14.98523848 -16.55472998 15.57231937 -19 16 C-18.195625 15.236875 -17.39125 14.47375 -16.5625 13.6875 C-13.83200976 11.20569102 -13.83200976 11.20569102 -13 8 C-11.67696283 7.6278958 -10.34262065 7.29369827 -9 7 C-8.67 6.34 -8.34 5.68 -8 5 C-6.40625 3.96484375 -6.40625 3.96484375 -4.5 2.9375 C-2.0882696 1.6858579 -2.0882696 1.6858579 0 0 Z " fill="#74939F" transform="translate(94,120)"/>
<path d="M0 0 C0.495 0.391875 0.99 0.78375 1.5 1.1875 C-0.8125 3.6875 -0.8125 3.6875 -3.5 6.1875 C-4.49 6.1875 -5.48 6.1875 -6.5 6.1875 C-6.83 6.8475 -7.16 7.5075 -7.5 8.1875 C-9 6.875 -9 6.875 -10.5 5.1875 C-10.5 4.1975 -10.5 3.2075 -10.5 2.1875 C-3.28774617 -1.06851751 -3.28774617 -1.06851751 0 0 Z " fill="#265571" transform="translate(78.5,92.8125)"/>
<path d="M0 0 C1.70884005 1.62339805 3.37446717 3.29319053 5 5 C5 5.66 5 6.32 5 7 C3.68 7.33 2.36 7.66 1 8 C1 7.01 1 6.02 1 5 C-1.97 4.505 -1.97 4.505 -5 4 C-5 6.31 -5 8.62 -5 11 C-5.33 10.34 -5.66 9.68 -6 9 C-7.32 9 -8.64 9 -10 9 C-9.67 8.01 -9.34 7.02 -9 6 C-8.34 6 -7.68 6 -7 6 C-6.34 4.68 -5.68 3.36 -5 2 C-3.35 2 -1.7 2 0 2 C0 1.34 0 0.68 0 0 Z " fill="#B79716" transform="translate(29,58)"/>
<path d="M0 0 C0.86625 0.3403125 0.86625 0.3403125 1.75 0.6875 C1.75 1.3475 1.75 2.0075 1.75 2.6875 C3.07 3.0175 4.39 3.3475 5.75 3.6875 C-0.875 7.6875 -0.875 7.6875 -4.25 7.6875 C-4.91 6.0375 -5.57 4.3875 -6.25 2.6875 C-2.80384615 -0.38942308 -2.80384615 -0.38942308 0 0 Z " fill="#3B474C" transform="translate(65.25,110.3125)"/>
<path d="M0 0 C1.45742463 -0.08096803 2.91612807 -0.13917774 4.375 -0.1875 C5.18710938 -0.22230469 5.99921875 -0.25710937 6.8359375 -0.29296875 C7.55007812 -0.19628906 8.26421875 -0.09960938 9 0 C9.66 0.99 10.32 1.98 11 3 C8.6875 5.0625 8.6875 5.0625 6 7 C5.01 6.67 4.02 6.34 3 6 C3 5.01 3 4.02 3 3 C1.68 3 0.36 3 -1 3 C-0.67 2.01 -0.34 1.02 0 0 Z " fill="#61BAD4" transform="translate(104,83)"/>
<path d="M0 0 C-1.32364781 3.97094344 -3.17185899 4.8237845 -6.65625 6.92578125 C-10.34276724 8.61543499 -13.98333276 8.89772375 -18 9 C-18 8.34 -18 7.68 -18 7 C-20.475 6.01 -20.475 6.01 -23 5 C-22.67 4.34 -22.34 3.68 -22 3 C-21.42894531 3.32097656 -20.85789062 3.64195312 -20.26953125 3.97265625 C-16.53996992 5.66090862 -13.00782402 5.69495938 -9 5 C-5.93062002 3.33790178 -3.49362715 0 0 0 Z " fill="#9DA7AD" transform="translate(48,133)"/>
<path d="M0 0 C1.65 0.33 3.3 0.66 5 1 C5 1.99 5 2.98 5 4 C6.32 4.66 7.64 5.32 9 6 C7.68 6 6.36 6 5 6 C5 6.66 5 7.32 5 8 C3.35 8 1.7 8 0 8 C0 7.01 0 6.02 0 5 C-0.66 4.34 -1.32 3.68 -2 3 C-1.34 2.01 -0.68 1.02 0 0 Z " fill="#CF9F97" transform="translate(111,66)"/>
<path d="M0 0 C3.33049122 1.42630308 5.31738937 3.15014396 7.6875 5.875 C8.28949219 6.55304687 8.89148438 7.23109375 9.51171875 7.9296875 C11.00766194 10.01065834 11.5789756 11.49630826 12 14 C11.01 14.33 10.02 14.66 9 15 C7.06977435 12.73408293 6.05833721 11.35002328 5.5625 8.375 C5.2840625 7.199375 5.2840625 7.199375 5 6 C3.68352881 5.30062468 2.34977849 4.63270867 1 4 C0.25 1.875 0.25 1.875 0 0 Z " fill="#EA857A" transform="translate(76,31)"/>
<path d="M0 0 C0.66 0.33 1.32 0.66 2 1 C0.68 1.99 -0.64 2.98 -2 4 C-0.9024777 6.99324263 -0.32317108 7.84610901 2.625 9.25 C3.40875 9.4975 4.1925 9.745 5 10 C5 10.33 5 10.66 5 11 C-3.4 10.01176471 -3.4 10.01176471 -7 8 C-7.6328125 5.92578125 -7.6328125 5.92578125 -8 4 C-6.71349294 3.30289269 -5.42059335 2.61757124 -4.125 1.9375 C-3.40570313 1.55464844 -2.68640625 1.17179688 -1.9453125 0.77734375 C-1.30335937 0.52082031 -0.66140625 0.26429688 0 0 Z " fill="#CEF2F3" transform="translate(38,147)"/>
<path d="M0 0 C0.99 0.33 1.98 0.66 3 1 C2.625 3.375 2.625 3.375 1 6 C-2.25719126 7.16328259 -5.57815361 7.5722692 -9 8 C-9.804375 8.11085937 -10.60875 8.22171875 -11.4375 8.3359375 C-13.2887398 8.58056562 -15.14408833 8.79378759 -17 9 C-14.84568791 7.92034475 -12.68877608 6.84660053 -10.52734375 5.78125 C-9.67269531 5.3584375 -8.81804688 4.935625 -7.9375 4.5 C-7.08027344 4.0771875 -6.22304688 3.654375 -5.33984375 3.21875 C-2.83289426 1.96630118 -2.83289426 1.96630118 0 0 Z " fill="#52CDF0" transform="translate(48,128)"/>
<path d="M0 0 C0.80244141 0.59554687 0.80244141 0.59554687 1.62109375 1.203125 C0.41453125 1.63625 0.41453125 1.63625 -0.81640625 2.078125 C-3.51155305 2.93575068 -3.51155305 2.93575068 -4.37890625 5.203125 C-8.96538568 7.5413302 -12.14399896 8.586167 -17.37890625 8.203125 C-14.42689477 6.23511734 -11.45946924 4.31842969 -8.44140625 2.453125 C-7.40113281 1.79828125 -6.36085938 1.1434375 -5.2890625 0.46875 C-2.37890625 -0.796875 -2.37890625 -0.796875 0 0 Z " fill="#74E6FB" transform="translate(51.37890625,121.796875)"/>
<path d="M0 0 C-0.08984375 1.703125 -0.08984375 1.703125 -1 4 C-3.16517274 5.73673882 -5.24547306 7.25089089 -7.5625 8.75 C-8.48579102 9.36681641 -8.48579102 9.36681641 -9.42773438 9.99609375 C-10.94504641 11.00763511 -12.47166086 12.00519789 -14 13 C-14 12.01 -14 11.02 -14 10 C-12.00669158 8.65668346 -10.00615134 7.32405988 -8 6 C-7.30251417 4.68252676 -6.63040043 3.35085807 -6 2 C-3.83022576 0.6438911 -2.5637264 0 0 0 Z " fill="#618998" transform="translate(78,109)"/>
<path d="M0 0 C1.32 0.33 2.64 0.66 4 1 C3.67 2.32 3.34 3.64 3 5 C1.68 5.33 0.36 5.66 -1 6 C-1 7.65 -1 9.3 -1 11 C-2.98 11 -4.96 11 -7 11 C-6.57847656 10.45730469 -6.15695313 9.91460937 -5.72265625 9.35546875 C-5.17480469 8.64003906 -4.62695312 7.92460938 -4.0625 7.1875 C-3.51722656 6.47980469 -2.97195312 5.77210937 -2.41015625 5.04296875 C-0.83143752 2.95874948 -0.83143752 2.95874948 0 0 Z " fill="#49CBEF" transform="translate(123,68)"/>
<path d="M0 0 C2 2 2 2 2.125 5.125 C2.08375 6.07375 2.0425 7.0225 2 8 C1.67 6.68 1.34 5.36 1 4 C0.01 4 -0.98 4 -2 4 C-1.896875 5.093125 -1.79375 6.18625 -1.6875 7.3125 C-1.8421875 9.1378125 -1.8421875 9.1378125 -2 11 C-4.5 12.9375 -4.5 12.9375 -7 14 C-7.74075615 9.25916064 -5.75302511 6.50470572 -3.2890625 2.671875 C-2 1 -2 1 0 0 Z " fill="#A1230E" transform="translate(50,17)"/>
<path d="M0 0 C0.66 0.66 1.32 1.32 2 2 C1.52949219 2.45890625 1.05898437 2.9178125 0.57421875 3.390625 C-4.03368398 7.91549295 -4.03368398 7.91549295 -8 13 C-7.67 13.66 -7.34 14.32 -7 15 C-9.31 15 -11.62 15 -14 15 C-13.67 13.68 -13.34 12.36 -13 11 C-11.02 11.495 -11.02 11.495 -9 12 C-8.74476562 11.42765625 -8.48953125 10.8553125 -8.2265625 10.265625 C-6.86912841 7.75826267 -5.28025896 5.8669544 -3.375 3.75 C-2.74335937 3.04359375 -2.11171875 2.3371875 -1.4609375 1.609375 C-0.97882813 1.07828125 -0.49671875 0.5471875 0 0 Z " fill="#9D3117" transform="translate(70,44)"/>
<path d="M0 0 C0.33 0 0.66 0 1 0 C1.13277344 0.95261719 1.26554687 1.90523437 1.40234375 2.88671875 C1.57894531 4.14097656 1.75554688 5.39523438 1.9375 6.6875 C2.11152344 7.92886719 2.28554688 9.17023437 2.46484375 10.44921875 C2.89822897 13.32474548 3.39649282 16.15644813 4 19 C3.01 19.33 2.02 19.66 1 20 C-0.20882096 22.00016466 -0.20882096 22.00016466 -1 24 C-1.99 23.67 -2.98 23.34 -4 23 C-1.03 20.525 -1.03 20.525 2 18 C1.67 17.67 1.34 17.34 1 17 C0.7888658 15.44288524 0.63107577 13.87838734 0.5 12.3125 C0.23279802 9.30432289 -0.10229829 6.41689972 -0.625 3.4375 C-0.74875 2.633125 -0.8725 1.82875 -1 1 C-0.67 0.67 -0.34 0.34 0 0 Z " fill="#D93E1B" transform="translate(58,25)"/>
<path d="M0 0 C0.66 0.33 1.32 0.66 2 1 C2.3888868 3.64443027 2.39540909 5.38826202 0.921875 7.66796875 C-0.31914474 9.16931734 -1.65582649 10.59025705 -3 12 C-3.33 12 -3.66 12 -4 12 C-4.8125 8.8125 -4.8125 8.8125 -5 5 C-2.5625 2.0625 -2.5625 2.0625 0 0 Z " fill="#96A1A4" transform="translate(47,10)"/>
<path d="M0 0 C2.31 0.33 4.62 0.66 7 1 C7 1.99 7 2.98 7 4 C4.75 5.8125 4.75 5.8125 2 7 C-0.1875 6.25 -0.1875 6.25 -2 5 C-2.66 4.67 -3.32 4.34 -4 4 C-2.35 3.34 -0.7 2.68 1 2 C0.67 1.34 0.34 0.68 0 0 Z " fill="#48D3F8" transform="translate(51,121)"/>
<path d="M0 0 C4.875 1.875 4.875 1.875 6 3 C6.4375 5.75 6.4375 5.75 6 9 C4.17102526 11.05826312 2.27165782 12.39090904 0 14 C-0.66 13.67 -1.32 13.34 -2 13 C-1.175 12.2575 -0.35 11.515 0.5 10.75 C3.44844853 8.12612615 3.44844853 8.12612615 3 4 C2.01 3.67 1.02 3.34 0 3 C0 2.01 0 1.02 0 0 Z " fill="#7E99A6" transform="translate(147,70)"/>
<path d="M0 0 C0.99 0 1.98 0 3 0 C3 0.66 3 1.32 3 2 C3.99 2 4.98 2 6 2 C7.25240315 5.75720944 6.4357968 6.41050801 5 10 C4.54444124 12.66402839 4.27373407 15.30828164 4 18 C3.67 18 3.34 18 3 18 C2.83141902 15.9168207 2.66520745 13.83344956 2.5 11.75 C2.4071875 10.58984375 2.314375 9.4296875 2.21875 8.234375 C2.05595356 5.82731342 2 3.41256049 2 1 C1.34 0.67 0.68 0.34 0 0 Z " fill="#EBA595" transform="translate(31,29)"/>
<path d="M0 0 C-1.65 0.33 -3.3 0.66 -5 1 C-4.67 2.98 -4.34 4.96 -4 7 C-6.31 6.34 -8.62 5.68 -11 5 C-10.875 3.125 -10.875 3.125 -10 1 C-6.36961463 -0.69417984 -3.80522763 -1.46354909 0 0 Z " fill="#D6F3F3" transform="translate(34,131)"/>
<path d="M0 0 C0.99 0.66 1.98 1.32 3 2 C3.65788704 5.65492797 3.59179603 8.01710398 1.65234375 11.23828125 C0.16233096 13.22144248 -1.36924232 15.1314235 -3 17 C-4.32 16.67 -5.64 16.34 -7 16 C-6.34 16 -5.68 16 -5 16 C-4.7525 15.4225 -4.505 14.845 -4.25 14.25 C-3 12 -3 12 -0.875 10.0625 C1.23317815 8.14279087 1.23317815 8.14279087 1.3125 5.4375 C1.06249753 2.86578949 1.06249753 2.86578949 0 0 Z " fill="#C93013" transform="translate(37,42)"/>
<path d="M0 0 C3.96 0.33 7.92 0.66 12 1 C10.515 3.475 10.515 3.475 9 6 C8.67 5.34 8.34 4.68 8 4 C6.68 4.33 5.36 4.66 4 5 C4 4.34 4 3.68 4 3 C3.01 3.66 2.02 4.32 1 5 C0.67 3.35 0.34 1.7 0 0 Z " fill="#334E5A" transform="translate(87,96)"/>
<path d="M0 0 C0.66 0.33 1.32 0.66 2 1 C2.33 1.99 2.66 2.98 3 4 C2.01 5.485 2.01 5.485 1 7 C0.13375 6.835 -0.7325 6.67 -1.625 6.5 C-4.81225199 6.02781452 -7.78485027 5.92344882 -11 6 C-8.32046159 3.32046159 -5.60334255 3.02952644 -2 2 C-1.34 1.34 -0.68 0.68 0 0 Z " fill="#81D7EB" transform="translate(125,89)"/>
<path d="M0 0 C0.66 0.33 1.32 0.66 2 1 C1.34 2.98 0.68 4.96 0 7 C-1.65 7.33 -3.3 7.66 -5 8 C-5.66 6.68 -6.32 5.36 -7 4 C-4.35261084 2.5393715 -3.10551666 2 0 2 C0 1.34 0 0.68 0 0 Z " fill="#821D13" transform="translate(38,55)"/>
<path d="M0 0 C2.42776667 1.29480889 3.76967674 2.35838519 4.7109375 4.98046875 C5.19782198 6.9738726 5.60391861 8.98658625 6 11 C5.34 11 4.68 11 4 11 C3.67 12.98 3.34 14.96 3 17 C2.34 16.67 1.68 16.34 1 16 C1.01160156 15.26394531 1.02320312 14.52789062 1.03515625 13.76953125 C1.04417969 12.79371094 1.05320312 11.81789063 1.0625 10.8125 C1.07410156 9.84957031 1.08570312 8.88664062 1.09765625 7.89453125 C1.00486622 5.14423487 0.62111685 2.67520409 0 0 Z " fill="#BE361E" transform="translate(69,28)"/>
<path d="M0 0 C0.33 0.66 0.66 1.32 1 2 C0.0625 4.125 0.0625 4.125 -1 6 C-1.66 6 -2.32 6 -3 6 C-3 6.66 -3 7.32 -3 8 C-1.68 8.33 -0.36 8.66 1 9 C-1.31 9 -3.62 9 -6 9 C-6 7.02 -6 5.04 -6 3 C-4.02 2.01 -2.04 1.02 0 0 Z " fill="#D34021" transform="translate(43,27)"/>
<path d="M0 0 C0.6015625 1.859375 0.6015625 1.859375 1 4 C-0.625 6.25 -0.625 6.25 -3 8 C-5.75 8.25 -5.75 8.25 -8 8 C-8 7.34 -8 6.68 -8 6 C-6.25 4.4921875 -6.25 4.4921875 -4 2.875 C-3.2575 2.33617187 -2.515 1.79734375 -1.75 1.2421875 C-1.1725 0.83226563 -0.595 0.42234375 0 0 Z " fill="#991809" transform="translate(48,27)"/>
<path d="M0 0 C1.98 0.66 3.96 1.32 6 2 C6.33 1.34 6.66 0.68 7 0 C8 1 8 1 8.0625 3.5625 C8.041875 4.366875 8.02125 5.17125 8 6 C7.4225 5.814375 6.845 5.62875 6.25 5.4375 C3.79307475 4.95976454 2.35602466 5.24270636 0 6 C0 4.02 0 2.04 0 0 Z " fill="#F3D11D" transform="translate(48,53)"/>
<path d="M0 0 C0.66 0 1.32 0 2 0 C2 4.95 2 9.9 2 15 C0.16389594 12.2458439 -0.51804278 10.63695953 -1.25 7.5 C-1.44078125 6.7265625 -1.6315625 5.953125 -1.828125 5.15625 C-2 3 -2 3 0 0 Z " fill="#FD6039" transform="translate(55,25)"/>
<path d="M0 0 C0.99 0 1.98 0 3 0 C3.66 1.32 4.32 2.64 5 4 C1.91111478 6.05925681 1.29064073 6.2390374 -2.1875 6.125 C-4.0746875 6.063125 -4.0746875 6.063125 -6 6 C-5.01 5.67 -4.02 5.34 -3 5 C-2.67 4.01 -2.34 3.02 -2 2 C-1.34 2 -0.68 2 0 2 C0 1.34 0 0.68 0 0 Z " fill="#49C6E7" transform="translate(36,19)"/>
<path d="M0 0 C0 0.66 0 1.32 0 2 C-2.08203125 3.98046875 -2.08203125 3.98046875 -4.8125 6.1875 C-5.70582031 6.92355469 -6.59914063 7.65960938 -7.51953125 8.41796875 C-8.33808594 8.94003906 -9.15664063 9.46210938 -10 10 C-10.99 9.67 -11.98 9.34 -13 9 C-12.67 7.68 -12.34 6.36 -12 5 C-10.9171875 4.87625 -10.9171875 4.87625 -9.8125 4.75 C-6.03190058 3.74184016 -3.74588622 0 0 0 Z " fill="#6D97A6" transform="translate(62,122)"/>
<path d="M0 0 C4.75 0.875 4.75 0.875 7 2 C7 2.66 7 3.32 7 4 C8.65 4.33 10.3 4.66 12 5 C10.265625 6.140625 10.265625 6.140625 8 7 C5.859375 6.171875 5.859375 6.171875 3.75 4.75 C3.04359375 4.29109375 2.3371875 3.8321875 1.609375 3.359375 C1.07828125 2.91078125 0.5471875 2.4621875 0 2 C0 1.34 0 0.68 0 0 Z " fill="#1B577C" transform="translate(78,79)"/>
<path d="M0 0 C5.78461538 3.32307692 5.78461538 3.32307692 6.875 6.75 C6.936875 7.86375 6.936875 7.86375 7 9 C6.67 8.34 6.34 7.68 6 7 C2.93853104 5.03191281 0.59835033 4.80009165 -3 5 C-3.33 4.34 -3.66 3.68 -4 3 C-3.34 3 -2.68 3 -2 3 C-2 2.34 -2 1.68 -2 1 C-1.34 0.67 -0.68 0.34 0 0 Z " fill="#DA5338" transform="translate(60,21)"/>
<path d="M0 0 C-0.32347169 3.01906912 -1.05918383 4.06256576 -3.1875 6.3125 C-6 8 -6 8 -9.3125 7.75 C-10.199375 7.5025 -11.08625 7.255 -12 7 C-11.46375 6.773125 -10.9275 6.54625 -10.375 6.3125 C-8.24974779 5.13801851 -6.69753199 3.95184753 -4.875 2.375 C-2 0 -2 0 0 0 Z " fill="#4C89A0" transform="translate(105,112)"/>
<path d="M0 0 C2.475 0.99 2.475 0.99 5 2 C1.67692308 5.93846154 1.67692308 5.93846154 -1.75 6.25 C-2.4925 6.1675 -3.235 6.085 -4 6 C-4.33 5.01 -4.66 4.02 -5 3 C-3.35 3 -1.7 3 0 3 C0 2.01 0 1.02 0 0 Z " fill="#EBC61B" transform="translate(95,111)"/>
<path d="M0 0 C0.33 0.66 0.66 1.32 1 2 C-0.0390625 4.34765625 -0.0390625 4.34765625 -1.625 7.0625 C-2.13289063 7.96097656 -2.64078125 8.85945313 -3.1640625 9.78515625 C-5 12 -5 12 -7.7109375 12.80859375 C-8.46632812 12.87175781 -9.22171875 12.93492188 -10 13 C-9.360625 12.773125 -8.72125 12.54625 -8.0625 12.3125 C-7.381875 11.879375 -6.70125 11.44625 -6 11 C-5.855625 10.2575 -5.71125 9.515 -5.5625 8.75 C-4.75685953 4.81131323 -2.68247968 2.95760581 0 0 Z " fill="#25130F" transform="translate(48,16)"/>
<path d="M0 0 C2.125 0.375 2.125 0.375 4 1 C4 2.32 4 3.64 4 5 C1.36 5.33 -1.28 5.66 -4 6 C-2.84826645 3.53199953 -1.95216435 1.95216435 0 0 Z " fill="#141314" transform="translate(36,9)"/>
<path d="M0 0 C0.66 0.33 1.32 0.66 2 1 C2 1.66 2 2.32 2 3 C1.01 3.495 1.01 3.495 0 4 C-0.33 4.99 -0.66 5.98 -1 7 C-3.31 6.67 -5.62 6.34 -8 6 C-5.63404067 3.38499232 -3.13950774 1.61000397 0 0 Z " fill="#76E2F9" transform="translate(59,115)"/>
<path d="M0 0 C-0.6875 2.375 -0.6875 2.375 -2 5 C-4.625 6.3125 -4.625 6.3125 -7 7 C-7.33 5.68 -7.66 4.36 -8 3 C-3.375 0 -3.375 0 0 0 Z " fill="#63696D" transform="translate(90,114)"/>
<path d="M0 0 C1.98 1.65 3.96 3.3 6 5 C5.01 5.495 5.01 5.495 4 6 C3.34 5.67 2.68 5.34 2 5 C1.71125 5.639375 1.4225 6.27875 1.125 6.9375 C0 9 0 9 -2 10 C-1.46274105 6.62294375 -0.88935377 3.303314 0 0 Z " fill="#E4CD54" transform="translate(108,90)"/>
<path d="M0 0 C0.33 0.99 0.66 1.98 1 3 C-0.24196122 4.15454162 -1.49392845 5.29832562 -2.75 6.4375 C-3.79414062 7.39462891 -3.79414062 7.39462891 -4.859375 8.37109375 C-6.98792725 9.99081325 -8.39023405 10.58267256 -11 11 C-5.03416856 3.33257403 -5.03416856 3.33257403 0 2 C0 1.34 0 0.68 0 0 Z " fill="#74170C" transform="translate(79,52)"/>
<path d="M0 0 C0.804375 0.495 1.60875 0.99 2.4375 1.5 C6.82002454 3.34527349 10.32315231 3.28061086 15 3 C14.01 4.485 14.01 4.485 13 6 C8.2377107 6.54649221 6.08931127 6.68081954 2 4.125 C0 2 0 2 0 0 Z " fill="#929498" transform="translate(32,154)"/>
<path d="M0 0 C1 3 1 3 0.375 5 C-1.36380086 7.52916489 -3.31063318 8.58454378 -6 10 C-6.33 9.01 -6.66 8.02 -7 7 C-6.01 6.67 -5.02 6.34 -4 6 C-4.33 5.01 -4.66 4.02 -5 3 C-3.35 2.67 -1.7 2.34 0 2 C0 1.34 0 0.68 0 0 Z " fill="#40D7FD" transform="translate(73,128)"/>
<path d="M0 0 C-0.309375 1.0725 -0.61875 2.145 -0.9375 3.25 C-1.66812096 5.82866222 -2.37482904 8.39512102 -3 11 C-3.66 11 -4.32 11 -5 11 C-4.67 9.02 -4.34 7.04 -4 5 C-5.32 4.67 -6.64 4.34 -8 4 C-2.25 0 -2.25 0 0 0 Z " fill="#60DDFA" transform="translate(77,125)"/>
<path d="M0 0 C2.31 0 4.62 0 7 0 C7.33 1.32 7.66 2.64 8 4 C7.01 4.33 6.02 4.66 5 5 C4.67 5.99 4.34 6.98 4 8 C3 7 3 7 2.9375 3.9375 C2.958125 2.968125 2.97875 1.99875 3 1 C2.01 1.33 1.02 1.66 0 2 C0 1.34 0 0.68 0 0 Z " fill="#1A4F74" transform="translate(100,86)"/>
<path d="M0 0 C1.98 0.99 3.96 1.98 6 3 C5.01 6.63 4.02 10.26 3 14 C2.67 14 2.34 14 2 14 C2 10.37 2 6.74 2 3 C1.34 2.67 0.68 2.34 0 2 C0 1.34 0 0.68 0 0 Z " fill="#33688C" transform="translate(74,67)"/>
<path d="M0 0 C0.66 0.33 1.32 0.66 2 1 C1.34 3.64 0.68 6.28 0 9 C-0.66 9 -1.32 9 -2 9 C-2 9.66 -2 10.32 -2 11 C-2.66 11 -3.32 11 -4 11 C-3.56179109 6.44262737 -3.14958831 3.42346555 0 0 Z " fill="#5C85AB" transform="translate(56,69)"/>
<path d="M0 0 C0.66 0 1.32 0 2 0 C3.60339848 3.11771927 4.18974141 4.39011689 3.125 7.8125 C2.75375 8.534375 2.3825 9.25625 2 10 C1.01 9.34 0.02 8.68 -1 8 C-0.67 5.36 -0.34 2.72 0 0 Z " fill="#646667" transform="translate(43,4)"/>
<path d="M0 0 C0.33 0 0.66 0 1 0 C1 1.98 1 3.96 1 6 C1.99 6.33 2.98 6.66 4 7 C3.01 7.33 2.02 7.66 1 8 C1.33 8.99 1.66 9.98 2 11 C0.68 10.67 -0.64 10.34 -2 10 C-1.54177532 6.53058454 -1.10868317 3.32604951 0 0 Z " fill="#427394" transform="translate(50,76)"/>
<path d="M0 0 C0.68359375 1.765625 0.68359375 1.765625 1 4 C-0.21484375 5.921875 -0.21484375 5.921875 -1.9375 7.75 C-2.50339844 8.36359375 -3.06929688 8.9771875 -3.65234375 9.609375 C-4.31943359 10.29773438 -4.31943359 10.29773438 -5 11 C-6.0859375 7.2578125 -6.0859375 7.2578125 -5.3125 4.9375 C-3.81535112 2.72742308 -2.20957187 1.47304791 0 0 Z " fill="#76D1EC" transform="translate(122,67)"/>
<path d="M0 0 C0 4 0 4 -1.5 5.75 C-1.995 6.1625 -2.49 6.575 -3 7 C-2.34 7.33 -1.68 7.66 -1 8 C-1.33 8.66 -1.66 9.32 -2 10 C-2.99 9.67 -3.98 9.34 -5 9 C-4.4140625 2.84765625 -4.4140625 2.84765625 -4 1 C-2 0 -2 0 0 0 Z " fill="#F2E87F" transform="translate(22,60)"/>
<path d="M0 0 C0.66 0.33 1.32 0.66 2 1 C2.4140625 3.06640625 2.4140625 3.06640625 2.625 5.5625 C2.69976562 6.38878906 2.77453125 7.21507812 2.8515625 8.06640625 C2.90054688 8.70449219 2.94953125 9.34257813 3 10 C1.02 10.99 1.02 10.99 -1 12 C-2.09898702 8.70303895 -1.87124444 7.59505097 -1.0625 4.3125 C-0.86785156 3.50425781 -0.67320313 2.69601563 -0.47265625 1.86328125 C-0.31667969 1.24839844 -0.16070312 0.63351563 0 0 Z " fill="#B81D0B" transform="translate(53,33)"/>
<path d="M0 0 C0.66 0.33 1.32 0.66 2 1 C2 1.99 2 2.98 2 4 C-0.25 5.8125 -0.25 5.8125 -3 7 C-5.3125 6.1875 -5.3125 6.1875 -7 5 C-4.69 3.35 -2.38 1.7 0 0 Z " fill="#76E3FA" transform="translate(67,130)"/>
<path d="M0 0 C2.475 0.99 2.475 0.99 5 2 C4.67 2.99 4.34 3.98 4 5 C1.4375 6.1875 1.4375 6.1875 -1 7 C-1.625 5.1875 -1.625 5.1875 -2 3 C-1.34 2.01 -0.68 1.02 0 0 Z " fill="#5FDDFC" transform="translate(128,87)"/>
<path d="M0 0 C0.68359375 1.765625 0.68359375 1.765625 1 4 C-0.21484375 5.921875 -0.21484375 5.921875 -1.9375 7.75 C-2.50339844 8.36359375 -3.06929687 8.9771875 -3.65234375 9.609375 C-4.31943359 10.29773438 -4.31943359 10.29773438 -5 11 C-5.66 10.67 -6.32 10.34 -7 10 C-5.33248852 6.05860922 -2.77289351 3.2107188 0 0 Z " fill="#F3795C" transform="translate(35,47)"/>
<path d="M0 0 C0.33 0 0.66 0 1 0 C1.125 7.625 1.125 7.625 0 11 C-0.99 10.67 -1.98 10.34 -3 10 C-2.25 2.25 -2.25 2.25 0 0 Z " fill="#195478" transform="translate(82,52)"/>
<path d="M0 0 C0.99 0 1.98 0 3 0 C3.66 1.65 4.32 3.3 5 5 C3.68 6.32 2.36 7.64 1 9 C0.67 6.03 0.34 3.06 0 0 Z " fill="#AC2C15" transform="translate(73,39)"/>
<path d="M0 0 C1.66519519 0.34060811 3.33157466 0.67558396 5 1 C5 1.66 5 2.32 5 3 C2.69 3 0.38 3 -2 3 C-2 2.34 -2 1.68 -2 1 C-2.99 1.495 -2.99 1.495 -4 2 C-6.3329866 2.04022391 -8.66706666 2.04320247 -11 2 C-11 1.67 -11 1.34 -11 1 C-3.74306839 -1.37245841 -3.74306839 -1.37245841 0 0 Z " fill="#D0C9B1" transform="translate(44,65)"/>
<path d="M0 0 C-2.3125 2.5 -2.3125 2.5 -5 5 C-5.99 5 -6.98 5 -8 5 C-6.19780722 -0.02039417 -5.34443412 -1.60333024 0 0 Z " fill="#FA5B34" transform="translate(59,44)"/>
<path d="M0 0 C1 2 1 2 0.1875 4.5 C-1 7 -1 7 -3 9 C-4.32 8.67 -5.64 8.34 -7 8 C-4.69 5.36 -2.38 2.72 0 0 Z " fill="#7BDCF5" transform="translate(146,71)"/>
<path d="M0 0 C0.99 0.33 1.98 0.66 3 1 C2.814375 1.61875 2.62875 2.2375 2.4375 2.875 C1.76313824 5.04160178 1.76313824 5.04160178 3 7 C1.35 7.33 -0.3 7.66 -2 8 C-2.20086443 4.28400809 -2.1519437 3.22791555 0 0 Z " fill="#DAC755" transform="translate(67,103)"/>
<path d="M0 0 C0.99 0.33 1.98 0.66 3 1 C3 1.66 3 2.32 3 3 C4.32 3.66 5.64 4.32 7 5 C3.7 4.67 0.4 4.34 -3 4 C-3 3.34 -3 2.68 -3 2 C-2.01 1.34 -1.02 0.68 0 0 Z " fill="#4D89B0" transform="translate(73,60)"/>
<path d="M0 0 C0.99 0.33 1.98 0.66 3 1 C3 1.99 3 2.98 3 4 C3.99 4.66 4.98 5.32 6 6 C3.6875 6.6875 3.6875 6.6875 1 7 C-0.6875 5.6875 -0.6875 5.6875 -2 4 C-2.66 3.34 -3.32 2.68 -4 2 C-2.68 2 -1.36 2 0 2 C0 1.34 0 0.68 0 0 Z " fill="#D24521" transform="translate(45,43)"/>
<path d="M0 0 C2.3125 0.8125 2.3125 0.8125 4 2 C-1.75 6 -1.75 6 -4 6 C-4.33 5.01 -4.66 4.02 -5 3 C-2.75 1.375 -2.75 1.375 0 0 Z " fill="#5F9BAF" transform="translate(82,105)"/>
<path d="M0 0 C0.33 2.31 0.66 4.62 1 7 C0.62875 6.34 0.2575 5.68 -0.125 5 C-1.90894778 2.64696955 -1.90894778 2.64696955 -5.1875 2.75 C-6.115625 2.8325 -7.04375 2.915 -8 3 C-8 2.34 -8 1.68 -8 1 C-3.375 -1.125 -3.375 -1.125 0 0 Z " fill="#997E13" transform="translate(87,95)"/>
<path d="M0 0 C-1.36682561 4.10047683 -3.25983367 4.9534939 -7 7 C-10.375 7.25 -10.375 7.25 -13 7 C-12.484375 6.773125 -11.96875 6.54625 -11.4375 6.3125 C-8.61037537 4.79020212 -6.1443408 2.95620506 -3.5859375 1.0234375 C-2 0 -2 0 0 0 Z " fill="#6F8998" transform="translate(48,133)"/>
<path d="M0 0 C0.86625 0.3403125 0.86625 0.3403125 1.75 0.6875 C0.1 2.3375 -1.55 3.9875 -3.25 5.6875 C-3.58 5.0275 -3.91 4.3675 -4.25 3.6875 C-4.91 3.3575 -5.57 3.0275 -6.25 2.6875 C-2.80384615 -0.38942308 -2.80384615 -0.38942308 0 0 Z " fill="#88E1F7" transform="translate(83.25,121.3125)"/>
<path d="M0 0 C0.433125 0.9590625 0.433125 0.9590625 0.875 1.9375 C1.82823451 4.15206079 1.82823451 4.15206079 4 5 C3.34 6.65 2.68 8.3 2 10 C1.01 10 0.02 10 -1 10 C-1 9.34 -1 8.68 -1 8 C-0.34 8 0.32 8 1 8 C0.01 6.68 -0.98 5.36 -2 4 C-1.34 4 -0.68 4 0 4 C0 2.68 0 1.36 0 0 Z " fill="#F8EA69" transform="translate(69,98)"/>
<path d="M0 0 C2.125 0.375 2.125 0.375 4 1 C2.37660195 2.70884005 0.70680947 4.37446717 -1 6 C-1.66 6 -2.32 6 -3 6 C-2.42655063 3.13275314 -2.1385485 2.1385485 0 0 Z " fill="#5EA9BE" transform="translate(119,100)"/>
<path d="M0 0 C0.66 0 1.32 0 2 0 C2 0.66 2 1.32 2 2 C-0.3125 4.1875 -0.3125 4.1875 -3 6 C-3.99 5.67 -4.98 5.34 -6 5 C-6 3.68 -6 2.36 -6 1 C-4.7934375 1.0309375 -4.7934375 1.0309375 -3.5625 1.0625 C-1.06645115 1.29633621 -1.06645115 1.29633621 0 0 Z " fill="#619DB0" transform="translate(120,79)"/>
<path d="M0 0 C2.64 0.66 5.28 1.32 8 2 C8 2.66 8 3.32 8 4 C5.03 4 2.06 4 -1 4 C-0.67 2.68 -0.34 1.36 0 0 Z " fill="#A7ABAE" transform="translate(86,71)"/>
<path d="M0 0 C0.66 0 1.32 0 2 0 C2 2.64 2 5.28 2 8 C0.35 7.67 -1.3 7.34 -3 7 C-2.67 6.01 -2.34 5.02 -2 4 C-2 4.66 -2 5.32 -2 6 C-1.34 6 -0.68 6 0 6 C0 4.02 0 2.04 0 0 Z " fill="#284A65" transform="translate(86,59)"/>
<path d="M0 0 C2.475 0.99 2.475 0.99 5 2 C4.67 3.98 4.34 5.96 4 8 C3.34 8 2.68 8 2 8 C-0.1519437 4.77208445 -0.20086443 3.71599191 0 0 Z " fill="#FD714E" transform="translate(36,35)"/>
<path d="M0 0 C2.49505962 2.49505962 2.35948376 3.67328888 2.625 7.125 C2.69976562 8.03507812 2.77453125 8.94515625 2.8515625 9.8828125 C2.92503906 10.93082031 2.92503906 10.93082031 3 12 C0.2159368 9.4180059 -0.62531069 7.84056546 -1 4 C-0.5625 1.6875 -0.5625 1.6875 0 0 Z " fill="#B43A23" transform="translate(67,30)"/>
<path d="M0 0 C-2.25 2.5 -2.25 2.5 -5 5 C-6.32 5 -7.64 5 -9 5 C-9.33 4.01 -9.66 3.02 -10 2 C-6.49223216 0.39644899 -3.85645121 -0.22036864 0 0 Z " fill="#45E1FE" transform="translate(39,130)"/>
<path d="M0 0 C1.32 0.66 2.64 1.32 4 2 C1.69 3.32 -0.62 4.64 -3 6 C-3 4.68 -3 3.36 -3 2 C-2.01 1.34 -1.02 0.68 0 0 Z " fill="#656867" transform="translate(63,110)"/>
<path d="M0 0 C0.99 0.33 1.98 0.66 3 1 C3.33 1.99 3.66 2.98 4 4 C3.01 4.66 2.02 5.32 1 6 C0.01 5.67 -0.98 5.34 -2 5 C-1.34 5 -0.68 5 0 5 C0 4.34 0 3.68 0 3 C-0.66 3 -1.32 3 -2 3 C-2 2.34 -2 1.68 -2 1 C-1.34 0.67 -0.68 0.34 0 0 Z " fill="#45D0F0" transform="translate(122,94)"/>
<path d="M0 0 C0 0.66 0 1.32 0 2 C-1.75 3.2890625 -1.75 3.2890625 -4 4.625 C-4.7425 5.07101563 -5.485 5.51703125 -6.25 5.9765625 C-6.8275 6.31429687 -7.405 6.65203125 -8 7 C-8.66 6.01 -9.32 5.02 -10 4 C-8.68 3.67 -7.36 3.34 -6 3 C-6 2.34 -6 1.68 -6 1 C-3.92446352 0.4465236 -2.15634036 0 0 0 Z " fill="#6EA3B3" transform="translate(144,85)"/>
<path d="M0 0 C1.32 0 2.64 0 4 0 C4 1.98 4 3.96 4 6 C2.68 6 1.36 6 0 6 C0 4.02 0 2.04 0 0 Z " fill="#DB4425" transform="translate(111,68)"/>
<path d="M0 0 C-1.15173355 2.46800047 -2.04783565 4.04783565 -4 6 C-6.625 6.125 -6.625 6.125 -9 6 C-8.360625 5.71125 -7.72125 5.4225 -7.0625 5.125 C-4.84793921 4.17176549 -4.84793921 4.17176549 -4 2 C-4.66 1.67 -5.32 1.34 -6 1 C-4 0 -4 0 0 0 Z " fill="#EC502D" transform="translate(71,56)"/>
<path d="M0 0 C0.66 0 1.32 0 2 0 C2.144375 1.051875 2.28875 2.10375 2.4375 3.1875 C2.87526966 6.15460549 3.37804866 9.06794366 4 12 C3.01 11.67 2.02 11.34 1 11 C-0.28317892 7.15046324 -0.06643637 4.05261865 0 0 Z " fill="#A82711" transform="translate(79,40)"/>
<path d="M0 0 C0.66 0.33 1.32 0.66 2 1 C2 1.99 2 2.98 2 4 C-3.75 5.125 -3.75 5.125 -6 4 C-4.02 2.68 -2.04 1.36 0 0 Z " fill="#7CE6F9" transform="translate(58,136)"/>
<path d="M0 0 C0.99 0.33 1.98 0.66 3 1 C0.9375 3.5625 0.9375 3.5625 -2 6 C-5.8125 5.8125 -5.8125 5.8125 -9 5 C-8.443125 4.731875 -7.88625 4.46375 -7.3125 4.1875 C-4.90694879 3.00469337 -4.90694879 3.00469337 -2.4375 1.3125 C-1.633125 0.879375 -0.82875 0.44625 0 0 Z " fill="#52D6FA" transform="translate(41,128)"/>
<path d="M0 0 C0.33 1.32 0.66 2.64 1 4 C-0.98 4.33 -2.96 4.66 -5 5 C-4.67 3.68 -4.34 2.36 -4 1 C-2.68 0.67 -1.36 0.34 0 0 Z " fill="#2B576A" transform="translate(32,20)"/>
<path d="M0 0 C0.99 0 1.98 0 3 0 C3.33 1.98 3.66 3.96 4 6 C2.02 6.99 2.02 6.99 0 8 C0.875 3.25 0.875 3.25 2 1 C1.34 0.67 0.68 0.34 0 0 Z " fill="#FC5F39" transform="translate(39,36)"/>
<path d="M0 0 C0.33 1.65 0.66 3.3 1 5 C-0.65 5.33 -2.3 5.66 -4 6 C-4 4.35 -4 2.7 -4 1 C-2 0 -2 0 0 0 Z " fill="#696B6B" transform="translate(30,12)"/>
<path d="M0 0 C2.475 0.99 2.475 0.99 5 2 C5 3.32 5 4.64 5 6 C4.01 6 3.02 6 2 6 C2 5.34 2 4.68 2 4 C1.36525925 2.65117592 0.70151152 1.3153341 0 0 Z " fill="#62531C" transform="translate(96,109)"/>
<path d="M0 0 C1.98 0.495 1.98 0.495 4 1 C3.6875 2.9375 3.6875 2.9375 3 5 C2.01 5.33 1.02 5.66 0 6 C-1 3 -1 3 0 0 Z " fill="#3CBADE" transform="translate(123,68)"/>
<path d="M0 0 C0.33 0.99 0.66 1.98 1 3 C0.34 3.66 -0.32 4.32 -1 5 C-3.125 4.625 -3.125 4.625 -5 4 C-5 3.34 -5 2.68 -5 2 C-2 0 -2 0 0 0 Z " fill="#AF3516" transform="translate(52,43)"/>
<path d="M0 0 C2.64 1.98 5.28 3.96 8 6 C7.67 6.66 7.34 7.32 7 8 C6.34 8 5.68 8 5 8 C5 7.34 5 6.68 5 6 C4.34 6 3.68 6 3 6 C3 5.34 3 4.68 3 4 C2.01 3.67 1.02 3.34 0 3 C0 2.01 0 1.02 0 0 Z " fill="#DA6656" transform="translate(73,31)"/>
<path d="M0 0 C0.99 0 1.98 0 3 0 C3 0.66 3 1.32 3 2 C3.99 2 4.98 2 6 2 C6.33 2.99 6.66 3.98 7 5 C6.01 5.33 5.02 5.66 4 6 C3.34 5.67 2.68 5.34 2 5 C2 3.68 2 2.36 2 1 C1.34 0.67 0.68 0.34 0 0 Z " fill="#EB906B" transform="translate(31,29)"/>
<path d="M0 0 C2.475 0.99 2.475 0.99 5 2 C4.34 3.32 3.68 4.64 3 6 C1.68 5.34 0.36 4.68 -1 4 C-0.67 2.68 -0.34 1.36 0 0 Z " fill="#EDC71B" transform="translate(99,106)"/>
<path d="M0 0 C0.78375 0.04125 1.5675 0.0825 2.375 0.125 C0.725 1.775 -0.925 3.425 -2.625 5.125 C-3.285 4.135 -3.945 3.145 -4.625 2.125 C-2.625 0.125 -2.625 0.125 0 0 Z " fill="#637C86" transform="translate(113.625,105.875)"/>
<path d="M0 0 C2 3 2 3 2 5 C-0.31 5.33 -2.62 5.66 -5 6 C-3.35 4.02 -1.7 2.04 0 0 Z " fill="#8B1809" transform="translate(65,52)"/>
<path d="M0 0 C0.6875 1.6875 0.6875 1.6875 1 4 C-0.3125 6.75 -0.3125 6.75 -2 9 C-2.66 9 -3.32 9 -4 9 C-3.34 7.02 -2.68 5.04 -2 3 C-1.34 3 -0.68 3 0 3 C0 2.01 0 1.02 0 0 Z " fill="#EB451E" transform="translate(50,34)"/>
<path d="M0 0 C0 0.99 0 1.98 0 3 C-2.5 4.6875 -2.5 4.6875 -5 6 C-4.625 3.5625 -4.625 3.5625 -4 1 C-2 0 -2 0 0 0 Z " fill="#43D0F4" transform="translate(79,130)"/>
<path d="M0 0 C0.99 0 1.98 0 3 0 C3 0.99 3 1.98 3 3 C3.99 2.67 4.98 2.34 6 2 C6 2.66 6 3.32 6 4 C4.02 4 2.04 4 0 4 C-0.33 3.34 -0.66 2.68 -1 2 C-0.67 1.34 -0.34 0.68 0 0 Z " fill="#F7E550" transform="translate(89,110)"/>
<path d="M0 0 C1.32 0.66 2.64 1.32 4 2 C4 2.99 4 3.98 4 5 C2.0625 4.625 2.0625 4.625 0 4 C-0.33 3.34 -0.66 2.68 -1 2 C-0.67 1.34 -0.34 0.68 0 0 Z " fill="#FEF646" transform="translate(94,103)"/>
<path d="M0 0 C2.64 1.65 5.28 3.3 8 5 C6.68 5.33 5.36 5.66 4 6 C1.75 4.1875 1.75 4.1875 0 2 C0 1.34 0 0.68 0 0 Z " fill="#0F3359" transform="translate(67,86)"/>
<path d="M0 0 C1 2 1 2 0.0625 5.125 C-0.288125 6.07375 -0.63875 7.0225 -1 8 C-1.66 8 -2.32 8 -3 8 C-3.75 6.25 -3.75 6.25 -4 4 C-2.0625 1.75 -2.0625 1.75 0 0 Z " fill="#1F5D82" transform="translate(55,80)"/>
<path d="M0 0 C0.66 0 1.32 0 2 0 C2 0.66 2 1.32 2 2 C3.9600281 3.63676257 3.9600281 3.63676257 6 5 C5.01 5.495 5.01 5.495 4 6 C2.02 4.68 0.04 3.36 -2 2 C-1.34 1.34 -0.68 0.68 0 0 Z " fill="#978451" transform="translate(21,67)"/>
<path d="M0 0 C1.5 1.375 1.5 1.375 3 3 C3 3.66 3 4.32 3 5 C1.68 5.33 0.36 5.66 -1 6 C-1 5.01 -1 4.02 -1 3 C-1.99 2.67 -2.98 2.34 -4 2 C-2.68 2 -1.36 2 0 2 C0 1.34 0 0.68 0 0 Z " fill="#917C35" transform="translate(31,60)"/>
<path d="M0 0 C0.66 0.33 1.32 0.66 2 1 C2 1.66 2 2.32 2 3 C1.34 3 0.68 3 0 3 C0 3.66 0 4.32 0 5 C-1.65 5.66 -3.3 6.32 -5 7 C-3.35 4.69 -1.7 2.38 0 0 Z " fill="#D64221" transform="translate(58,19)"/>
</svg>
