<?xml version="1.0" encoding="UTF-8"?>
<svg version="1.1" xmlns="http://www.w3.org/2000/svg" width="20" height="20" viewBox="0 0 160 160">
<path d="M0 0 C0.54140625 0.50015625 1.0828125 1.0003125 1.640625 1.515625 C3.56844349 3.16555975 5.58836565 4.42320374 7.75 5.75 C23.41126697 16.09334949 30.15597331 33.49013385 34.375 51 C37.67555861 68.3436997 33.17080211 87.01726095 23.8828125 101.859375 C21.98758433 104.55000982 19.7285453 106.70680201 17.375 109 C16.55549243 110.27418453 15.76583055 111.56784949 15 112.875 C6.80806975 126.35123094 -8.60980442 133.96368702 -23.39453125 138.0390625 C-36.13752849 140.84750885 -46.9668481 141.23858593 -58.95703125 135.9765625 C-62.05269958 134.84344818 -65.06624033 134.31709575 -68.3125 133.75 C-83.28170927 130.58792978 -96.1329734 119.47594032 -104.625 107 C-105.21925781 106.18144531 -105.81351563 105.36289063 -106.42578125 104.51953125 C-116.73673535 89.57195968 -120.64766578 70.34828535 -118.125 52.453125 C-115.0563115 36.7609679 -108.71050019 20.94757971 -96.625 10 C-95.635 9.54625 -94.645 9.0925 -93.625 8.625 C-90.31694999 6.83313958 -89.24542966 4.95807148 -87.19921875 1.8984375 C-78.88066766 -8.13336357 -62.54135259 -12.1958837 -50.1328125 -13.78125 C-32.39048147 -14.88767599 -13.8126217 -12.07419105 0 0 Z " fill="#B0C713" transform="translate(122.625,19)"/>
<path d="M0 0 C1.4540625 1.3303125 1.4540625 1.3303125 2.9375 2.6875 C3.5975 3.0175 4.2575 3.3475 4.9375 3.6875 C5.90645226 5.35810734 6.87014544 7.0321689 7.796875 8.7265625 C8.92070984 10.65863472 10.15851886 12.40155222 11.5 14.1875 C13.89348715 17.49036677 15.48888051 20.88749816 16.9375 24.6875 C17.31777344 25.62464844 17.69804687 26.56179687 18.08984375 27.52734375 C21.24589989 35.44146628 23.81220343 43.4363486 25.9375 51.6875 C26.23140625 52.82445313 26.23140625 52.82445313 26.53125 53.984375 C28.95189576 70.09097947 27.59718015 89.16052041 19.9375 103.6875 C19.2775 103.6875 18.6175 103.6875 17.9375 103.6875 C17.94797363 102.62539307 17.95844727 101.56328613 17.96923828 100.46899414 C18.00606965 96.44136064 18.02862431 92.41374118 18.04736328 88.38598633 C18.0572798 86.65907266 18.07081713 84.93217511 18.08837891 83.20532227 C18.20389026 71.53527814 17.59836469 60.24333589 15.9375 48.6875 C14.4525 49.1825 14.4525 49.1825 12.9375 49.6875 C12.23483387 52.66324276 12.23483387 52.66324276 11.9375 55.6875 C12.5975 56.0175 13.2575 56.3475 13.9375 56.6875 C12.7 57.14125 11.4625 57.595 10.1875 58.0625 C7.34504505 59.1259007 4.61086954 60.23942483 1.9375 61.6875 C2.2675 62.6775 2.5975 63.6675 2.9375 64.6875 C0.92960066 66.33684589 -0.57565067 67.56947592 -3.125 68.1875 C-5.50395275 68.80142329 -6.47363815 69.86030887 -8.0625 71.6875 C-8.7225 71.0275 -9.3825 70.3675 -10.0625 69.6875 C-9.0725 68.6975 -8.0825 67.7075 -7.0625 66.6875 C-7.3925 66.3575 -7.7225 66.0275 -8.0625 65.6875 C-10.10121245 65.8637044 -10.10121245 65.8637044 -12.0625 66.6875 C-12.5575 68.1725 -12.5575 68.1725 -13.0625 69.6875 C-12.4025 69.6875 -11.7425 69.6875 -11.0625 69.6875 C-11.0625 70.3475 -11.0625 71.0075 -11.0625 71.6875 C-14.9375 69.9375 -14.9375 69.9375 -16.0625 67.6875 C-19.17582248 68.35618314 -19.17582248 68.35618314 -20.25 70.75 C-20.518125 71.389375 -20.78625 72.02875 -21.0625 72.6875 C-20.4025 73.3475 -19.7425 74.0075 -19.0625 74.6875 C-20.7125 75.0175 -22.3625 75.3475 -24.0625 75.6875 C-24.0625 77.0075 -24.0625 78.3275 -24.0625 79.6875 C-32.49107143 83.11607143 -32.49107143 83.11607143 -37.0625 82.6875 C-37.5575 84.1725 -37.5575 84.1725 -38.0625 85.6875 C-38.3925 85.0275 -38.7225 84.3675 -39.0625 83.6875 C-38.0625 81.6875 -38.0625 81.6875 -35.0625 80.6875 C-35.0625 79.6975 -35.0625 78.7075 -35.0625 77.6875 C-33.5775 77.1925 -33.5775 77.1925 -32.0625 76.6875 C-32.0625 76.0275 -32.0625 75.3675 -32.0625 74.6875 C-31.4025 74.6875 -30.7425 74.6875 -30.0625 74.6875 C-30.0625 74.0275 -30.0625 73.3675 -30.0625 72.6875 C-29.7325 72.3575 -29.4025 72.0275 -29.0625 71.6875 C-30.0525 71.6875 -31.0425 71.6875 -32.0625 71.6875 C-32.743125 72.863125 -32.743125 72.863125 -33.4375 74.0625 C-35.0625 76.6875 -35.0625 76.6875 -37.3125 78.25 C-41.54445532 78.92326562 -43.55654281 77.02480479 -47.0625 74.6875 C-45.72916667 73.35416667 -44.39583333 72.02083333 -43.0625 70.6875 C-46.3625 70.0275 -49.6625 69.3675 -53.0625 68.6875 C-53.3925 69.3475 -53.7225 70.0075 -54.0625 70.6875 C-52.7425 71.3475 -51.4225 72.0075 -50.0625 72.6875 C-50.1553125 73.739375 -50.1553125 73.739375 -50.25 74.8125 C-50.27993398 77.77667678 -50.27993398 77.77667678 -48.5 80.25 C-46.3865718 85.30385005 -46.66766167 90.40540731 -48.0625 95.6875 C-49.87109375 97.55078125 -49.87109375 97.55078125 -52.0625 98.6875 C-53.3825 98.6875 -54.7025 98.6875 -56.0625 98.6875 C-57.0525 99.1825 -57.0525 99.1825 -58.0625 99.6875 C-58.43761719 98.87925781 -58.81273437 98.07101563 -59.19921875 97.23828125 C-61.96712185 91.45845337 -64.39262014 87.12388587 -69.0625 82.6875 C-69.95301855 81.29339748 -70.80193716 79.87246087 -71.625 78.4375 C-74.47923129 73.47780978 -77.72296961 68.88752885 -81.0625 64.25 C-85.56600965 57.95540775 -89.68277671 51.67151291 -93.0625 44.6875 C-93.46082031 43.86507812 -93.85914063 43.04265625 -94.26953125 42.1953125 C-97.97258195 34.21347177 -99.90886169 25.22620765 -97.44921875 16.515625 C-96.47225607 14.43258562 -95.34169248 12.60085306 -94.0625 10.6875 C-93.51464844 9.800625 -92.96679688 8.91375 -92.40234375 8 C-83.81827653 -4.97304615 -71.38396361 -9.54747669 -56.84765625 -13.09765625 C-37.31913316 -16.81620226 -15.33710634 -13.15961593 0 0 Z " fill="#D9EF0A" transform="translate(123.0625,19.3125)"/>
<path d="M0 0 C1.4540625 1.3303125 1.4540625 1.3303125 2.9375 2.6875 C3.5975 3.0175 4.2575 3.3475 4.9375 3.6875 C5.90645226 5.35810734 6.87014544 7.0321689 7.796875 8.7265625 C8.92070984 10.65863472 10.15851886 12.40155222 11.5 14.1875 C13.89348715 17.49036677 15.48888051 20.88749816 16.9375 24.6875 C17.31777344 25.62464844 17.69804687 26.56179687 18.08984375 27.52734375 C21.24589989 35.44146628 23.81220343 43.4363486 25.9375 51.6875 C26.23140625 52.82445313 26.23140625 52.82445313 26.53125 53.984375 C28.95189576 70.09097947 27.59718015 89.16052041 19.9375 103.6875 C19.2775 103.6875 18.6175 103.6875 17.9375 103.6875 C17.95844727 102.67776123 17.97939453 101.66802246 18.00097656 100.62768555 C19.13269462 65.00661591 19.13269462 65.00661591 10.9375 30.6875 C10.14259355 28.12966769 9.41014479 25.56219449 8.68359375 22.984375 C8.00000484 20.66873721 8.00000484 20.66873721 6.84765625 18.578125 C5.9375 16.6875 5.9375 16.6875 5.9375 13.6875 C5.31875 13.460625 4.7 13.23375 4.0625 13 C1.32339791 11.30820165 0.88725528 9.69505839 -0.0625 6.6875 C-2.39325929 7.64615509 -2.39325929 7.64615509 -4.0625 10.6875 C-4.805 9.8625 -5.5475 9.0375 -6.3125 8.1875 C-8.93637385 5.23905147 -8.93637385 5.23905147 -13.0625 5.6875 C-13.3925 6.3475 -13.7225 7.0075 -14.0625 7.6875 C-14.0625 7.0275 -14.0625 6.3675 -14.0625 5.6875 C-16.3725 5.0275 -18.6825 4.3675 -21.0625 3.6875 C-21.0625 3.0275 -21.0625 2.3675 -21.0625 1.6875 C-22.238125 1.4709375 -22.238125 1.4709375 -23.4375 1.25 C-26.0625 0.6875 -26.0625 0.6875 -28.0625 -0.3125 C-28.0625 0.3475 -28.0625 1.0075 -28.0625 1.6875 C-29.3825 1.6875 -30.7025 1.6875 -32.0625 1.6875 C-32.289375 2.47125 -32.51625 3.255 -32.75 4.0625 C-34.0625 6.6875 -34.0625 6.6875 -36.625 7.9375 C-37.429375 8.185 -38.23375 8.4325 -39.0625 8.6875 C-39.5575 9.1825 -39.5575 9.1825 -40.0625 9.6875 C-41.72867115 9.72813832 -43.39638095 9.730221 -45.0625 9.6875 C-45.3925 10.3475 -45.7225 11.0075 -46.0625 11.6875 C-49.06667161 11.26831326 -51.6332211 10.89633838 -54.375 9.5625 C-58.3626207 8.26420489 -61.97975862 9.02928026 -66.0625 9.6875 C-65.4025 10.0175 -64.7425 10.3475 -64.0625 10.6875 C-64.53615575 14.95040179 -66.98488322 16.90298958 -70.0625 19.6875 C-71.0525 20.3475 -72.0425 21.0075 -73.0625 21.6875 C-73.3925 22.863125 -73.7225 24.03875 -74.0625 25.25 C-74.3925 26.384375 -74.7225 27.51875 -75.0625 28.6875 C-76.5475 29.1825 -76.5475 29.1825 -78.0625 29.6875 C-78.0625 29.0275 -78.0625 28.3675 -78.0625 27.6875 C-78.7225 28.3475 -79.3825 29.0075 -80.0625 29.6875 C-79.4025 31.9975 -78.7425 34.3075 -78.0625 36.6875 C-77.4025 36.6875 -76.7425 36.6875 -76.0625 36.6875 C-73.63681009 39.11318991 -73.08203596 40.48432604 -72.75 43.9375 C-71.41369512 51.22643572 -65.51032927 56.44899571 -60.67578125 61.828125 C-58.16775007 64.71873721 -56.28251201 67.02746396 -55.0625 70.6875 C-54.06949765 71.69444902 -53.06858626 72.69362353 -52.0625 73.6875 C-47.61320134 80.12920437 -46.56096876 85.38222589 -47.27734375 93.12109375 C-48.0625 95.6875 -48.0625 95.6875 -49.87890625 97.53515625 C-52.0625 98.6875 -52.0625 98.6875 -56.0625 98.6875 C-57.0525 99.1825 -57.0525 99.1825 -58.0625 99.6875 C-58.43761719 98.87925781 -58.81273437 98.07101563 -59.19921875 97.23828125 C-61.96712185 91.45845337 -64.39262014 87.12388587 -69.0625 82.6875 C-69.95301855 81.29339748 -70.80193716 79.87246087 -71.625 78.4375 C-74.47923129 73.47780978 -77.72296961 68.88752885 -81.0625 64.25 C-85.56600965 57.95540775 -89.68277671 51.67151291 -93.0625 44.6875 C-93.46082031 43.86507812 -93.85914063 43.04265625 -94.26953125 42.1953125 C-97.97258195 34.21347177 -99.90886169 25.22620765 -97.44921875 16.515625 C-96.47225607 14.43258562 -95.34169248 12.60085306 -94.0625 10.6875 C-93.51464844 9.800625 -92.96679688 8.91375 -92.40234375 8 C-83.81827653 -4.97304615 -71.38396361 -9.54747669 -56.84765625 -13.09765625 C-37.31913316 -16.81620226 -15.33710634 -13.15961593 0 0 Z M-21.0625 -1.3125 C-21.0625 -0.3225 -21.0625 0.6675 -21.0625 1.6875 C-20.4025 1.6875 -19.7425 1.6875 -19.0625 1.6875 C-19.3925 0.6975 -19.7225 -0.2925 -20.0625 -1.3125 C-20.3925 -1.3125 -20.7225 -1.3125 -21.0625 -1.3125 Z " fill="#DAF138" transform="translate(123.0625,19.3125)"/>
<path d="M0 0 C0.495 0.99 0.495 0.99 1 2 C1.66 2 2.32 2 3 2 C3.31761304 3.33212461 3.62873987 4.66579566 3.9375 6 C4.19853516 7.11375 4.19853516 7.11375 4.46484375 8.25 C6.05344921 16.41334482 6.18303585 24.38864837 6.1875 32.6875 C6.19974609 33.89728516 6.21199219 35.10707031 6.22460938 36.35351562 C6.22654297 37.51947266 6.22847656 38.68542969 6.23046875 39.88671875 C6.23457764 40.94076904 6.23868652 41.99481934 6.24291992 43.08081055 C5.89597023 47.25013458 4.96967491 50.03032509 2 53 C2 54.32 2 55.64 2 57 C1.34 57 0.68 57 0 57 C-0.33 57.99 -0.66 58.98 -1 60 C-1.99 60.66 -2.98 61.32 -4 62 C-4.33 62.99 -4.66 63.98 -5 65 C-6.65071396 66.02611949 -8.31970006 67.02308143 -10 68 C-11.36984198 69.29579647 -12.7151049 70.61992749 -14 72 C-14.99 71.67 -15.98 71.34 -17 71 C-17.70125 71.94875 -18.4025 72.8975 -19.125 73.875 C-21.77021852 77.04777614 -23.96531717 77.95098246 -28 79 C-28.99 79.474375 -29.98 79.94875 -31 80.4375 C-40.0415468 84.40450383 -51.16275338 86 -61 86 C-60.12405187 83.22616425 -59.2538486 80.52029273 -57.9765625 77.90234375 C-52.79962534 66.90594177 -54.20744179 55.54546221 -57.77734375 44.234375 C-59.23997768 40.36517087 -60.98503483 36.7669726 -63.046875 33.18359375 C-64 31 -64 31 -63.953125 28.34765625 C-63.96859375 27.57292969 -63.9840625 26.79820313 -64 26 C-64.99 25.34 -65.98 24.68 -67 24 C-66.505 22.515 -66.505 22.515 -66 21 C-62.7 21.66 -59.4 22.32 -56 23 C-56 23.99 -56 24.98 -56 26 C-56.99 26.33 -57.98 26.66 -59 27 C-57.68 27.66 -56.36 28.32 -55 29 C-55 29.66 -55 30.32 -55 31 C-51.29624453 30.4994925 -49.36921101 29.93330887 -47 27 C-46.34 26.01 -45.68 25.02 -45 24 C-43.68 24 -42.36 24 -41 24 C-41 24.66 -41 25.32 -41 26 C-41.66 26 -42.32 26 -43 26 C-43 26.66 -43 27.32 -43 28 C-43.66 28 -44.32 28 -45 28 C-45 28.66 -45 29.32 -45 30 C-45.99 30.66 -46.98 31.32 -48 32 C-48 32.99 -48 33.98 -48 35 C-48.99 35 -49.98 35 -51 35 C-51 35.99 -51 36.98 -51 38 C-50.67 37.34 -50.34 36.68 -50 36 C-47.56640625 35.1484375 -47.56640625 35.1484375 -44.5625 34.375 C-43.07943359 33.98441406 -43.07943359 33.98441406 -41.56640625 33.5859375 C-39 33 -39 33 -37 33 C-37 31.68 -37 30.36 -37 29 C-35.68 28.67 -34.36 28.34 -33 28 C-33.66 27.34 -34.32 26.68 -35 26 C-30.25 21.125 -30.25 21.125 -28 20 C-27.71125 20.639375 -27.4225 21.27875 -27.125 21.9375 C-26.17176549 24.15206079 -26.17176549 24.15206079 -24 25 C-24 24.34 -24 23.68 -24 23 C-24.66 23 -25.32 23 -26 23 C-25.67 21.68 -25.34 20.36 -25 19 C-24.38125 18.855625 -23.7625 18.71125 -23.125 18.5625 C-20.96741678 18.06847775 -20.96741678 18.06847775 -19 17 C-19.165 17.78375 -19.33 18.5675 -19.5 19.375 C-20.0623707 21.88208039 -20.0623707 21.88208039 -20 24 C-19.34 23.01 -18.68 22.02 -18 21 C-15.37710567 19.78943339 -12.74061339 18.9135378 -10 18 C-10 17.34 -10 16.68 -10 16 C-10.66 15.67 -11.32 15.34 -12 15 C-9.22920113 11.19015156 -5.37131855 10.93159248 -1 10 C-1.99 9.67 -2.98 9.34 -4 9 C-2.515 8.01 -2.515 8.01 -1 7 C-0.26393501 3.43230448 -0.26393501 3.43230448 0 0 Z " fill="#A7BE10" transform="translate(136,66)"/>
<path d="M0 0 C1.35278115 1.98689731 2.68568305 3.98745218 4 6 C4.99 6.495 4.99 6.495 6 7 C7.91001746 11.23607832 9.41729434 15.63253375 11 20 C11.30421875 20.7940625 11.6084375 21.588125 11.921875 22.40625 C14.24799703 28.76748168 15.12049592 35.3054219 16 42 C14.515 42.495 14.515 42.495 13 43 C12.29733387 45.97574276 12.29733387 45.97574276 12 49 C12.66 49.33 13.32 49.66 14 50 C12.7625 50.45375 11.525 50.9075 10.25 51.375 C7.40754505 52.4384007 4.67336954 53.55192483 2 55 C2.33 55.99 2.66 56.98 3 58 C0.99210066 59.64934589 -0.51315067 60.88197592 -3.0625 61.5 C-5.44145275 62.11392329 -6.41113815 63.17280887 -8 65 C-8.66 64.34 -9.32 63.68 -10 63 C-9.01 62.01 -8.02 61.02 -7 60 C-7.33 59.67 -7.66 59.34 -8 59 C-10.03871245 59.1762044 -10.03871245 59.1762044 -12 60 C-12.33 60.99 -12.66 61.98 -13 63 C-12.34 63 -11.68 63 -11 63 C-11 63.66 -11 64.32 -11 65 C-14.875 63.25 -14.875 63.25 -16 61 C-19.11332248 61.66868314 -19.11332248 61.66868314 -20.1875 64.0625 C-20.455625 64.701875 -20.72375 65.34125 -21 66 C-20.01 66.99 -20.01 66.99 -19 68 C-21.475 68.495 -21.475 68.495 -24 69 C-24 70.32 -24 71.64 -24 73 C-32.42857143 76.42857143 -32.42857143 76.42857143 -37 76 C-37.495 77.485 -37.495 77.485 -38 79 C-38.33 78.34 -38.66 77.68 -39 77 C-38 75 -38 75 -35 74 C-35 73.01 -35 72.02 -35 71 C-34.01 70.67 -33.02 70.34 -32 70 C-32 69.34 -32 68.68 -32 68 C-31.34 68 -30.68 68 -30 68 C-30 67.34 -30 66.68 -30 66 C-29.67 65.67 -29.34 65.34 -29 65 C-29.99 65 -30.98 65 -32 65 C-32.680625 66.175625 -32.680625 66.175625 -33.375 67.375 C-35 70 -35 70 -37.25 71.5625 C-41.48195532 72.23576562 -43.49404281 70.33730479 -47 68 C-45.66666667 66.66666667 -44.33333333 65.33333333 -43 64 C-46.3 63.34 -49.6 62.68 -53 62 C-53.33 62.66 -53.66 63.32 -54 64 C-52.68 64.66 -51.36 65.32 -50 66 C-50.66 66.99 -51.32 67.98 -52 69 C-52.103125 68.360625 -52.20625 67.72125 -52.3125 67.0625 C-52.539375 66.381875 -52.76625 65.70125 -53 65 C-54.485 64.505 -54.485 64.505 -56 64 C-57.0358679 62.01833966 -58.03112419 60.01526169 -59 58 C-60.83035786 55.52016032 -62.67979836 53.30963828 -64.89453125 51.16796875 C-67.10862312 48.88815245 -68.91812057 46.53266253 -70.75 43.9375 C-71.36359375 43.08027344 -71.9771875 42.22304687 -72.609375 41.33984375 C-74 39 -74 39 -74 36 C-73.34 36 -72.68 36 -72 36 C-69 39.46153846 -69 39.46153846 -69 42 C-67.02 41.505 -67.02 41.505 -65 41 C-64.835 41.639375 -64.67 42.27875 -64.5 42.9375 C-63.218214 45.16119241 -63.218214 45.16119241 -61.0859375 45.48828125 C-59.06424845 45.7275978 -57.03158061 45.86893028 -55 46 C-55 47.98 -55 49.96 -55 52 C-53.68 52 -52.36 52 -51 52 C-51 52.66 -51 53.32 -51 54 C-50.34 54.33 -49.68 54.66 -49 55 C-49.66 55 -50.32 55 -51 55 C-50.67 55.99 -50.34 56.98 -50 58 C-47.36 58 -44.72 58 -42 58 C-41.67 57.01 -41.34 56.02 -41 55 C-38.4375 53.8125 -38.4375 53.8125 -36 53 C-35.67 53.66 -35.34 54.32 -35 55 C-34.34 54.34 -33.68 53.68 -33 53 C-33 52.01 -33 51.02 -33 50 C-32.566875 50.474375 -32.13375 50.94875 -31.6875 51.4375 C-29.97690387 53.23686957 -29.97690387 53.23686957 -27 54 C-27 54.99 -27 55.98 -27 57 C-26.34 56.67 -25.68 56.34 -25 56 C-25 55.01 -25 54.02 -25 53 C-24.01 53 -23.02 53 -22 53 C-22 51.35 -22 49.7 -22 48 C-18.59437148 47.22157062 -15.49234244 46.90021879 -12 47 C-12 46.34 -12 45.68 -12 45 C-13.65 45 -15.3 45 -17 45 C-16.67 43.68 -16.34 42.36 -16 41 C-13.525 40.505 -13.525 40.505 -11 40 C-11 40.99 -11 41.98 -11 43 C-8.69 41.68 -6.38 40.36 -4 39 C-4.83333333 36.83333333 -4.83333333 36.83333333 -7 36 C-7 35.34 -7 34.68 -7 34 C-5.02 33.67 -3.04 33.34 -1 33 C-1 32.34 -1 31.68 -1 31 C-0.34 31 0.32 31 1 31 C1 30.01 1 29.02 1 28 C-0.98 28 -2.96 28 -5 28 C-5 27.01 -5 26.02 -5 25 C-5.94978897 22.84971696 -5.94978897 22.84971696 -7 21 C-6.34 21 -5.68 21 -5 21 C-4.67 19.68 -4.34 18.36 -4 17 C-5.485 17.495 -5.485 17.495 -7 18 C-6.625 16.0625 -6.625 16.0625 -6 14 C-5.34 13.67 -4.68 13.34 -4 13 C-4.99 12.34 -5.98 11.68 -7 11 C-4.6557377 0 -4.6557377 0 0 0 Z " fill="#BFD611" transform="translate(123,26)"/>
<path d="M0 0 C0.66 0.33 1.32 0.66 2 1 C1.34 1.66 0.68 2.32 0 3 C-4.23955439 10.50075007 -4.09857438 18.78071614 -1.875 27 C2.08125329 38.34961351 8.28266544 47.58786929 15.32543945 57.23388672 C15.92702881 58.06549316 16.52861816 58.89709961 17.1484375 59.75390625 C17.69677246 60.49970947 18.24510742 61.2455127 18.81005859 62.01391602 C20 64 20 64 20 67 C18.68 67 17.36 67 16 67 C15.67 66.34 15.34 65.68 15 65 C14.34 65 13.68 65 13 65 C14.11854586 68.72614153 14.11854586 68.72614153 17 71 C16.01 71.33 15.02 71.66 14 72 C13.67 72.66 13.34 73.32 13 74 C10 73 10 73 8 72 C8 72.66 8 73.32 8 74 C7.01 74 6.02 74 5 74 C5 73.34 5 72.68 5 72 C3.515 72.495 3.515 72.495 2 73 C2.33 71.68 2.66 70.36 3 69 C1.68 69 0.36 69 -1 69 C-1.12375 69.639375 -1.2475 70.27875 -1.375 70.9375 C-1.58125 71.618125 -1.7875 72.29875 -2 73 C-2.99 73.495 -2.99 73.495 -4 74 C-4.33 72.02 -4.66 70.04 -5 68 C-6.485 68.495 -6.485 68.495 -8 69 C-9.485 68.505 -9.485 68.505 -11 68 C-11.33 68.639375 -11.66 69.27875 -12 69.9375 C-15.02329832 73.0552764 -17.73656724 72.72043064 -22 73 C-27.89316085 56.49914961 -25.02606881 39.23718834 -18.5859375 23.3125 C-14.67260683 15.13884382 -9.7849217 7.07999477 -3 1 C-2.01 0.67 -1.02 0.34 0 0 Z " fill="#CEE414" transform="translate(29,28)"/>
<path d="M0 0 C0.33 0 0.66 0 1 0 C1.0871747 3.74985325 1.14045003 7.49944555 1.1875 11.25 C1.21263672 12.31347656 1.23777344 13.37695312 1.26367188 14.47265625 C1.27333984 15.49746094 1.28300781 16.52226563 1.29296875 17.578125 C1.3086792 18.52075195 1.32438965 19.46337891 1.34057617 20.43457031 C0.93937518 23.45666352 -0.16333554 24.63100851 -2 27 C-2 28.32 -2 29.64 -2 31 C-2.66 31 -3.32 31 -4 31 C-4.33 31.99 -4.66 32.98 -5 34 C-5.99 34.66 -6.98 35.32 -8 36 C-8.33 36.99 -8.66 37.98 -9 39 C-10.65071396 40.02611949 -12.31970006 41.02308143 -14 42 C-15.36984198 43.29579647 -16.7151049 44.61992749 -18 46 C-18.99 45.67 -19.98 45.34 -21 45 C-21.70125 45.94875 -22.4025 46.8975 -23.125 47.875 C-25.77021852 51.04777614 -27.96531717 51.95098246 -32 53 C-32.99 53.474375 -33.98 53.94875 -35 54.4375 C-44.0415468 58.40450383 -55.16275338 60 -65 60 C-63.28095502 54.55635758 -63.28095502 54.55635758 -62.01171875 52.04296875 C-57.87966665 43.46332602 -58.19181432 34.34135749 -58 25 C-57.34 24.67 -56.68 24.34 -56 24 C-56 24.66 -56 25.32 -56 26 C-55.34 26.33 -54.68 26.66 -54 27 C-52.6296945 28.97485205 -51.29327628 30.97386717 -50 33 C-50.99 33 -51.98 33 -53 33 C-52.34 34.32 -51.68 35.64 -51 37 C-50.67 36.34 -50.34 35.68 -50 35 C-48.68 35.33 -47.36 35.66 -46 36 C-46 35.01 -46 34.02 -46 33 C-45.34 33 -44.68 33 -44 33 C-43.731875 32.360625 -43.46375 31.72125 -43.1875 31.0625 C-42 29 -42 29 -39 28 C-38.34 28.99 -37.68 29.98 -37 31 C-36.34 30.34 -35.68 29.68 -35 29 C-33.7934375 28.5359375 -33.7934375 28.5359375 -32.5625 28.0625 C-29.95851946 26.98280075 -28.5619438 26.3429157 -27 24 C-27.28566879 21.64934822 -27.28566879 21.64934822 -28 19 C-28.5 15.5 -28.5 15.5 -28 12 C-25.90018158 9.90543113 -23.58688943 8.43202808 -21 7 C-20.505 8.485 -20.505 8.485 -20 10 C-19.01 10.33 -18.02 10.66 -17 11 C-17.66 12.65 -18.32 14.3 -19 16 C-18.01 16 -17.02 16 -16 16 C-15.67 15.34 -15.34 14.68 -15 14 C-14.34 14.99 -13.68 15.98 -13 17 C-12.34 17 -11.68 17 -11 17 C-10.67 14.69 -10.34 12.38 -10 10 C-6.94736336 9.01879536 -5.05263664 9.01879536 -2 10 C-1.67 8.02 -1.34 6.04 -1 4 C-1.66 3.67 -2.32 3.34 -3 3 C-2.01 2.67 -1.02 2.34 0 2 C0 1.34 0 0.68 0 0 Z " fill="#90A616" transform="translate(140,92)"/>
<path d="M0 0 C1 2 1 2 0.75 4.8125 C0.6618264 19.03784142 12.63594784 33.57306148 21.37109375 43.9140625 C22.90906988 45.88355712 23.90144562 47.77044448 25 50 C26.64488294 51.68816933 28.31337542 53.35353315 30 55 C32.35360398 57.74587131 33.85423387 59.56270161 35 63 C35.99300235 64.00694902 36.99391374 65.00612353 38 66 C42.44929866 72.44170437 43.50153124 77.69472589 42.78515625 85.43359375 C42 88 42 88 40.18359375 89.84765625 C38 91 38 91 34 91 C33.01 91.495 33.01 91.495 32 92 C31.62488281 91.19175781 31.24976563 90.38351563 30.86328125 89.55078125 C28.09537815 83.77095337 25.66987986 79.43638587 21 75 C20.10948145 73.60589748 19.26056284 72.18496087 18.4375 70.75 C15.58326871 65.79030978 12.33953039 61.20002885 9 56.5625 C4.49649035 50.26790775 0.37972329 43.98401291 -3 37 C-3.39832031 36.17757812 -3.79664063 35.35515625 -4.20703125 34.5078125 C-7.94476942 26.45120373 -9.93387042 17.29259391 -7.24609375 8.546875 C-5.47834172 4.80340012 -3.68333387 2.10476221 0 0 Z " fill="#F3F8CC" transform="translate(33,27)"/>
<path d="M0 0 C8.51051878 2.32105058 13.78662938 10.79235585 18 18 C29.52655297 38.5867256 32.54192613 58.32000454 26.12109375 81.12109375 C23.09360295 90.05155824 18.75172564 97.42139553 12 104 C11.18049243 105.27418453 10.39083055 106.56784949 9.625 107.875 C1.43306975 121.35123094 -13.98480442 128.96368702 -28.76953125 133.0390625 C-38.74554957 135.23769064 -50.29812853 137.1894445 -60 133 C-60.33 132.01 -60.66 131.02 -61 130 C-60.21625 129.9175 -59.4325 129.835 -58.625 129.75 C-55.85250896 129.27193661 -55.85250896 129.27193661 -54.6875 126.9375 C-54.460625 126.298125 -54.23375 125.65875 -54 125 C-53.34 125.33 -52.68 125.66 -52 126 C-52 126.66 -52 127.32 -52 128 C-34.40470847 125.34550431 -34.40470847 125.34550431 -18 119 C-17.154375 118.71125 -16.30875 118.4225 -15.4375 118.125 C-12.27290167 116.66441616 -10.34275075 114.54355796 -8 112 C-7.01 112.33 -6.02 112.66 -5 113 C-4.236875 112.01 -3.47375 111.02 -2.6875 110 C-1.38671875 108.3125 -1.38671875 108.3125 0 107 C0.99 107 1.98 107 3 107 C3.04125 106.443125 3.0825 105.88625 3.125 105.3125 C4.46930374 101.75969726 7.00974189 100.29041047 10 98 C9.67 96.68 9.34 95.36 9 94 C9.99 93.67 10.98 93.34 12 93 C12.33 92.34 12.66 91.68 13 91 C13 93.64 13 96.28 13 99 C13.66 99 14.32 99 15 99 C19.56591023 87.04166368 21.26367309 74.80291714 21.3125 62.0625 C21.31789795 61.21139648 21.3232959 60.36029297 21.32885742 59.48339844 C21.22523157 50.21654427 19.18354069 41.66250985 16 33 C15.62746094 31.97648437 15.25492187 30.95296875 14.87109375 29.8984375 C11.30544563 20.3527839 7.60327565 11.54256554 1.13671875 3.59375 C0 2 0 2 0 0 Z " fill="#A5B747" transform="translate(128,24)"/>
<path d="M0 0 C0.66 0.33 1.32 0.66 2 1 C2 1.66 2 2.32 2 3 C1.01 2.67 0.02 2.34 -1 2 C-0.67 1.34 -0.34 0.68 0 0 Z M-7 1 C-4.69 1.66 -2.38 2.32 0 3 C0 3.66 0 4.32 0 5 C6.44798846 6.94002992 6.44798846 6.94002992 13 6 C14.32 8.31 15.64 10.62 17 13 C16.34 13.33 15.68 13.66 15 14 C15 14.99 15 15.98 15 17 C13.35 17 11.7 17 10 17 C10 17.66 10 18.32 10 19 C8.54096742 18.69078116 7.08279278 18.37751201 5.625 18.0625 C4.81289062 17.88847656 4.00078125 17.71445312 3.1640625 17.53515625 C1 17 1 17 -1 16 C-1.309375 16.94875 -1.61875 17.8975 -1.9375 18.875 C-3 22 -3 22 -4 24 C-3.01 24.33 -2.02 24.66 -1 25 C-0.3125 27.0625 -0.3125 27.0625 0 29 C-0.99 29 -1.98 29 -3 29 C-3 28.34 -3 27.68 -3 27 C-5.76264289 26.40267181 -8.16032769 26 -11 26 C-14 25 -14 25 -16 23 C-16.33 24.32 -16.66 25.64 -17 27 C-17.66 26.34 -18.32 25.68 -19 25 C-20.3921875 25.4640625 -20.3921875 25.4640625 -21.8125 25.9375 C-23.875 26.625 -25.9375 27.3125 -28 28 C-28.33 27.01 -28.66 26.02 -29 25 C-30.32 25 -31.64 25 -33 25 C-33 25.66 -33 26.32 -33 27 C-35.97 27.66 -38.94 28.32 -42 29 C-42.33 30.32 -42.66 31.64 -43 33 C-42.34 33.33 -41.68 33.66 -41 34 C-42.485 34.495 -42.485 34.495 -44 35 C-44 36.32 -44 37.64 -44 39 C-43.34 39 -42.68 39 -42 39 C-40.875 42.75 -40.875 42.75 -42 45 C-40.515 45.495 -40.515 45.495 -39 46 C-40.98 46.495 -40.98 46.495 -43 47 C-43.33 46.01 -43.66 45.02 -44 44 C-45.258125 43.896875 -46.51625 43.79375 -47.8125 43.6875 C-50.50898757 43.35342189 -51.76317068 43.17022107 -54 41.5625 C-55 40 -55 40 -55 38 C-55.66 38 -56.32 38 -57 38 C-57.99 35.36 -58.98 32.72 -60 30 C-59.21625 29.855625 -58.4325 29.71125 -57.625 29.5625 C-55.03578982 29.12201075 -55.03578982 29.12201075 -53 28 C-53 27.01 -53 26.02 -53 25 C-53.66 24.67 -54.32 24.34 -55 24 C-54.34 23.67 -53.68 23.34 -53 23 C-52.67 22.34 -52.34 21.68 -52 21 C-51.34 21 -50.68 21 -50 21 C-49.01 19.7625 -49.01 19.7625 -48 18.5 C-47.34 17.675 -46.68 16.85 -46 16 C-45.34 16 -44.68 16 -44 16 C-43.67 14.68 -43.34 13.36 -43 12 C-43.99 11.67 -44.98 11.34 -46 11 C-46 10.67 -46 10.34 -46 10 C-44.10688117 9.74939575 -42.21022961 9.52539367 -40.3125 9.3125 C-39.25675781 9.18488281 -38.20101562 9.05726562 -37.11328125 8.92578125 C-33.50416072 9.01182051 -31.95322554 10.02777671 -29 12 C-26.50417589 11.90128638 -26.50417589 11.90128638 -24 11 C-22.515 10.566875 -22.515 10.566875 -21 10.125 C-15.489203 8.07263376 -15.489203 8.07263376 -11.6875 3.8125 C-11.460625 3.214375 -11.23375 2.61625 -11 2 C-9.68 2.33 -8.36 2.66 -7 3 C-7 2.34 -7 1.68 -7 1 Z " fill="#DEF316" transform="translate(102,18)"/>
<path d="M0 0 C0.66 0 1.32 0 2 0 C2 0.99 2 1.98 2 3 C2.99 3.33 3.98 3.66 5 4 C5.73046875 5.84765625 5.73046875 5.84765625 6.1875 8.0625 C6.34605469 8.79597656 6.50460938 9.52945313 6.66796875 10.28515625 C6.83232422 11.13400391 6.83232422 11.13400391 7 12 C7.99 12 8.98 12 10 12 C10.66 12 11.32 12 12 12 C12.66 13.32 13.32 14.64 14 16 C14.99 15.34 15.98 14.68 17 14 C17.66 14.33 18.32 14.66 19 15 C19 15.99 19 16.98 19 18 C19.763125 17.525625 20.52625 17.05125 21.3125 16.5625 C24 15 24 15 27 14 C27.33 14.66 27.66 15.32 28 16 C29.65 15.67 31.3 15.34 33 15 C32.67 15.66 32.34 16.32 32 17 C33.65 17 35.3 17 37 17 C36.505 18.485 36.505 18.485 36 20 C36.66 20 37.32 20 38 20 C38.33 18.35 38.66 16.7 39 15 C39.66 15 40.32 15 41 15 C41 13.68 41 12.36 41 11 C41 9 41 7 41 5 C41.66 5 42.32 5 43 5 C43 3.35 43 1.7 43 0 C45.3125 -0.3125 45.3125 -0.3125 48 0 C50.72508509 3.28889579 51.36146791 5.78287443 51 10 C51.66 10 52.32 10 53 10 C55.32203633 18.81129859 57.22116294 29.71300652 53.61328125 38.30078125 C51.67384919 41.54569058 50.34233701 43.1835125 47 45 C37.67356211 46.08962344 30.27939495 39.89872909 23.37890625 34.4609375 C17.74853012 29.88362424 13.07798961 25.01703369 9 19 C8.3709375 18.10023437 7.741875 17.20046875 7.09375 16.2734375 C3.4845455 10.90400621 1.08567525 6.39342091 0 0 Z " fill="#98AE1A" transform="translate(9,107)"/>
<path d="M0 0 C6.13442358 9.20163537 7.17936013 21.26541593 6 32 C4.43110801 38.59287195 1.27528386 44.61745649 -4 49 C-6.8125 49.8125 -6.8125 49.8125 -9 50 C-9.33 50.66 -9.66 51.32 -10 52 C-10.680625 51.690625 -11.36125 51.38125 -12.0625 51.0625 C-15.36965912 49.86629351 -18.51545878 49.40994603 -22 49 C-21.236875 48.4225 -20.47375 47.845 -19.6875 47.25 C-16.28656383 44.4027046 -14.40282544 42.20847632 -13 38 C-12.65527963 29.63546163 -12.90597979 21.30283198 -14 13 C-14.66 13 -15.32 13 -16 13 C-16.99 9.37 -17.98 5.74 -19 2 C-16 3 -16 3 -14.90234375 4.7421875 C-14.58394531 5.44601563 -14.26554687 6.14984375 -13.9375 6.875 C-12.74888621 9.46226374 -11.59526008 11.60710987 -10 14 C-9.401875 13.67 -8.80375 13.34 -8.1875 13 C-6 12 -6 12 -3 12 C-2.87625 11.319375 -2.7525 10.63875 -2.625 9.9375 C-1.90899123 6.5722588 -0.97054875 3.29986575 0 0 Z " fill="#C6CD82" transform="translate(76,104)"/>
<path d="M0 0 C2.25 0.0625 2.25 0.0625 5 1 C7 4.125 7 4.125 7.96484375 6.0390625 C9.01283283 8.02430975 10.20804825 9.71293232 11.5625 11.5 C13.95598715 14.80286677 15.55138051 18.19999816 17 22 C17.38027344 22.93714844 17.76054687 23.87429687 18.15234375 24.83984375 C21.30839989 32.75396628 23.87470343 40.7488486 26 49 C26.1959375 49.75796875 26.391875 50.5159375 26.59375 51.296875 C29.01439576 67.40347947 27.65968015 86.47302041 20 101 C19.34 101 18.68 101 18 101 C18.02094727 99.99026123 18.04189453 98.98052246 18.06347656 97.94018555 C19.19519462 62.31911591 19.19519462 62.31911591 11 28 C10.20509355 25.44216769 9.47264479 22.87469449 8.74609375 20.296875 C8.06250484 17.98123721 8.06250484 17.98123721 6.91015625 15.890625 C6 14 6 14 6 11 C5.34 11 4.68 11 4 11 C3.32880451 9.5437455 2.66318193 8.08492133 2 6.625 C1.62875 5.81289063 1.2575 5.00078125 0.875 4.1640625 C0 2 0 2 0 0 Z " fill="#DDE4A3" transform="translate(123,22)"/>
<path d="M0 0 C0.66 0.33 1.32 0.66 2 1 C1.34 1.66 0.68 2.32 0 3 C-4.23955439 10.50075007 -4.09857438 18.78071614 -1.875 27 C0.64821782 34.42546958 4.10125694 41.84741199 9 48 C8.505 48.99 8.505 48.99 8 50 C3.98324122 47.8194738 0.78365503 45.65851804 -2 42 C-2.40977234 38.95231821 -2.299445 36.05433901 -2 33 C-3.98 33.495 -3.98 33.495 -6 34 C-5.34 35.98 -4.68 37.96 -4 40 C-4.78375 39.79375 -5.5675 39.5875 -6.375 39.375 C-7.24125 39.25125 -8.1075 39.1275 -9 39 C-11.72226766 41.72226766 -12.78896139 44.36688418 -14 48 C-16.5625 49.6875 -16.5625 49.6875 -19 51 C-19.66 49.02 -20.32 47.04 -21 45 C-22.59467014 48.18934029 -22.14285117 51.62617018 -22.125 55.125 C-22.12886719 55.85976562 -22.13273437 56.59453125 -22.13671875 57.3515625 C-22.12797741 62.31664537 -21.70218318 67.08471773 -21 72 C-21.66 72 -22.32 72 -23 72 C-27.56016908 52.04926028 -24.48058467 31.83946315 -13.68017578 14.35351562 C-5.76440754 1.92146918 -5.76440754 1.92146918 0 0 Z " fill="#D5EB40" transform="translate(29,28)"/>
<path d="M0 0 C8.51051878 2.32105058 13.78662938 10.79235585 18 18 C29.52655297 38.5867256 32.54192613 58.32000454 26.12109375 81.12109375 C20.81527379 96.77215263 20.81527379 96.77215263 14.8125 100.27734375 C13.9153125 100.63505859 13.9153125 100.63505859 13 101 C13.32613281 100.40316406 13.65226563 99.80632812 13.98828125 99.19140625 C19.94033835 87.3750805 21.24163669 75.11761292 21.3125 62.0625 C21.31805908 61.21123535 21.32361816 60.3599707 21.3293457 59.48291016 C21.22389673 50.21601841 19.18362395 41.66273641 16 33 C15.62746094 31.97648437 15.25492188 30.95296875 14.87109375 29.8984375 C11.30544563 20.3527839 7.60327565 11.54256554 1.13671875 3.59375 C0 2 0 2 0 0 Z " fill="#98AD2E" transform="translate(128,24)"/>
<path d="M0 0 C1 3 1 3 0.0625 5.1875 C-0.288125 5.785625 -0.63875 6.38375 -1 7 C-0.608125 6.505 -0.21625 6.01 0.1875 5.5 C2.55091715 3.54406857 4.01435003 3.75792027 7 4 C7.66 5.32 8.32 6.64 9 8 C8.1646875 8.12375 8.1646875 8.12375 7.3125 8.25 C4.30285794 9.22610013 2.37845248 10.95188814 0 13 C-0.66 12.67 -1.32 12.34 -2 12 C-4.63276087 12.51953703 -4.63276087 12.51953703 -7 14 C-7.67147918 16.44063441 -7.67147918 16.44063441 -8 19 C-9.5625 20.8125 -9.5625 20.8125 -11 22 C-11.66 21.67 -12.32 21.34 -13 21 C-13.495 21.495 -13.495 21.495 -14 22 C-16 24 -16 24 -19.125 24.125 C-20.548125 24.063125 -20.548125 24.063125 -22 24 C-22 24.99 -22 25.98 -22 27 C-23.32 26.67 -24.64 26.34 -26 26 C-26.99 28.475 -26.99 28.475 -28 31 C-28.66 31 -29.32 31 -30 31 C-32.01782732 28.09432866 -33.35494404 25.48330216 -34 22 C-34 22.66 -34 23.32 -34 24 C-34.66 24 -35.32 24 -36 24 C-36 21.69 -36 19.38 -36 17 C-37.32 17 -38.64 17 -40 17 C-40.33 17.99 -40.66 18.98 -41 20 C-43.22736628 16.00930209 -44 13.50220609 -44 9 C-44.99 8.34 -45.98 7.68 -47 7 C-46.67 6.01 -46.34 5.02 -46 4 C-42.7 4.66 -39.4 5.32 -36 6 C-36 6.99 -36 7.98 -36 9 C-36.99 9.33 -37.98 9.66 -39 10 C-37.68 10.66 -36.36 11.32 -35 12 C-35 12.66 -35 13.32 -35 14 C-31.29624453 13.4994925 -29.36921101 12.93330887 -27 10 C-26.34 9.01 -25.68 8.02 -25 7 C-23.68 7 -22.36 7 -21 7 C-21 7.66 -21 8.32 -21 9 C-21.66 9 -22.32 9 -23 9 C-23 9.66 -23 10.32 -23 11 C-23.66 11 -24.32 11 -25 11 C-25 11.66 -25 12.32 -25 13 C-25.99 13.66 -26.98 14.32 -28 15 C-28 15.99 -28 16.98 -28 18 C-28.99 18 -29.98 18 -31 18 C-31 18.99 -31 19.98 -31 21 C-30.67 20.34 -30.34 19.68 -30 19 C-27.56640625 18.1484375 -27.56640625 18.1484375 -24.5625 17.375 C-23.07943359 16.98441406 -23.07943359 16.98441406 -21.56640625 16.5859375 C-19 16 -19 16 -17 16 C-17 14.68 -17 13.36 -17 12 C-15.68 11.67 -14.36 11.34 -13 11 C-13.66 10.34 -14.32 9.68 -15 9 C-10.25 4.125 -10.25 4.125 -8 3 C-7.71125 3.639375 -7.4225 4.27875 -7.125 4.9375 C-6.17176549 7.15206079 -6.17176549 7.15206079 -4 8 C-4 7.34 -4 6.68 -4 6 C-4.66 6 -5.32 6 -6 6 C-5.67 4.68 -5.34 3.36 -5 2 C-4.360625 1.855625 -3.72125 1.71125 -3.0625 1.5625 C-1.02454854 1.18992819 -1.02454854 1.18992819 0 0 Z M-22 25 C-20 26 -20 26 -20 26 Z " fill="#AFC60F" transform="translate(116,83)"/>
<path d="M0 0 C0.66 0 1.32 0 2 0 C2 0.99 2 1.98 2 3 C2.99 3.33 3.98 3.66 5 4 C5.73046875 5.84765625 5.73046875 5.84765625 6.1875 8.0625 C6.34605469 8.79597656 6.50460938 9.52945313 6.66796875 10.28515625 C6.83232422 11.13400391 6.83232422 11.13400391 7 12 C7.99 12 8.98 12 10 12 C10.66 12 11.32 12 12 12 C12.66 13.32 13.32 14.64 14 16 C14.99 15.34 15.98 14.68 17 14 C17.66 14.33 18.32 14.66 19 15 C19 15.99 19 16.98 19 18 C19.763125 17.525625 20.52625 17.05125 21.3125 16.5625 C24 15 24 15 27 14 C27.33 14.66 27.66 15.32 28 16 C29.65 15.67 31.3 15.34 33 15 C32.67 15.66 32.34 16.32 32 17 C33.65 17 35.3 17 37 17 C36.505 18.485 36.505 18.485 36 20 C36.66 20 37.32 20 38 20 C38.33 18.35 38.66 16.7 39 15 C39.66 15 40.32 15 41 15 C41 13.68 41 12.36 41 11 C41 9 41 7 41 5 C41.66 5 42.32 5 43 5 C43 3.35 43 1.7 43 0 C45.3125 -0.3125 45.3125 -0.3125 48 0 C50.72508509 3.28889579 51.36146791 5.78287443 51 10 C51.66 10 52.32 10 53 10 C53 11.65 53 13.3 53 15 C52.071875 15.45375 51.14375 15.9075 50.1875 16.375 C46.96078611 17.9421633 46.96078611 17.9421633 44 20 C44 19.01 44 18.02 44 17 C41.43004926 18.28497537 41.09565537 19.49912373 39.875 22.0625 C39.52179687 22.79597656 39.16859375 23.52945313 38.8046875 24.28515625 C38.53914063 24.85105469 38.27359375 25.41695312 38 26 C36.68 25.34 35.36 24.68 34 24 C33.34 24.66 32.68 25.32 32 26 C31.01 25.67 30.02 25.34 29 25 C29 24.01 29 23.02 29 22 C28.34 22 27.68 22 27 22 C27 22.99 27 23.98 27 25 C24.69 25 22.38 25 20 25 C20 26.65 20 28.3 20 30 C11.75817598 26.53448358 6.09977457 15.55688177 2 8 C1.03408188 5.29030049 0.48348446 2.84718627 0 0 Z " fill="#A4BB14" transform="translate(9,107)"/>
<path d="M0 0 C1.65 0 3.3 0 5 0 C5.00386719 0.99580078 5.00386719 0.99580078 5.0078125 2.01171875 C5.09732059 7.22625453 5.09732059 7.22625453 7.40234375 11.70703125 C8.88958986 12.86533352 10.44178584 13.93908823 12 15 C12 15.66 12 16.32 12 17 C11.34 17 10.68 17 10 17 C10 17.99 10 18.98 10 20 C10.99 20.33 11.98 20.66 13 21 C13 22.32 13 23.64 13 25 C13.66 25 14.32 25 15 25 C14.42655063 27.86724686 14.1385485 28.8614515 12 31 C12 31.66 12 32.32 12 33 C11.34 33 10.68 33 10 33 C10 33.66 10 34.32 10 35 C8.02 35 6.04 35 4 35 C4.33 33.68 4.66 32.36 5 31 C5.66 31.66 6.32 32.32 7 33 C7.99 31.02 8.98 29.04 10 27 C9.01 27.66 8.02 28.32 7 29 C6.01 28.67 5.02 28.34 4 28 C4.66 28 5.32 28 6 28 C6 27.01 6 26.02 6 25 C5.34 25 4.68 25 4 25 C4 25.66 4 26.32 4 27 C2.02 27.99 0.04 28.98 -2 30 C-6 25.25 -6 25.25 -6 23 C-6.99 23.33 -7.98 23.66 -9 24 C-11.1875 23.0625 -11.1875 23.0625 -13 22 C-13.33 22.66 -13.66 23.32 -14 24 C-14.66 24 -15.32 24 -16 24 C-16.08121924 22.39667209 -16.13929134 20.79215974 -16.1875 19.1875 C-16.22230469 18.29417969 -16.25710937 17.40085937 -16.29296875 16.48046875 C-15.95081002 13.58352485 -15.24606427 12.77444972 -13 11 C-12.34 12.98 -11.68 14.96 -11 17 C-9.68 16.01 -8.36 15.02 -7 14 C-7.33 13.34 -7.66 12.68 -8 12 C-7.34 12 -6.68 12 -6 12 C-5.896875 11.21625 -5.79375 10.4325 -5.6875 9.625 C-5 7 -5 7 -2 5 C0.6875 5.875 0.6875 5.875 3 7 C2.01 4.69 1.02 2.38 0 0 Z M-7 17 C-7.33 18.32 -7.66 19.64 -8 21 C-7.34 21 -6.68 21 -6 21 C-5.67 21.66 -5.34 22.32 -5 23 C-4.34 21.68 -3.68 20.36 -3 19 C-3.66 19 -4.32 19 -5 19 C-5.66 18.34 -6.32 17.68 -7 17 Z " fill="#D6EC20" transform="translate(22,61)"/>
<path d="M0 0 C0.66 0 1.32 0 2 0 C5 3.46153846 5 3.46153846 5 6 C6.32 5.67 7.64 5.34 9 5 C9.165 5.639375 9.33 6.27875 9.5 6.9375 C10.781786 9.16119241 10.781786 9.16119241 12.9140625 9.48828125 C14.93575155 9.7275978 16.96841939 9.86893028 19 10 C19 11.98 19 13.96 19 16 C20.32 16 21.64 16 23 16 C23 16.66 23 17.32 23 18 C23.66 18.33 24.32 18.66 25 19 C24.34 19 23.68 19 23 19 C23.33 19.99 23.66 20.98 24 22 C26.64 22 29.28 22 32 22 C32.495 20.515 32.495 20.515 33 19 C35.5625 17.8125 35.5625 17.8125 38 17 C38.495 17.99 38.495 17.99 39 19 C39.66 18.34 40.32 17.68 41 17 C41 16.01 41 15.02 41 14 C41.433125 14.474375 41.86625 14.94875 42.3125 15.4375 C44.02309613 17.23686957 44.02309613 17.23686957 47 18 C47 18.99 47 19.98 47 21 C47.99 21 48.98 21 50 21 C49.67 22.32 49.34 23.64 49 25 C49.66 25 50.32 25 51 25 C51 25.66 51 26.32 51 27 C49.68 27.33 48.36 27.66 47 28 C47 26.68 47 25.36 47 24 C44.47636012 24.62533375 44.47636012 24.62533375 42 26 C41.64080332 27.66128463 41.31088368 29.32900023 41 31 C38.4375 33.8125 38.4375 33.8125 36 36 C32.22454612 34.90931332 29.52956528 34.0916909 27 31 C28.32 30.01 29.64 29.02 31 28 C27.7 27.34 24.4 26.68 21 26 C20.67 26.66 20.34 27.32 20 28 C21.32 28.66 22.64 29.32 24 30 C23.34 30.99 22.68 31.98 22 33 C21.896875 32.360625 21.79375 31.72125 21.6875 31.0625 C21.460625 30.381875 21.23375 29.70125 21 29 C20.01 28.67 19.02 28.34 18 28 C16.9641321 26.01833966 15.96887581 24.01526169 15 22 C13.16964214 19.52016032 11.32020164 17.30963828 9.10546875 15.16796875 C6.89137688 12.88815245 5.08187943 10.53266253 3.25 7.9375 C2.63640625 7.08027344 2.0228125 6.22304687 1.390625 5.33984375 C0 3 0 3 0 0 Z " fill="#C5DC0E" transform="translate(49,62)"/>
<path d="M0 0 C4.875 4.625 4.875 4.625 6 8 C6.99300235 9.00694902 7.99391374 10.00612353 9 11 C13.44929866 17.44170437 14.50153124 22.69472589 13.78515625 30.43359375 C13 33 13 33 11.18359375 34.84765625 C9 36 9 36 5 36 C4.01 36.495 4.01 36.495 3 37 C2.62488281 36.19175781 2.24976562 35.38351563 1.86328125 34.55078125 C-0.87550338 28.83175742 -3.22030251 24.27657144 -8 20 C-12 14.48648649 -12 14.48648649 -12 12 C-9 12 -6 12 -3 12 C-2.34 9.69 -1.68 7.38 -1 5 C-0.34 5 0.32 5 1 5 C0.67 3.35 0.34 1.7 0 0 Z " fill="#E9EFB8" transform="translate(62,82)"/>
<path d="M0 0 C3.76687864 0 4.91190305 0.23537317 8 2 C7.34 2.33 6.68 2.66 6 3 C6.20625 3.556875 6.4125 4.11375 6.625 4.6875 C7.21047822 8.29794901 5.5867314 10.8265372 4 14 C1.35139573 14.59355614 -1.29197322 14.74209269 -4 15 C-4.33 16.98 -4.66 18.96 -5 21 C-8.65456815 21.75241109 -12.31733897 22.40049704 -16 23 C-16.2475 22.030625 -16.495 21.06125 -16.75 20.0625 C-17.1625 19.051875 -17.575 18.04125 -18 17 C-20.03243548 16.03122943 -20.03243548 16.03122943 -22 16 C-22 15.34 -22 14.68 -22 14 C-24.97 14.66 -27.94 15.32 -31 16 C-31 15.34 -31 14.68 -31 14 C-31.99 13.67 -32.98 13.34 -34 13 C-34.33 11.35 -34.66 9.7 -35 8 C-34.13375 7.7525 -33.2675 7.505 -32.375 7.25 C-28.89990495 6.13079647 -28.89990495 6.13079647 -25.9375 3.8125 C-23 2 -23 2 -20.25 1.9375 C-18 3 -18 3 -16.6875 5.5625 C-16.3471875 6.7690625 -16.3471875 6.7690625 -16 8 C-15.34 6.68 -14.68 5.36 -14 4 C-12.68 4 -11.36 4 -10 4 C-10 4.99 -10 5.98 -10 7 C-9.34 7 -8.68 7 -8 7 C-8 7.66 -8 8.32 -8 9 C-7.01 9 -6.02 9 -5 9 C-5 8.34 -5 7.68 -5 7 C-2 8 -2 8 0 9 C0.33 8.01 0.66 7.02 1 6 C1.33 5.67 1.66 5.34 2 5 C1.34 3.35 0.68 1.7 0 0 Z " fill="#BFD610" transform="translate(42,93)"/>
<path d="M0 0 C0.66 0.33 1.32 0.66 2 1 C2 1.66 2 2.32 2 3 C1.01 2.67 0.02 2.34 -1 2 C-0.67 1.34 -0.34 0.68 0 0 Z M-7 1 C-3.5625 1.8125 -3.5625 1.8125 0 3 C0.495 4.485 0.495 4.485 1 6 C-0.134375 6.474375 -1.26875 6.94875 -2.4375 7.4375 C-5.75740166 8.63622083 -5.75740166 8.63622083 -7 10 C-8.66617115 10.04063832 -10.33388095 10.042721 -12 10 C-12 10.66 -12 11.32 -12 12 C-13.72526042 12.71614583 -15.45052083 13.43229167 -17.17578125 14.1484375 C-19.26533932 15.06806692 -19.26533932 15.06806692 -22 17 C-23.63156399 17.5447626 -25.27968284 18.0412957 -26.9375 18.5 C-30.18095874 19.40014541 -33.01007801 20.46395128 -36 22 C-40.59375 23.203125 -40.59375 23.203125 -43 22 C-43.33 22.66 -43.66 23.32 -44 24 C-44.66 23.67 -45.32 23.34 -46 23 C-46.061875 23.53625 -46.12375 24.0725 -46.1875 24.625 C-47.35311634 28.03218622 -49.70950672 30.25140806 -52 33 C-52.85279338 35.21735439 -52.85279338 35.21735439 -53 37 C-53 36.01 -53 35.02 -53 34 C-53.33 34.66 -53.66 35.32 -54 36 C-55.32 36 -56.64 36 -58 36 C-58.66 34.02 -59.32 32.04 -60 30 C-59.21625 29.855625 -58.4325 29.71125 -57.625 29.5625 C-55.03578982 29.12201075 -55.03578982 29.12201075 -53 28 C-53 27.01 -53 26.02 -53 25 C-53.66 24.67 -54.32 24.34 -55 24 C-54.34 23.67 -53.68 23.34 -53 23 C-52.67 22.34 -52.34 21.68 -52 21 C-51.34 21 -50.68 21 -50 21 C-49.01 19.7625 -49.01 19.7625 -48 18.5 C-47.34 17.675 -46.68 16.85 -46 16 C-45.34 16 -44.68 16 -44 16 C-43.67 14.68 -43.34 13.36 -43 12 C-43.99 11.67 -44.98 11.34 -46 11 C-46 10.67 -46 10.34 -46 10 C-44.10688117 9.74939575 -42.21022961 9.52539367 -40.3125 9.3125 C-39.25675781 9.18488281 -38.20101562 9.05726562 -37.11328125 8.92578125 C-33.50416072 9.01182051 -31.95322554 10.02777671 -29 12 C-26.50417589 11.90128638 -26.50417589 11.90128638 -24 11 C-22.515 10.566875 -22.515 10.566875 -21 10.125 C-15.489203 8.07263376 -15.489203 8.07263376 -11.6875 3.8125 C-11.460625 3.214375 -11.23375 2.61625 -11 2 C-9.68 2.33 -8.36 2.66 -7 3 C-7 2.34 -7 1.68 -7 1 Z " fill="#DFF525" transform="translate(102,18)"/>
<path d="M0 0 C0.99 0.66 1.98 1.32 3 2 C1.68 2 0.36 2 -1 2 C-0.814375 2.78375 -0.62875 3.5675 -0.4375 4.375 C0 7 0 7 -1 9 C-0.34 9 0.32 9 1 9 C1 8.34 1 7.68 1 7 C1.66 7.33 2.32 7.66 3 8 C3.5625 9.8125 3.5625 9.8125 4 12 C4.185625 12.7425 4.37125 13.485 4.5625 14.25 C4.7790625 15.11625 4.7790625 15.11625 5 16 C5.66 16 6.32 16 7 16 C7.66 14.68 8.32 13.36 9 12 C10.03060547 12.23396484 10.03060547 12.23396484 11.08203125 12.47265625 C11.98308594 12.66730469 12.88414063 12.86195312 13.8125 13.0625 C14.70582031 13.25972656 15.59914063 13.45695312 16.51953125 13.66015625 C19.12630779 14.20349463 19.12630779 14.20349463 22 13 C22 13.66 22 14.32 22 15 C22.66 14.67 23.32 14.34 24 14 C24 13.34 24 12.68 24 12 C24.66 12 25.32 12 26 12 C26.33 12.99 26.66 13.98 27 15 C30.00847418 16.22520264 30.00847418 16.22520264 33 17 C29.92240809 21.04483508 28.00764368 23.51124107 23 25 C22.34 25.33 21.68 25.66 21 26 C20.34 25.01 19.68 24.02 19 23 C18.38125 23.66 17.7625 24.32 17.125 25 C15 27 15 27 13 27 C13 27.99 13 28.98 13 30 C10.69 30.33 8.38 30.66 6 31 C6 29.68 6 28.36 6 27 C6.66 26.67 7.32 26.34 8 26 C7.67 25.01 7.34 24.02 7 23 C6.01 22.67 5.02 22.34 4 22 C3.34 21.01 2.68 20.02 2 19 C1.34 20.32 0.68 21.64 0 23 C-0.65177969 20.81426438 -1.29614674 18.6263177 -1.9375 16.4375 C-2.29714844 15.21933594 -2.65679687 14.00117187 -3.02734375 12.74609375 C-3.96676959 9.12798381 -4.54743991 5.70146514 -5 2 C-2.6875 0.875 -2.6875 0.875 0 0 Z " fill="#9AB110" transform="translate(81,98)"/>
<path d="M0 0 C1.35878977 4.07636932 0.78339979 7.18745635 -1 11 C-2.81518992 12.98205716 -4.71397509 14.61070012 -6.83203125 16.26171875 C-9.11584442 18.02074582 -9.11584442 18.02074582 -11.359375 20.41796875 C-14.18020417 23.17620556 -17.18537836 25.41888239 -20.4375 27.625 C-20.98470703 28.0065625 -21.53191406 28.388125 -22.09570312 28.78125 C-31.29237036 35.09375532 -40.36583109 38.20909379 -51.3125 39.6875 C-52.20517578 39.81705078 -53.09785156 39.94660156 -54.01757812 40.08007812 C-57.38454983 40.55890254 -60.59466833 41 -64 41 C-64 41.66 -64 42.32 -64 43 C-69.625 43.25 -69.625 43.25 -73 41 C-73 40.34 -73 39.68 -73 39 C-72.21625 38.9175 -71.4325 38.835 -70.625 38.75 C-67.85250896 38.27193661 -67.85250896 38.27193661 -66.6875 35.9375 C-66.460625 35.298125 -66.23375 34.65875 -66 34 C-65.34 34.33 -64.68 34.66 -64 35 C-64 35.66 -64 36.32 -64 37 C-46.40470847 34.34550431 -46.40470847 34.34550431 -30 28 C-29.154375 27.71125 -28.30875 27.4225 -27.4375 27.125 C-24.27290167 25.66441616 -22.34275075 23.54355796 -20 21 C-19.01 21.33 -18.02 21.66 -17 22 C-16.236875 21.01 -15.47375 20.02 -14.6875 19 C-13.38671875 17.3125 -13.38671875 17.3125 -12 16 C-11.01 16 -10.02 16 -9 16 C-8.95875 15.443125 -8.9175 14.88625 -8.875 14.3125 C-7.53069626 10.75969726 -4.99025811 9.29041047 -2 7 C-2.495 5.02 -2.495 5.02 -3 3 C-2.01 2.67 -1.02 2.34 0 2 C0 1.34 0 0.68 0 0 Z " fill="#9AAD36" transform="translate(140,115)"/>
<path d="M0 0 C3.90335195 2.60223463 3.91341995 4.39963561 5.0625 8.875 C6.23335932 13.62246689 6.23335932 13.62246689 8.08203125 18.1171875 C9.25011561 20.51300308 9.41595124 22.60204898 9.625 25.25 C9.69976562 26.14203125 9.77453125 27.0340625 9.8515625 27.953125 C9.90054688 28.62859375 9.94953125 29.3040625 10 30 C9.01 30.33 8.02 30.66 7 31 C6.29733387 33.97574276 6.29733387 33.97574276 6 37 C6.66 37.33 7.32 37.66 8 38 C3.29593201 39.86540627 -0.94744036 41.36843005 -6 42 C-6.33 40.68 -6.66 39.36 -7 38 C-5.68 38 -4.36 38 -3 38 C-3.66 37.67 -4.32 37.34 -5 37 C-4.44854729 31.76119922 -3.57077907 27.02649303 -2 22 C0 23 0 23 1 25 C3.02463255 25.65213292 3.02463255 25.65213292 5 26 C5 25.01 5 24.02 5 23 C4.01 22.67 3.02 22.34 2 22 C2.66 20.35 3.32 18.7 4 17 C2.68 17.33 1.36 17.66 0 18 C-0.33 17.01 -0.66 16.02 -1 15 C-0.34 14.01 0.32 13.02 1 12 C-0.32 11.34 -1.64 10.68 -3 10 C-2.67 9.01 -2.34 8.02 -2 7 C-2 5.68 -2 4.36 -2 3 C-1.34 2.01 -0.68 1.02 0 0 Z " fill="#B7CE12" transform="translate(129,38)"/>
<path d="M0 0 C0.33 0 0.66 0 1 0 C2.56950124 6.74786709 3.35707752 13.13725147 3.3125 20.0625 C3.30831055 20.96645508 3.30412109 21.87041016 3.29980469 22.80175781 C3.10292941 34.72737329 1.62565812 46.3306484 -4 57 C-4.66 57 -5.32 57 -6 57 C-6 42.48 -6 27.96 -6 13 C-3.03 13.495 -3.03 13.495 0 14 C0 9.38 0 4.76 0 0 Z " fill="#BFCA70" transform="translate(147,66)"/>
<path d="M0 0 C8.49615331 2.31713272 13.80873388 10.7893331 18 18 C25.17492863 31.29950688 25.17492863 31.29950688 26 37 C24.02 37 22.04 37 20 37 C19.34 38.32 18.68 39.64 18 41 C17.68546875 39.85402344 17.3709375 38.70804688 17.046875 37.52734375 C16.61507164 35.99725794 16.18275239 34.46731766 15.75 32.9375 C15.54503906 32.18533203 15.34007812 31.43316406 15.12890625 30.65820312 C13.68000378 25.58704449 11.73342634 21.50736425 9 17 C8.319375 15.2984375 8.319375 15.2984375 7.625 13.5625 C5.90075976 9.78243486 3.8023871 6.91341858 1.20703125 3.69921875 C0 2 0 2 0 0 Z " fill="#A9BF28" transform="translate(128,24)"/>
<path d="M0 0 C1 2 1 2 0.75 4.8125 C0.62701136 14.67208908 7.18898063 24.7501764 12 33 C11.34 33 10.68 33 10 33 C9.67 32.34 9.34 31.68 9 31 C8.01 30.67 7.02 30.34 6 30 C3.95703125 27.49609375 3.95703125 27.49609375 1.8125 24.4375 C1.09707031 23.42558594 0.38164063 22.41367187 -0.35546875 21.37109375 C-0.89816406 20.58863281 -1.44085938 19.80617188 -2 19 C-3.54379132 22.6837622 -4.44683414 26.03564468 -5 30 C-8.47670253 26.52329747 -8.19461436 21.92153907 -8.3125 17.1875 C-8.26444567 11.61319732 -7.34284455 7.50606411 -4 3 C-1.75 1 -1.75 1 0 0 Z " fill="#EAF1B7" transform="translate(33,27)"/>
<path d="M0 0 C3.87756497 4.00264771 4.91714602 7.54199417 5 13 C4.69212411 19.2601432 4.69212411 19.2601432 2.1875 21.9375 C0 23 0 23 -4 23 C-4.66 23.33 -5.32 23.66 -6 24 C-6.37511719 23.19175781 -6.75023438 22.38351563 -7.13671875 21.55078125 C-9.89065225 15.80012414 -12.22767672 11.2269149 -17 7 C-17.33 6.01 -17.66 5.02 -18 4 C-14.81618605 5.17919035 -13.7696711 6.29700306 -11.625 9.0625 C-9.25431892 12.25809938 -9.25431892 12.25809938 -5.6875 12.875 C-4.800625 12.91625 -3.91375 12.9575 -3 13 C-3 9.04 -3 5.08 -3 1 C-2.01 0.67 -1.02 0.34 0 0 Z " fill="#DCE2A3" transform="translate(71,95)"/>
<path d="M0 0 C1.65 0 3.3 0 5 0 C5.16777183 1.79156352 5.33418294 3.5832545 5.5 5.375 C5.5928125 6.37273437 5.685625 7.37046875 5.78125 8.3984375 C6 11 6 11 6 13 C4.34467377 14.01866229 2.67739862 15.01810813 1 16 C0.67 16.66 0.34 17.32 0 18 C-1.97888961 18.72693904 -3.97954558 19.39816251 -6 20 C-6.33 19.67 -6.66 19.34 -7 19 C-7.33 19.66 -7.66 20.32 -8 21 C-7.34 21 -6.68 21 -6 21 C-6 21.66 -6 22.32 -6 23 C-9 24 -9 24 -11.1875 23.0625 C-12.0846875 22.5365625 -12.0846875 22.5365625 -13 22 C-13.33 22.66 -13.66 23.32 -14 24 C-14.66 24 -15.32 24 -16 24 C-16.08121924 22.39667209 -16.13929134 20.79215974 -16.1875 19.1875 C-16.22230469 18.29417969 -16.25710937 17.40085937 -16.29296875 16.48046875 C-15.95081002 13.58352485 -15.24606427 12.77444972 -13 11 C-12.34 12.98 -11.68 14.96 -11 17 C-9.68 16.01 -8.36 15.02 -7 14 C-7.33 13.34 -7.66 12.68 -8 12 C-7.34 12 -6.68 12 -6 12 C-5.896875 11.21625 -5.79375 10.4325 -5.6875 9.625 C-5 7 -5 7 -2 5 C0.6875 5.875 0.6875 5.875 3 7 C2.01 4.69 1.02 2.38 0 0 Z " fill="#D7ED31" transform="translate(22,61)"/>
<path d="M0 0 C0.33 0 0.66 0 1 0 C1.0816082 2.37570543 1.14077222 4.74855841 1.1875 7.125 C1.21263672 7.79015625 1.23777344 8.4553125 1.26367188 9.140625 C1.35164158 15.12256501 -0.22827516 18.96772738 -4.125 23.4375 C-7.65518559 25.35607912 -9.62994969 25.38156819 -13.53515625 24.73828125 C-21.11763577 22.46714238 -27.25100881 17.24907892 -33 12 C-30 12 -30 12 -28.0625 13.5 C-25.88588856 15.39211447 -25.88588856 15.39211447 -22 15 C-21.01 15.185625 -20.02 15.37125 -19 15.5625 C-16.13047629 15.98097221 -14.69917403 15.8376747 -12 15 C-11.01 15 -10.02 15 -9 15 C-8.67 14.34 -8.34 13.68 -8 13 C-7.1028125 13.495 -7.1028125 13.495 -6.1875 14 C-3.94613529 15.20787988 -3.94613529 15.20787988 -1 15 C-0.67 10.05 -0.34 5.1 0 0 Z " fill="#9BAF2F" transform="translate(63,127)"/>
<path d="M0 0 C1.32 0.66 2.64 1.32 4 2 C3.34 3.32 2.68 4.64 2 6 C1.67 5.34 1.34 4.68 1 4 C0.34 4 -0.32 4 -1 4 C-0.67 2.68 -0.34 1.36 0 0 Z M-7 4 C-5.576875 4.495 -5.576875 4.495 -4.125 5 C-1.22937548 6.10159191 -1.22937548 6.10159191 1 6 C1 6.66 1 7.32 1 8 C1.66 8.33 2.32 8.66 3 9 C5 11 5 11 5 14 C5.66 14.33 6.32 14.66 7 15 C6 16 5 17 4 18 C3.443125 18.70125 2.88625 19.4025 2.3125 20.125 C-1.03158994 22.83642428 -3.74456258 22.71630417 -8 23 C-8.22119939 20.37549914 -8.42746669 17.75129514 -8.625 15.125 C-8.68945312 14.37863281 -8.75390625 13.63226563 -8.8203125 12.86328125 C-8.96087365 10.9129953 -8.98759849 8.95530533 -9 7 C-8.34 6.34 -7.68 5.68 -7 5 C-7 4.67 -7 4.34 -7 4 Z " fill="#CCE22B" transform="translate(15,78)"/>
<path d="M0 0 C5.13217903 2.25315177 8.9096916 5.26063522 13 9 C12.34 9.66 11.68 10.32 11 11 C11.515625 11.94875 12.03125 12.8975 12.5625 13.875 C13.036875 14.90625 13.51125 15.9375 14 17 C13.67 17.66 13.34 18.32 13 19 C10 15.25 10 15.25 10 13 C7.66924071 13.95865509 7.66924071 13.95865509 6 17 C5.2575 16.175 4.515 15.35 3.75 14.5 C1.12612615 11.55155147 1.12612615 11.55155147 -3 12 C-3.33 12.66 -3.66 13.32 -4 14 C-4 13.34 -4 12.68 -4 12 C-6.31 11.34 -8.62 10.68 -11 10 C-11 9.34 -11 8.68 -11 8 C-10.34 8 -9.68 8 -9 8 C-9 7.34 -9 6.68 -9 6 C-7.02 5.01 -5.04 4.02 -3 3 C-2.67 3.33 -2.34 3.66 -2 4 C-1.34 2.68 -0.68 1.36 0 0 Z " fill="#D0E62E" transform="translate(113,13)"/>
<path d="M0 0 C0.66 0 1.32 0 2 0 C5 3.46153846 5 3.46153846 5 6 C6.32 5.67 7.64 5.34 9 5 C9.165 5.639375 9.33 6.27875 9.5 6.9375 C10.781786 9.16119241 10.781786 9.16119241 12.9140625 9.48828125 C14.93575155 9.7275978 16.96841939 9.86893028 19 10 C18.773125 11.051875 18.54625 12.10375 18.3125 13.1875 C17.9641866 17.43692351 18.45310647 18.69847135 21 22 C21.66 22.66 22.32 23.32 23 24 C22.01 25.32 21.02 26.64 20 28 C21.32 28.66 22.64 29.32 24 30 C23.34 30.99 22.68 31.98 22 33 C21.896875 32.360625 21.79375 31.72125 21.6875 31.0625 C21.460625 30.381875 21.23375 29.70125 21 29 C20.01 28.67 19.02 28.34 18 28 C16.9641321 26.01833966 15.96887581 24.01526169 15 22 C13.16964214 19.52016032 11.32020164 17.30963828 9.10546875 15.16796875 C6.89137688 12.88815245 5.08187943 10.53266253 3.25 7.9375 C2.63640625 7.08027344 2.0228125 6.22304687 1.390625 5.33984375 C0 3 0 3 0 0 Z " fill="#C2D81D" transform="translate(49,62)"/>
<path d="M0 0 C0.66 0 1.32 0 2 0 C4.83284707 10.74964289 5.47864072 22.34666278 2 33 C0.02 33.495 0.02 33.495 -2 34 C-2 24.1 -2 14.2 -2 4 C-1.01 4.33 -0.02 4.66 1 5 C0.67 3.35 0.34 1.7 0 0 Z " fill="#8CA216" transform="translate(152,66)"/>
<path d="M0 0 C1.12708524 3.38125573 0.93898965 3.69113412 -0.4375 6.75 C-2.05916683 10.73045495 -2.26673812 13.73219007 -2 18 C-0.68 18.66 0.64 19.32 2 20 C1.814375 20.70125 1.62875 21.4025 1.4375 22.125 C0.94843024 25.33888698 1.33768442 27.83560336 2 31 C2.99 31.33 3.98 31.66 5 32 C5.33 33.98 5.66 35.96 6 38 C6.66 38 7.32 38 8 38 C9.625 40 9.625 40 11 42 C10.34 43.32 9.68 44.64 9 46 C0.51374053 35.44602248 -6.22670897 23.8292469 -6 10 C-6.66 9.67 -7.32 9.34 -8 9 C-7.04663979 7.68388323 -6.08714226 6.37221039 -5.125 5.0625 C-4.59132812 4.33160156 -4.05765625 3.60070312 -3.5078125 2.84765625 C-2 1 -2 1 0 0 Z " fill="#CDE150" transform="translate(39,18)"/>
<path d="M0 0 C2.65204896 0.36834013 3.73840056 0.6867691 5.484375 2.77734375 C5.90203125 3.49019531 6.3196875 4.20304687 6.75 4.9375 C7.17796875 5.64777344 7.6059375 6.35804687 8.046875 7.08984375 C9 9 9 9 9 11 C7.68 11.33 6.36 11.66 5 12 C4.67 13.32 4.34 14.64 4 16 C0.125 15.125 0.125 15.125 -1 14 C-1.33 14.99 -1.66 15.98 -2 17 C-3.65 16.67 -5.3 16.34 -7 16 C-7.33 16.66 -7.66 17.32 -8 18 C-8.66 18.33 -9.32 18.66 -10 19 C-10.33 16.69 -10.66 14.38 -11 12 C-6.5 10.5 -6.5 10.5 -2 9 C-0.47648079 4.59857401 -0.47648079 4.59857401 0 0 Z " fill="#B6CD12" transform="translate(48,96)"/>
<path d="M0 0 C0.36923077 5.53846154 0.36923077 5.53846154 -1.5 7.875 C-1.995 8.24625 -2.49 8.6175 -3 9 C-2.443125 10.1446875 -2.443125 10.1446875 -1.875 11.3125 C-1.58625 12.199375 -1.2975 13.08625 -1 14 C-1.99 15.485 -1.99 15.485 -3 17 C-3.61875 16.505 -4.2375 16.01 -4.875 15.5 C-6.83880904 13.80777227 -6.83880904 13.80777227 -9 14 C-9 13.01 -9 12.02 -9 11 C-9.99 11.33 -10.98 11.66 -12 12 C-12.99 11.34 -13.98 10.68 -15 10 C-14.34 9.34 -13.68 8.68 -13 8 C-13.33 7.34 -13.66 6.68 -14 6 C-12.04414675 4.99515796 -10.08523763 3.99626195 -8.125 3 C-6.48917969 2.1646875 -6.48917969 2.1646875 -4.8203125 1.3125 C-2 0 -2 0 0 0 Z " fill="#9BB112" transform="translate(141,86)"/>
<path d="M0 0 C3.90335195 2.60223463 3.91341995 4.39963561 5.0625 8.875 C6.23335932 13.62246689 6.23335932 13.62246689 8.08203125 18.1171875 C9.25011561 20.51300308 9.41595124 22.60204898 9.625 25.25 C9.69976562 26.14203125 9.77453125 27.0340625 9.8515625 27.953125 C9.90054688 28.62859375 9.94953125 29.3040625 10 30 C9.34 30 8.68 30 8 30 C7.54427083 27.98177083 7.08854167 25.96354167 6.6328125 23.9453125 C6.09525572 21.79280036 6.09525572 21.79280036 4 20 C4 19.01 4 18.02 4 17 C2.68 17.33 1.36 17.66 0 18 C-0.33 17.01 -0.66 16.02 -1 15 C-0.34 14.01 0.32 13.02 1 12 C-0.32 11.34 -1.64 10.68 -3 10 C-2.67 9.01 -2.34 8.02 -2 7 C-2 5.68 -2 4.36 -2 3 C-1.34 2.01 -0.68 1.02 0 0 Z " fill="#B2C822" transform="translate(129,38)"/>
<path d="M0 0 C0.33 0.66 0.66 1.32 1 2 C1.66 2 2.32 2 3 2 C3.31761304 3.33212461 3.62873987 4.66579566 3.9375 6 C4.11152344 6.7425 4.28554687 7.485 4.46484375 8.25 C6.07758925 16.53739293 6.12032335 24.57558227 6.0625 33 C6.05798828 34.25167969 6.05347656 35.50335938 6.04882812 36.79296875 C6.03711415 39.86202941 6.02071073 42.93098907 6 46 C5.67 46 5.34 46 5 46 C5 37.42 5 28.84 5 20 C2.36 20.99 -0.28 21.98 -3 23 C-1.66666667 19.66666667 -0.33333333 16.33333333 1 13 C-0.32 12.67 -1.64 12.34 -3 12 C-2.34 11.34 -1.68 10.68 -1 10 C-1.99 9.67 -2.98 9.34 -4 9 C-3.01 8.34 -2.02 7.68 -1 7 C-0.26393501 3.43230448 -0.26393501 3.43230448 0 0 Z " fill="#A0B61F" transform="translate(136,66)"/>
<path d="M0 0 C0.33 0 0.66 0 1 0 C1.75290853 3.35855523 2.12809129 6.46650994 2.1328125 9.90625 C2.13474609 11.26943359 2.13474609 11.26943359 2.13671875 12.66015625 C2.13285156 13.59730469 2.12898437 14.53445312 2.125 15.5 C2.12886719 16.43714844 2.13273438 17.37429687 2.13671875 18.33984375 C2.13542969 19.24863281 2.13414062 20.15742187 2.1328125 21.09375 C2.13168457 21.91552734 2.13055664 22.73730469 2.12939453 23.58398438 C1.99271227 26.13607433 1.55843431 28.50895043 1 31 C0.34 31 -0.32 31 -1 31 C-2.42500059 27.00999834 -3.40075776 23.19469571 -4 19 C-4.66 19 -5.32 19 -6 19 C-6 17.02 -6 15.04 -6 13 C-3.03 13.495 -3.03 13.495 0 14 C0 9.38 0 4.76 0 0 Z " fill="#CDD48B" transform="translate(147,66)"/>
<path d="M0 0 C4.95500275 2.40161395 7.3141933 5.75888996 10.3125 10.1875 C10.76689453 10.84169922 11.22128906 11.49589844 11.68945312 12.16992188 C12.80171387 13.77391895 13.90207478 15.38615652 15 17 C14.67 17.66 14.34 18.32 14 19 C12.68 19 11.36 19 10 19 C9.67 18.34 9.34 17.68 9 17 C8.34 16.67 7.68 16.34 7 16 C7 15.34 7 14.68 7 14 C4.7272325 12.50475822 2.4320057 11.21600285 0 10 C-0.33333333 8.66666667 -0.66666667 7.33333333 -1 6 C-1.66 5.67 -2.32 5.34 -3 5 C-3 4.01 -3 3.02 -3 2 C-2.01 1.34 -1.02 0.68 0 0 Z " fill="#C9DE27" transform="translate(35,76)"/>
<path d="M0 0 C8.63214876 2.35422239 13.56481988 10.83547827 18 18 C17 20 17 20 15 21 C14.01 20.01 13.02 19.02 12 18 C11.67 18.66 11.34 19.32 11 20 C10.56300781 19.05640625 10.56300781 19.05640625 10.1171875 18.09375 C7.57817619 12.79216665 4.84906784 8.15704057 1.13671875 3.59375 C0 2 0 2 0 0 Z " fill="#B1C732" transform="translate(128,24)"/>
<path d="M0 0 C2 1 2 1 2.8515625 3.3359375 C6.99700861 19.6246096 6.99700861 19.6246096 3.875 26.46484375 C2.67344695 28.40712695 1.42831382 30.21970884 0 32 C1.65 32.66 3.3 33.32 5 34 C4.67 34.66 4.34 35.32 4 36 C3.319375 35.690625 2.63875 35.38125 1.9375 35.0625 C-1.36965912 33.86629351 -4.51545878 33.40994603 -8 33 C-7.236875 32.4225 -6.47375 31.845 -5.6875 31.25 C-2.28656383 28.4027046 -0.40282544 26.20847632 1 22 C1.09637737 19.58489642 1.12981478 17.16702104 1.125 14.75 C1.12757812 13.46609375 1.13015625 12.1821875 1.1328125 10.859375 C1.004597 7.13358355 0.59918558 3.67120054 0 0 Z " fill="#B6C262" transform="translate(62,120)"/>
<path d="M0 0 C0.66 0 1.32 0 2 0 C2.56267578 1.2684375 2.56267578 1.2684375 3.13671875 2.5625 C6.63754034 10.3390012 6.63754034 10.3390012 10.9375 17.6875 C11.618125 18.780625 12.29875 19.87375 13 21 C12.67 21.66 12.34 22.32 12 23 C7.98324122 20.8194738 4.78365503 18.65851804 2 15 C1.59022766 11.95231821 1.700555 9.05433901 2 6 C1.01 5.67 0.02 5.34 -1 5 C-0.67 3.35 -0.34 1.7 0 0 Z " fill="#CEE33D" transform="translate(25,55)"/>
<path d="M0 0 C1.23076923 6.4 1.23076923 6.4 0.0625 9.4375 C-0.288125 9.953125 -0.63875 10.46875 -1 11 C-1.66 11 -2.32 11 -3 11 C-3 10.01 -3 9.02 -3 8 C-4.32 8.33 -5.64 8.66 -7 9 C-7 8.34 -7 7.68 -7 7 C-8.32 6.67 -9.64 6.34 -11 6 C-10.63680051 3.3668037 -10.14494976 2.15568678 -8.3125 0.1875 C-5.20761963 -1.40689803 -3.31383374 -0.82845843 0 0 Z " fill="#C5DB19" transform="translate(24,96)"/>
<path d="M0 0 C1.31625194 2.63250388 0.74813658 3.80179056 0.0625 6.625 C-0.13214844 7.44226562 -0.32679687 8.25953125 -0.52734375 9.1015625 C-0.76130859 10.04128906 -0.76130859 10.04128906 -1 11 C-2.32 11.33 -3.64 11.66 -5 12 C-5.33 17.28 -5.66 22.56 -6 28 C-6.33 28 -6.66 28 -7 28 C-8.80013936 19.9945022 -9.39444172 11.83920166 -5.15625 4.55859375 C-3.69110631 2.58361965 -2.13375566 1.21928895 0 0 Z " fill="#E5EFA9" transform="translate(33,27)"/>
<path d="M0 0 C0.66 0.33 1.32 0.66 2 1 C2 1.66 2 2.32 2 3 C3.32 3.66 4.64 4.32 6 5 C5.01 5.66 4.02 6.32 3 7 C3 7.66 3 8.32 3 9 C3.66 9 4.32 9 5 9 C4.67 11.31 4.34 13.62 4 16 C4.66 16.33 5.32 16.66 6 17 C5.34 17.66 4.68 18.32 4 19 C1 19 1 19 -0.6875 17.6875 C-2 16 -2 16 -2 13 C-1.34 12.34 -0.68 11.68 0 11 C-0.66 11 -1.32 11 -2 11 C-1.814375 10.236875 -1.62875 9.47375 -1.4375 8.6875 C-0.77180827 5.91032625 -0.77180827 5.91032625 -2 3 C-1.34 2.01 -0.68 1.02 0 0 Z " fill="#D0E70F" transform="translate(114,34)"/>
<path d="M0 0 C0.99 0.66 1.98 1.32 3 2 C1.68 2 0.36 2 -1 2 C-0.814375 2.78375 -0.62875 3.5675 -0.4375 4.375 C0 7 0 7 -1 9 C-0.34 9 0.32 9 1 9 C1 8.34 1 7.68 1 7 C1.66 7.33 2.32 7.66 3 8 C2.835 9.093125 2.67 10.18625 2.5 11.3125 C1.93281816 14.87525873 1.93281816 14.87525873 2 18 C1.68911632 19.67099977 1.35919668 21.33871537 1 23 C-3.04006274 16.93990589 -4.20365356 9.16711792 -5 2 C-2.6875 0.875 -2.6875 0.875 0 0 Z " fill="#A4BB19" transform="translate(81,98)"/>
<path d="M0 0 C5.71428571 0.71428571 5.71428571 0.71428571 7 2 C7.04092937 4.33297433 7.04241723 6.66705225 7 9 C6.67 8.01 6.34 7.02 6 6 C5.34 6 4.68 6 4 6 C4.33 7.65 4.66 9.3 5 11 C4.34 11 3.68 11 3 11 C2.67 12.65 2.34 14.3 2 16 C1.67 16 1.34 16 1 16 C0.66048381 14.43883181 0.32867456 12.87598662 0 11.3125 C-0.185625 10.44238281 -0.37125 9.57226562 -0.5625 8.67578125 C-0.99206242 6.04854682 -1.14886126 3.65624311 -1 1 C-0.67 0.67 -0.34 0.34 0 0 Z " fill="#99AF20" transform="translate(148,60)"/>
<path d="M0 0 C26.12314887 0.59236165 26.12314887 0.59236165 36 8 C32.37 8 28.74 8 25 8 C25.33 7.01 25.66 6.02 26 5 C25.21625 5.20625 24.4325 5.4125 23.625 5.625 C22.75875 5.74875 21.8925 5.8725 21 6 C20.34 5.34 19.68 4.68 19 4 C15.87803664 3.53513282 15.87803664 3.53513282 12.375 3.375 C11.18648437 3.30023438 9.99796875 3.22546875 8.7734375 3.1484375 C7.85820313 3.09945313 6.94296875 3.05046875 6 3 C6 2.34 6 1.68 6 1 C4.02 1 2.04 1 0 1 C0 0.67 0 0.34 0 0 Z " fill="#C7DD44" transform="translate(76,5)"/>
<path d="M0 0 C0.99 0 1.98 0 3 0 C3.12375 0.639375 3.2475 1.27875 3.375 1.9375 C3.684375 2.9584375 3.684375 2.9584375 4 4 C4.66 4.33 5.32 4.66 6 5 C6.73075648 7.3140622 7.40138258 9.64828869 8 12 C7.01 11.67 6.02 11.34 5 11 C5 11.66 5 12.32 5 13 C6.32 13.33 7.64 13.66 9 14 C8.34 14.66 7.68 15.32 7 16 C7 15.34 7 14.68 7 14 C5.02 14 3.04 14 1 14 C1 13.01 1 12.02 1 11 C0.05021103 8.84971696 0.05021103 8.84971696 -1 7 C-0.34 7 0.32 7 1 7 C1.33 5.68 1.66 4.36 2 3 C1.01 3.33 0.02 3.66 -1 4 C-0.67 2.68 -0.34 1.36 0 0 Z " fill="#C7DE10" transform="translate(117,40)"/>
<path d="M0 0 C0.99 0.495 0.99 0.495 2 1 C2.6328125 3.06640625 2.6328125 3.06640625 3.125 5.5625 C3.29257813 6.38878906 3.46015625 7.21507813 3.6328125 8.06640625 C3.75398437 8.70449219 3.87515625 9.34257813 4 10 C7.31460705 8.29107501 7.31460705 8.29107501 7.6875 4.875 C7.790625 3.92625 7.89375 2.9775 8 2 C8.33 2 8.66 2 9 2 C9 6.95 9 11.9 9 17 C7.35 17 5.7 17 4 17 C1.64019954 13.4602993 1.41399192 11.00893712 0.875 6.8125 C0.70742187 5.54019531 0.53984375 4.26789063 0.3671875 2.95703125 C0.24601563 1.98121094 0.12484375 1.00539063 0 0 Z " fill="#D7DE9A" transform="translate(138,63)"/>
<path d="M0 0 C1.24348142 3.73044426 0.20062276 5.22110557 -1.23828125 8.73046875 C-2.29157718 11.86875048 -2.50516028 14.92449821 -2.69140625 18.21484375 C-2.79324219 18.80394531 -2.89507812 19.39304687 -3 20 C-3.66 20.33 -4.32 20.66 -5 21 C-6.28317892 17.15046324 -6.06643637 14.05261865 -6 10 C-6.66 9.67 -7.32 9.34 -8 9 C-7.04663979 7.68388323 -6.08714226 6.37221039 -5.125 5.0625 C-4.59132812 4.33160156 -4.05765625 3.60070312 -3.5078125 2.84765625 C-2 1 -2 1 0 0 Z " fill="#D2E464" transform="translate(39,18)"/>
<path d="M0 0 C0.66 0 1.32 0 2 0 C2 0.99 2 1.98 2 3 C2.99 3.33 3.98 3.66 5 4 C5.66 7.3 6.32 10.6 7 14 C7.66 14 8.32 14 9 14 C10.59226248 16.1700263 11.95731902 18.44632228 13.3671875 20.73828125 C15.03643116 23.05046326 16.71223998 24.33968471 19 26 C19.75 28.1875 19.75 28.1875 20 30 C11.75817598 26.53448358 6.09977457 15.55688177 2 8 C1.03408188 5.29030049 0.48348446 2.84718627 0 0 Z " fill="#A6BB35" transform="translate(9,107)"/>
<path d="M0 0 C0 0.99 0 1.98 0 3 C0.928125 3.12375 0.928125 3.12375 1.875 3.25 C4 4 4 4 5.25 6.0625 C5.4975 6.701875 5.745 7.34125 6 8 C0.25 10 0.25 10 -2 10 C-2 9.34 -2 8.68 -2 8 C-2.99 7.67 -3.98 7.34 -5 7 C-5.33 5.35 -5.66 3.7 -6 2 C-2.25 0 -2.25 0 0 0 Z " fill="#BDD426" transform="translate(13,99)"/>
<path d="M0 0 C0.33 0 0.66 0 1 0 C2.50530933 6.14743093 0.9784583 8.93955172 -2.09765625 14.23046875 C-4.92273384 18.34336405 -8.27531915 21.70072686 -12 25 C-12.66 24.01 -13.32 23.02 -14 22 C-7 15 -7 15 -5.37109375 13.48046875 C-2.03042414 9.87330697 -0.72210186 4.76587227 0 0 Z " fill="#A9BB49" transform="translate(140,118)"/>
<path d="M0 0 C1.11436424 4.68032982 0.91118093 7.57410732 -1 12 C-1.66 12.66 -2.32 13.32 -3 14 C-4.32 13.01 -5.64 12.02 -7 11 C-4.6557377 0 -4.6557377 0 0 0 Z " fill="#C9E01B" transform="translate(123,26)"/>
<path d="M0 0 C3.3 0.66 6.6 1.32 10 2 C10 2.99 10 3.98 10 5 C9.01 5.33 8.02 5.66 7 6 C7.99 7.485 7.99 7.485 9 9 C8.01 9.495 8.01 9.495 7 10 C4.18060883 7.79020692 1.46941056 5.59937954 -1 3 C-0.67 2.01 -0.34 1.02 0 0 Z " fill="#B8CF0F" transform="translate(70,87)"/>
<path d="M0 0 C0.99 0.33 1.98 0.66 3 1 C3.28875 1.66 3.5775 2.32 3.875 3 C4.8553382 5.29150599 4.8553382 5.29150599 7.625 5.75 C8.40875 5.8325 9.1925 5.915 10 6 C9.67 7.32 9.34 8.64 9 10 C9.99 9.67 10.98 9.34 12 9 C11.67 9.99 11.34 10.98 11 12 C9.125 11.6875 9.125 11.6875 7 11 C6.34 10.01 5.68 9.02 5 8 C4.01 8 3.02 8 2 8 C0.02 4.535 0.02 4.535 -2 1 C-1.34 0.67 -0.68 0.34 0 0 Z " fill="#CBE211" transform="translate(52,60)"/>
<path d="M0 0 C0.66 0.33 1.32 0.66 2 1 C1.01 2.485 1.01 2.485 0 4 C1.65 4.33 3.3 4.66 5 5 C5 5.66 5 6.32 5 7 C4.01 7 3.02 7 2 7 C2 7.66 2 8.32 2 9 C-3.625 9.25 -3.625 9.25 -7 7 C-7 6.34 -7 5.68 -7 5 C-5.824375 4.87625 -5.824375 4.87625 -4.625 4.75 C-1.85250896 4.27193661 -1.85250896 4.27193661 -0.6875 1.9375 C-0.460625 1.298125 -0.23375 0.65875 0 0 Z " fill="#9FB13E" transform="translate(74,149)"/>
<path d="M0 0 C3.76687864 0 4.91190305 0.23537317 8 2 C7.01 2.495 7.01 2.495 6 3 C6.33 4.32 6.66 5.64 7 7 C6.01 7.66 5.02 8.32 4 9 C0 2.25 0 2.25 0 0 Z M1 6 C1.66 6.66 2.32 7.32 3 8 C2.625 10.125 2.625 10.125 2 12 C1.01 12 0.02 12 -1 12 C-0.125 7.125 -0.125 7.125 1 6 Z " fill="#BFD614" transform="translate(42,93)"/>
<path d="M0 0 C0.66 0 1.32 0 2 0 C2.33 0.99 2.66 1.98 3 3 C1.61709171 4.98793067 0.43832802 5.88705658 -1.91015625 6.4921875 C-4.0625 6.8125 -4.0625 6.8125 -8 7 C-8.66 6.34 -9.32 5.68 -10 5 C-9.67 4.34 -9.34 3.68 -9 3 C-8.34 3 -7.68 3 -7 3 C-7 2.34 -7 1.68 -7 1 C-5.5459375 1.0309375 -5.5459375 1.0309375 -4.0625 1.0625 C-1.12534105 1.35618499 -1.12534105 1.35618499 0 0 Z " fill="#CFE60C" transform="translate(81,78)"/>
<path d="M0 0 C3 2 3 2 3.51171875 4.1640625 C3.56972656 4.97617187 3.62773437 5.78828125 3.6875 6.625 C3.75324219 7.44226562 3.81898438 8.25953125 3.88671875 9.1015625 C3.92410156 9.72804688 3.96148437 10.35453125 4 11 C2.02 11 0.04 11 -2 11 C-2 10.01 -2 9.02 -2 8 C-2.226875 7.360625 -2.45375 6.72125 -2.6875 6.0625 C-3 4 -3 4 -1.5625 1.75 C-1.046875 1.1725 -0.53125 0.595 0 0 Z " fill="#B7CE1B" transform="translate(129,38)"/>
<path d="M0 0 C2.65204896 0.36834013 3.73840056 0.6867691 5.484375 2.77734375 C5.90203125 3.49019531 6.3196875 4.20304687 6.75 4.9375 C7.17796875 5.64777344 7.6059375 6.35804687 8.046875 7.08984375 C9 9 9 9 9 11 C6.625 10.6875 6.625 10.6875 4 10 C2 7 2 7 2 6 C1.34 6 0.68 6 0 6 C0 4.02 0 2.04 0 0 Z " fill="#B7CC2A" transform="translate(48,96)"/>
<path d="M0 0 C4.42834676 1.39176612 7.03101453 3.43721744 10 7 C10 9 10 11 10 13 C6.23924335 11.74641445 5.52350869 10.29326113 3.3125 7.0625 C2.68988281 6.16660156 2.06726563 5.27070313 1.42578125 4.34765625 C0 2 0 2 0 0 Z " fill="#B4C93B" transform="translate(128,24)"/>
<path d="M0 0 C-7.75450377 2.7958415 -14.69267306 4.16953728 -23 4 C-22.67 3.34 -22.34 2.68 -22 2 C-19.84765625 1.4453125 -19.84765625 1.4453125 -17 1 C-15.94683594 0.81179687 -14.89367187 0.62359375 -13.80859375 0.4296875 C-12.69613281 0.24664062 -11.58367187 0.06359375 -10.4375 -0.125 C-8.76494141 -0.40730469 -8.76494141 -0.40730469 -7.05859375 -0.6953125 C-4.29460833 -0.97065204 -2.58874641 -0.89878237 0 0 Z " fill="#96AA31" transform="translate(96,150)"/>
<path d="M0 0 C0.33 0 0.66 0 1 0 C1 6.93 1 13.86 1 21 C1.66 21 2.32 21 3 21 C3.12375 19.700625 3.2475 18.40125 3.375 17.0625 C3.5859375 14.84765625 3.5859375 14.84765625 4 13 C4.66 12.67 5.32 12.34 6 12 C5.88541307 13.43836751 5.75790884 14.87570966 5.625 16.3125 C5.55539063 17.11300781 5.48578125 17.91351563 5.4140625 18.73828125 C5 21 5 21 3 24 C2.01 24 1.02 24 0 24 C0 16.08 0 8.16 0 0 Z " fill="#8EA224" transform="translate(150,76)"/>
<path d="M0 0 C-1.65 0.33 -3.3 0.66 -5 1 C-5 1.66 -5 2.32 -5 3 C-5.56589844 3.12117187 -6.13179687 3.24234375 -6.71484375 3.3671875 C-7.44832031 3.53476563 -8.18179688 3.70234375 -8.9375 3.875 C-9.66839844 4.03742187 -10.39929688 4.19984375 -11.15234375 4.3671875 C-13.20700294 4.82961523 -13.20700294 4.82961523 -14 7 C-16.3125 7.5625 -16.3125 7.5625 -19 8 C-20.33542939 8.32483418 -21.66961551 8.6550855 -23 9 C-18.24935038 3.69227094 -7.07682678 -2.72185646 0 0 Z " fill="#CCE246" transform="translate(63,9)"/>
<path d="M0 0 C0.33 0.66 0.66 1.32 1 2 C-1.56033646 7.97411841 -7.23476349 12.67499084 -13 15.4375 C-13.66 15.623125 -14.32 15.80875 -15 16 C-13.51685206 12.0898827 -11.53749628 11.05668388 -8 9 C-4.99056675 6.20552627 -2.36328113 3.35834688 0 0 Z " fill="#9EB03F" transform="translate(137,126)"/>
<path d="M0 0 C2.93517013 1.46758506 3.69868726 3.00698071 5 6 C4.1875 9.8125 4.1875 9.8125 3 13 C0.5 11.6875 0.5 11.6875 -2 10 C-2 9.01 -2 8.02 -2 7 C-0.68 7 0.64 7 2 7 C2 6.01 2 5.02 2 4 C1.01 3.67 0.02 3.34 -1 3 C-0.67 2.01 -0.34 1.02 0 0 Z " fill="#B1C818" transform="translate(132,57)"/>
<path d="M0 0 C1.65 1.65 3.3 3.3 5 5 C4.01 6.32 3.02 7.64 2 9 C3.32 9.66 4.64 10.32 6 11 C5.01 12.485 5.01 12.485 4 14 C3.896875 13.360625 3.79375 12.72125 3.6875 12.0625 C3.460625 11.381875 3.23375 10.70125 3 10 C2.01 9.67 1.02 9.34 0 9 C-1.1875 5.4375 -1.1875 5.4375 -2 2 C-1.34 1.34 -0.68 0.68 0 0 Z " fill="#BACF24" transform="translate(67,81)"/>
<path d="M0 0 C2.49361571 1.20381448 4.68143083 2.45428722 7 4 C6.67 4.99 6.34 5.98 6 7 C5.01 7.33 4.02 7.66 3 8 C2.34 7.34 1.68 6.68 1 6 C-1.10820797 6.3185177 -1.10820797 6.3185177 -3 7 C-2.38722388 4.03824877 -1.74627478 2.61941217 0 0 Z " fill="#9FB60F" transform="translate(123,102)"/>
<path d="M0 0 C0.33 0.66 0.66 1.32 1 2 C-1.25 4.5625 -1.25 4.5625 -4 7 C-6.3125 6.8125 -6.3125 6.8125 -8 6 C-7.67 4.35 -7.34 2.7 -7 1 C-3.535 0.505 -3.535 0.505 0 0 Z " fill="#B9D00E" transform="translate(89,91)"/>
<path d="M0 0 C0.66 0.33 1.32 0.66 2 1 C1.34 1.66 0.68 2.32 0 3 C-1.03842565 5.31648799 -2.0421975 7.64903024 -3 10 C-3.66 10 -4.32 10 -5 10 C-5 8.68 -5 7.36 -5 6 C-6.32 7.65 -7.64 9.3 -9 11 C-9.66 10.67 -10.32 10.34 -11 10 C-9.73657512 8.51450044 -8.4639897 7.03678811 -7.1875 5.5625 C-6.47980469 4.73878906 -5.77210937 3.91507813 -5.04296875 3.06640625 C-3 1 -3 1 0 0 Z " fill="#C9DE50" transform="translate(29,28)"/>
<path d="M0 0 C1.65 0 3.3 0 5 0 C5.66 1.65 6.32 3.3 7 5 C5.1875 6.0625 5.1875 6.0625 3 7 C2.01 6.67 1.02 6.34 0 6 C0 4.02 0 2.04 0 0 Z " fill="#ADC41D" transform="translate(52,107)"/>
<path d="M0 0 C0.33 0.66 0.66 1.32 1 2 C1.66 2 2.32 2 3 2 C4.4783226 4.95664519 4.06032783 7.74229737 4 11 C3.67 11 3.34 11 3 11 C2.67 9.68 2.34 8.36 2 7 C2 7.66 2 8.32 2 9 C0.02 9.33 -1.96 9.66 -4 10 C-3.525625 9.649375 -3.05125 9.29875 -2.5625 8.9375 C-0.32126175 6.15836457 -0.32882342 3.4855283 0 0 Z " fill="#A8BE21" transform="translate(136,66)"/>
<path d="M0 0 C0.66 0 1.32 0 2 0 C5 3.46153846 5 3.46153846 5 6 C5.99 6.33 6.98 6.66 8 7 C7.34 8.32 6.68 9.64 6 11 C4.99126984 9.73608512 3.99328178 8.46359117 3 7.1875 C2.443125 6.47980469 1.88625 5.77210937 1.3125 5.04296875 C0 3 0 3 0 0 Z " fill="#C6DC2F" transform="translate(49,62)"/>
<path d="M0 0 C5.75 1.875 5.75 1.875 8 3 C7.54625 3.433125 7.0925 3.86625 6.625 4.3125 C4.79975666 6.10798342 4.79975666 6.10798342 3 9 C0 3.375 0 3.375 0 0 Z " fill="#AEC322" transform="translate(72,94)"/>
<path d="M0 0 C0.33 0 0.66 0 1 0 C1 1.65 1 3.3 1 5 C1.66 5 2.32 5 3 5 C2.67 6.32 2.34 7.64 2 9 C0.33333333 9 -1.33333333 9 -3 9 C-3 8.34 -3 7.68 -3 7 C-2.34 7 -1.68 7 -1 7 C-0.67 4.69 -0.34 2.38 0 0 Z " fill="#A6BC24" transform="translate(59,112)"/>
<path d="M0 0 C0.33 0.66 0.66 1.32 1 2 C1.66 2.33 2.32 2.66 3 3 C1.02 5.64 -0.96 8.28 -3 11 C-3.66 10.67 -4.32 10.34 -5 10 C-3.35 6.7 -1.7 3.4 0 0 Z " fill="#A0B33A" transform="translate(146,114)"/>
<path d="M0 0 C2.89932357 2.39509338 3.50168276 4.31245243 4 8 C2.35 7.67 0.7 7.34 -1 7 C-0.67 5.68 -0.34 4.36 0 3 C-0.66 2.67 -1.32 2.34 -2 2 C-1.34 1.34 -0.68 0.68 0 0 Z " fill="#ABC228" transform="translate(138,32)"/>
<path d="M0 0 C0.99 0.495 0.99 0.495 2 1 C2.6328125 3.94140625 2.6328125 3.94140625 3.125 7.5625 C3.29257813 8.76003906 3.46015625 9.95757812 3.6328125 11.19140625 C3.75398437 12.11824219 3.87515625 13.04507813 4 14 C3.34 14 2.68 14 2 14 C0.9551242 9.37269289 0.48243721 4.71146122 0 0 Z " fill="#B4C746" transform="translate(135,54)"/>
<path d="M0 0 C0.33 0 0.66 0 1 0 C2.26332183 4.21107278 2.00441956 6.5456709 0.0625 10.375 C-0.60974879 11.59188424 -1.29234251 12.8033603 -2 14 C-2.66 14 -3.32 14 -4 14 C-3.69255859 13.11248047 -3.69255859 13.11248047 -3.37890625 12.20703125 C-2.0002429 8.16339184 -0.68249153 4.23144751 0 0 Z " fill="#B6C45A" transform="translate(140,118)"/>
<path d="M0 0 C2.97 0.495 2.97 0.495 6 1 C5.01 1.495 5.01 1.495 4 2 C4 2.66 4 3.32 4 4 C4.66 4.33 5.32 4.66 6 5 C4.02 5.99 4.02 5.99 2 7 C1.67 6.01 1.34 5.02 1 4 C0.34 3.67 -0.32 3.34 -1 3 C-0.67 2.01 -0.34 1.02 0 0 Z " fill="#B0C710" transform="translate(70,87)"/>
<path d="M0 0 C1.32 0.33 2.64 0.66 4 1 C3.814375 1.61875 3.62875 2.2375 3.4375 2.875 C2.76313824 5.04160178 2.76313824 5.04160178 4 7 C3.34 8.32 2.68 9.64 2 11 C1.34 7.37 0.68 3.74 0 0 Z " fill="#A0B42C" transform="translate(79,110)"/>
<path d="M0 0 C0.66 0.33 1.32 0.66 2 1 C1.67 2.65 1.34 4.3 1 6 C-0.32 5.67 -1.64 5.34 -3 5 C-3.33 3.68 -3.66 2.36 -4 1 C-2.68 1.33 -1.36 1.66 0 2 C0 1.34 0 0.68 0 0 Z " fill="#9CB217" transform="translate(82,105)"/>
<path d="M0 0 C0.66 0.33 1.32 0.66 2 1 C2.125 6.75 2.125 6.75 1 9 C0.34 9 -0.32 9 -1 9 C-1.09765625 2.84765625 -1.09765625 2.84765625 -1 1 C-0.67 0.67 -0.34 0.34 0 0 Z " fill="#849914" transform="translate(152,88)"/>
<path d="M0 0 C0.66 0 1.32 0 2 0 C2 0.99 2 1.98 2 3 C2.99 3.33 3.98 3.66 5 4 C5 5.65 5 7.3 5 9 C4.01 8.67 3.02 8.34 2 8 C1.26953125 6.15234375 1.26953125 6.15234375 0.8125 3.9375 C0.65394531 3.20402344 0.49539063 2.47054687 0.33203125 1.71484375 C0.22246094 1.14894531 0.11289063 0.58304687 0 0 Z " fill="#B1C832" transform="translate(9,107)"/>
<path d="M0 0 C2.31 0 4.62 0 7 0 C7.33 0.99 7.66 1.98 8 3 C5.69 3 3.38 3 1 3 C0.67 2.01 0.34 1.02 0 0 Z " fill="#9EB517" transform="translate(50,116)"/>
<path d="M0 0 C1.32 0.33 2.64 0.66 4 1 C3.67 3.31 3.34 5.62 3 8 C2.34 8 1.68 8 1 8 C-0.35439668 5.29120665 -0.06501451 2.99066732 0 0 Z " fill="#CDE33D" transform="translate(37,37)"/>
<path d="M0 0 C4.93928888 -0.3367697 5.78492722 -0.16130459 10 3 C6.37 3 2.74 3 -1 3 C-0.67 2.01 -0.34 1.02 0 0 Z " fill="#D0E646" transform="translate(102,10)"/>
<path d="M0 0 C3 1 3 1 4.75 3.875 C6 7 6 7 5 10 C4.16121545 8.71186658 3.32913217 7.41936744 2.5 6.125 C2.0359375 5.40570313 1.571875 4.68640625 1.09375 3.9453125 C0 2 0 2 0 0 Z " fill="#D2DA8F" transform="translate(57,106)"/>
<path d="M0 0 C0.66 0 1.32 0 2 0 C2.33 2.31 2.66 4.62 3 7 C2.01 6.67 1.02 6.34 0 6 C0 5.34 0 4.68 0 4 C-0.66 4 -1.32 4 -2 4 C-2 2 -2 2 0 0 Z " fill="#CDE31B" transform="translate(47,52)"/>
<path d="M0 0 C0.66 0 1.32 0 2 0 C3.625 2 3.625 2 5 4 C4.34 5.32 3.68 6.64 3 8 C0.4345406 5.4345406 0.45953913 3.52313332 0 0 Z " fill="#CBE03A" transform="translate(45,56)"/>
<path d="M0 0 C1.2077558 3.62326739 0.54311128 4.64146369 -1 8 C-1.99 6.68 -2.98 5.36 -4 4 C-2.68 2.68 -1.36 1.36 0 0 Z " fill="#CEE34B" transform="translate(39,18)"/>
<path d="M0 0 C1.1446875 0.3403125 1.1446875 0.3403125 2.3125 0.6875 C1.3225 1.0175 0.3325 1.3475 -0.6875 1.6875 C-0.6875 2.3475 -0.6875 3.0075 -0.6875 3.6875 C-2.3375 4.0175 -3.9875 4.3475 -5.6875 4.6875 C-5.6875 2.6875 -5.6875 2.6875 -4.5 1 C-2.6875 -0.3125 -2.6875 -0.3125 0 0 Z " fill="#ACC30F" transform="translate(131.6875,71.3125)"/>
<path d="M0 0 C0.99 0.66 1.98 1.32 3 2 C2.67 3.32 2.34 4.64 2 6 C0.35 5.67 -1.3 5.34 -3 5 C-2.01 3.35 -1.02 1.7 0 0 Z " fill="#B6CB30" transform="translate(129,38)"/>
<path d="M0 0 C0.33 0.66 0.66 1.32 1 2 C1.66 2.33 2.32 2.66 3 3 C2.67 4.32 2.34 5.64 2 7 C1.01 6.67 0.02 6.34 -1 6 C-1.042721 4.33388095 -1.04063832 2.66617115 -1 1 C-0.67 0.67 -0.34 0.34 0 0 Z " fill="#8CA216" transform="translate(83,116)"/>
</svg>
